{
.appVersion = "1141";
copyright = "Copyright 2011, 2017 Google Inc. All Rights Reserved.";
customParameters = (
{
name = glyphOrder;
value = (
space,
nbspace,
A,
Agrave,
Aacute,
Acircumflex,
Atilde,
Adieresis,
Aring,
Amacron,
Abreve,
Aogonek,
Aringacute,
Adblgrave,
Ainvertedbreve,
Adotbelow,
Ahookabove,
Acircumflexacute,
Acircumflexgrave,
Acircumflexhookabove,
Acircumflextilde,
Acircumflexdotbelow,
Abreveacute,
Abrevegrave,
Abrevehookabove,
Abrevetilde,
Abrevedotbelow,
B,
C,
Ccedilla,
Cacute,
Ccircumflex,
Cdotaccent,
Ccaron,
D,
Dcaron,
E,
Egrave,
Eacute,
Ecircumflex,
Edieresis,
Emacron,
Ebreve,
Edotaccent,
Eogonek,
Ecaron,
Edblgrave,
Einvertedbreve,
Edotbelow,
Ehookabove,
Etilde,
Ecircumflexacute,
Ecircumflexgrave,
Ecircumflexhookabove,
Ecircumflextilde,
Ecircumflexdotbelow,
F,
G,
Gcircumflex,
Gbreve,
Gdotaccent,
Gcommaaccent,
Gcaron,
H,
Hcircumflex,
I,
Igrave,
Iacute,
Icircumflex,
Idieresis,
Itilde,
Imacron,
Ibreve,
Iogonek,
Idotaccent,
Idblgrave,
Iinvertedbreve,
Ihookabove,
Idotbelow,
J,
Jcircumflex,
K,
Kcommaaccent,
L,
Lacute,
Lcommaaccent,
Lcaron,
M,
N,
Ntilde,
Nacute,
Ncommaaccent,
Ncaron,
O,
Ograve,
Oacute,
Ocircumflex,
Otilde,
Odieresis,
Omacron,
Obreve,
Ohungarumlaut,
Ohorn,
Oogonek,
Odblgrave,
Oinvertedbreve,
Odieresismacron,
Otildemacron,
Odotaccentmacron,
Odotbelow,
Ohookabove,
Ocircumflexacute,
Ocircumflexgrave,
Ocircumflexhookabove,
Ocircumflextilde,
Ocircumflexdotbelow,
Ohornacute,
Ohorngrave,
Ohornhookabove,
Ohorntilde,
Ohorndotbelow,
P,
Q,
R,
Racute,
Rcommaaccent,
Rcaron,
Rdblgrave,
Rinvertedbreve,
S,
Sacute,
Scircumflex,
Scedilla,
Scaron,
Scommaaccent,
T,
Tcedilla,
Tcaron,
Tcommaaccent,
U,
Ugrave,
Uacute,
Ucircumflex,
Udieresis,
Utilde,
Umacron,
Ubreve,
Uring,
Uhungarumlaut,
Uogonek,
Uhorn,
Udblgrave,
Uinvertedbreve,
Udotbelow,
Uhookabove,
Uhornacute,
Uhorngrave,
Uhornhookabove,
Uhorntilde,
Uhorndotbelow,
V,
W,
Wcircumflex,
Wgrave,
Wacute,
Wdieresis,
X,
Y,
Yacute,
Ycircumflex,
Ydieresis,
Ymacron,
Ygrave,
Ydotbelow,
Yhookabove,
Ytilde,
Z,
Zacute,

glyphs = (
{
glyphname = A;
layers = (
{
layerId = "3F9F0E9B-02B5-40B1-9FD1-782180825A5D";
paths = (
{
closed = 1;
nodes = (
"333 1457 LINE",
"981 1455 LINE",
"915 -2 LINE",
"457 0 LINE",
"519 565 LINE SMOOTH",
"523 605 OFFCURVE",
"542 796 OFFCURVE",
"542 804 QCURVE",
"530 804 LINE",
"527 796 OFFCURVE",
"491 606 OFFCURVE",
"483 565 QCURVE SMOOTH",
"375 0 LINE",
"-130 2 LINE"
);
},
{
closed = 1;
nodes = (
"353 536 LINE",
"651 534 LINE",
"609 190 LINE",
"275 192 LINE"
);
}
);
width = 1040;
}
);
leftKerningGroup = A_UC;
rightKerningGroup = A_UC;
unicode = 0041;
},
{
glyphname = B;
layers = (
{
layerId = "3F9F0E9B-02B5-40B1-9FD1-782180825A5D";
paths = (
{
closed = 1;
nodes = (
"133 1458 LINE",
"656 1456 LINE SMOOTH",
"835 1455 OFFCURVE",
"1009 1219 OFFCURVE",
"984 1056 QCURVE SMOOTH",
"962 911 OFFCURVE",
"836 790 OFFCURVE",
"774 768 QCURVE",
"773 767 LINE",
"851 746 OFFCURVE",
"959 564 OFFCURVE",
"929 398 QCURVE SMOOTH",
"893 192 OFFCURVE",
"611 -1 OFFCURVE",
"399 0 QCURVE SMOOTH",
"-124 2 LINE"
);
},
{
closed = 1;
nodes = (
"415 376 LINE SMOOTH",
"424 376 OFFCURVE",
"439 395 OFFCURVE",
"454 482 QCURVE SMOOTH",
"469 568 OFFCURVE",
"459 585 OFFCURVE",
"449 585 QCURVE SMOOTH",
"432 585 LINE",
"395 376 LINE"
);
},
{
closed = 1;
nodes = (
"494 857 LINE SMOOTH",
"508 857 OFFCURVE",
"524 878 OFFCURVE",
"537 952 QCURVE SMOOTH",
"552 1039 OFFCURVE",
"544 1058 OFFCURVE",
"530 1058 QCURVE SMOOTH",
"516 1058 LINE",
"480 857 LINE"
);
}
);
width = 994;
}
);
leftKerningGroup = StraightRight_UC;
unicode = 0042;
},
{
glyphname = C;
layers = (
{
layerId = "3F9F0E9B-02B5-40B1-9FD1-782180825A5D";
paths = (
{
closed = 1;
nodes = (
"25 845 LINE SMOOTH",
"80 1160 OFFCURVE",
"384 1477 OFFCURVE",
"647 1476 QCURVE SMOOTH",
"900 1475 OFFCURVE",
"1099 1206 OFFCURVE",
"1055 965 QCURVE SMOOTH",
"1015 742 LINE",
"538 744 LINE",
"590 1038 LINE SMOOTH",
"593 1056 OFFCURVE",
"588 1067 OFFCURVE",
"581 1067 QCURVE SMOOTH",
"574 1067 OFFCURVE",
"564 1052 OFFCURVE",
"562 1038 QCURVE SMOOTH",
"452 413 LINE SMOOTH",
"448 393 OFFCURVE",
"449 377 OFFCURVE",
"459 377 QCURVE SMOOTH",
"471 377 OFFCURVE",
"477 396 OFFCURVE",
"479 406 QCURVE SMOOTH",
"529 692 LINE",
"1007 690 LINE",
"980 536 LINE SMOOTH",
"932 265 OFFCURVE",
"627 -20 OFFCURVE",
"384 -19 QCURVE SMOOTH",
"138 -18 OFFCURVE",
"-76 275 OFFCURVE",
"-17 607 QCURVE SMOOTH"
);
}
);
width = 1029;
}
);
leftKerningGroup = CG_UC;
rightKerningGroup = C_UC;
unicode = 0043;
},
{
glyphname = D;
layers = (
{
layerId = "3F9F0E9B-02B5-40B1-9FD1-782180825A5D";
paths = (
{
closed = 1;
nodes = (
"137 1458 LINE",
"709 1456 LINE SMOOTH",
"930 1455 OFFCURVE",
"1084 1093 OFFCURVE",
"1039 842 QCURVE SMOOTH",
"996 600 LINE SMOOTH",
"940 285 OFFCURVE",
"644 -1 OFFCURVE",
"421 0 QCURVE SMOOTH",
"-120 2 LINE"
);
},
{
closed = 1;
nodes = (
"432 380 LINE SMOOTH",
"441 380 OFFCURVE",
"445 388 OFFCURVE",
"449 409 QCURVE SMOOTH",
"558 1029 LINE SMOOTH",
"560 1040 OFFCURVE",
"558 1049 OFFCURVE",
"552 1049 QCURVE SMOOTH",
"535 1049 LINE",
"417 380 LINE"
);
}
);
width = 1028;
}
);
leftKerningGroup = StraightRight_UC;
rightKerningGroup = D_UC;
unicode = 0044;
},
{
glyphname = E;
layers = (
{
layerId = "3F9F0E9B-02B5-40B1-9FD1-782180825A5D";
paths = (
{
closed = 1;
nodes = (
"137 1458 LINE",
"923 1454 LINE",
"841 988 LINE",
"525 990 LINE",
"520 963 LINE",
"816 961 LINE",
"733 495 LINE",
"437 497 LINE",
"432 466 LINE",
"760 464 LINE",
"678 -2 LINE",
"-120 2 LINE"
);
}
);
width = 819;
}
);
leftKerningGroup = StraightRight_UC;
rightKerningGroup = E_UC;
unicode = 0045;
},
{
glyphname = F;
layers = (
{
layerId = "3F9F0E9B-02B5-40B1-9FD1-782180825A5D";
paths = (
{
closed = 1;
nodes = (
"137 1457 LINE",
"840 1455 LINE",
"758 990 LINE",
"545 990 LINE",
"536 943 LINE",
"731 943 LINE",
"649 478 LINE",
"454 478 LINE",
"370 -1 LINE",
"-120 1 LINE"
);
}
);
width = 715;
}
);
leftKerningGroup = StraightRight_UC;
unicode = 0046;
},
{
glyphname = G;
layers = (
{
layerId = "3F9F0E9B-02B5-40B1-9FD1-782180825A5D";
paths = (
{
closed = 1;
nodes = (
"25 845 LINE SMOOTH",
"84 1181 OFFCURVE",
"403 1486 OFFCURVE",
"669 1485 QCURVE SMOOTH",
"921 1484 OFFCURVE",
"1105 1219 OFFCURVE",
"1065 982 QCURVE SMOOTH",
"1047 880 LINE",
"550 882 LINE",
"579 1052 LINE SMOOTH",
"582 1069 OFFCURVE",
"581 1078 OFFCURVE",
"570 1078 QCURVE SMOOTH",
"563 1078 OFFCURVE",
"557 1064 OFFCURVE",
"554 1049 QCURVE SMOOTH",
"436 378 LINE SMOOTH",
"433 359 OFFCURVE",
"433 347 OFFCURVE",
"449 347 QCURVE SMOOTH",
"466 347 OFFCURVE",
"471 355 OFFCURVE",
"475 375 QCURVE SMOOTH",
"497 500 LINE",
"471 500 LINE",
"534 856 LINE",
"1055 856 LINE",
"940 210 LINE",
"886 136 OFFCURVE",
"617 -29 OFFCURVE",
"403 -28 QCURVE SMOOTH",
"156 -27 OFFCURVE",
"-75 278 OFFCURVE",
"-16 616 QCURVE SMOOTH"
);
}
);
width = 1046;
}
);
leftKerningGroup = CG_UC;
rightKerningGroup = G_UC;
unicode = 0047;
},
{
glyphname = H;
layers = (
{
layerId = "3F9F0E9B-02B5-40B1-9FD1-782180825A5D";
paths = (
{
closed = 1;
nodes = (
"133 1456 LINE",
"611 1456 LINE",
"531 1002 LINE",
"552 1002 LINE",
"632 1456 LINE",
"1109 1456 LINE",
"852 0 LINE",
"374 0 LINE",
"463 504 LINE",
"442 504 LINE",
"353 0 LINE",
"-124 0 LINE"
);
}
);
width = 986;
}
);
leftKerningGroup = StraightRight_UC;
rightKerningGroup = LeftStraight_UC;
unicode = 0048;
},
{
glyphname = I;
layers = (
{
layerId = "3F9F0E9B-02B5-40B1-9FD1-782180825A5D";
paths = (
{
closed = 1;
nodes = (
"136 1456 LINE",
"631 1456 LINE",
"374 0 LINE",
"-120 0 LINE"
);
}
);
width = 511;
}
);
leftKerningGroup = StraightRight_UC;
rightKerningGroup = LeftStraight_UC;
unicode = 0049;
},
{
glyphname = J;
layers = (
{
layerId = "3F9F0E9B-02B5-40B1-9FD1-782180825A5D";
paths = (
{
closed = 1;
nodes = (
"-14 635 LINE",
"429 635 LINE",
"389 405 LINE SMOOTH",
"386 386 OFFCURVE",
"387 368 OFFCURVE",
"394 368 QCURVE SMOOTH",
"400 368 OFFCURVE",
"405 380 OFFCURVE",
"408 399 QCURVE SMOOTH",
"595 1456 LINE",
"1088 1456 LINE",
"920 507 LINE SMOOTH",
"870 221 OFFCURVE",
"561 -24 OFFCURVE",
"330 -24 QCURVE SMOOTH",
"131 -24 OFFCURVE",
"-85 231 OFFCURVE",
"-46 454 QCURVE SMOOTH"
);
}
);
width = 969;
}
);
leftKerningGroup = J_UC;
rightKerningGroup = JU_UC;
unicode = 004A;
},
{
glyphname = K;
layers = (
{
layerId = "3F9F0E9B-02B5-40B1-9FD1-782180825A5D";
paths = (
{
closed = 1;
nodes = (
"133 1456 LINE",
"611 1456 LINE",
"555 1142 LINE",
"745 1456 LINE",
"1194 1456 LINE",
"398 294 LINE",
"356 0 LINE",
"-124 0 LINE"
);
},
{
closed = 1;
nodes = (
"441 537 LINE",
"851 1134 LINE",
"942 0 LINE",
"436 0 LINE"
);
}
);
width = 1061;
}
);
leftKerningGroup = StraightRight_UC;
rightKerningGroup = K_UC;
unicode = 004B;
},
{
glyphname = L;
layers = (
{
layerId = "3F9F0E9B-02B5-40B1-9FD1-782180825A5D";
paths = (
{
closed = 1;
nodes = (
"134 1456 LINE",
"625 1456 LINE",
"439 422 LINE",
"693 422 LINE",
"622 0 LINE",
"-124 0 LINE"
);
}
);
width = 758;
}
);
leftKerningGroup = StraightRight_UC;
rightKerningGroup = L_UC;
unicode = 004C;
},
{
glyphname = M;
layers = (
{
layerId = "3F9F0E9B-02B5-40B1-9FD1-782180825A5D";
paths = (
{
closed = 1;
nodes = (
"227 1456 LINE",
"834 1456 LINE",
"797 940 LINE SMOOTH",
"796 926 OFFCURVE",
"794 892 OFFCURVE",
"793 886 QCURVE",
"794 886 LINE",
"795 891 OFFCURVE",
"803 929 OFFCURVE",
"805 940 QCURVE SMOOTH",
"909 1456 LINE",
"1545 1456 LINE",
"1356 0 LINE",
"899 0 LINE",
"984 560 LINE SMOOTH",
"985 567 OFFCURVE",
"1020 803 OFFCURVE",
"1023 819 QCURVE",
"1020 819 LINE",
"1016 803 OFFCURVE",
"964 568 OFFCURVE",
"963 561 QCURVE SMOOTH",
"846 0 LINE",
"376 0 LINE",
"464 570 LINE SMOOTH",
"465 578 OFFCURVE",
"496 810 OFFCURVE",
"497 814 QCURVE",
"496 814 LINE",
"495 810 OFFCURVE",
"442 579 OFFCURVE",
"440 570 QCURVE SMOOTH",
"325 0 LINE",
"-130 0 LINE"
);
}
);
width = 1494;
}
);
leftKerningGroup = StraightRight_UC;
rightKerningGroup = LeftStraight_UC;
unicode = 004D;
},
{
glyphname = N;
layers = (
{
layerId = "3F9F0E9B-02B5-40B1-9FD1-782180825A5D";
paths = (
{
closed = 1;
nodes = (
"133 1456 LINE",
"547 1456 LINE",
"563 1154 LINE SMOOTH",
"564 1137 OFFCURVE",
"570 1039 OFFCURVE",
"570 1011 QCURVE",
"571 1011 LINE",
"575 1037 OFFCURVE",
"595 1137 OFFCURVE",
"598 1154 QCURVE SMOOTH",
"648 1456 LINE",
"1120 1456 LINE",
"863 0 LINE",
"467 0 LINE",
"448 294 LINE SMOOTH",
"447 307 OFFCURVE",
"437 415 OFFCURVE",
"436 439 QCURVE",
"430 439 LINE",
"427 417 OFFCURVE",
"407 307 OFFCURVE",
"405 294 QCURVE SMOOTH",
"353 0 LINE",
"-124 0 LINE"
);
}
);
width = 997;
}
);
leftKerningGroup = StraightRight_UC;
rightKerningGroup = LeftStraight_UC;
unicode = 004E;
},
{
glyphname = O;
layers = (
{
layerId = "3F9F0E9B-02B5-40B1-9FD1-782180825A5D";
paths = (
{
closed = 1;
nodes = (
"25 863 LINE SMOOTH",
"81 1176 OFFCURVE",
"390 1479 OFFCURVE",
"641 1478 QCURVE SMOOTH",
"902 1477 OFFCURVE",
"1100 1173 OFFCURVE",
"1045 860 QCURVE SMOOTH",
"1004 628 LINE SMOOTH",
"948 313 OFFCURVE",
"635 -22 OFFCURVE",
"378 -21 QCURVE SMOOTH",
"129 -20 OFFCURVE",
"-72 316 OFFCURVE",
"-16 632 QCURVE SMOOTH"
);
},
{
closed = 1;
nodes = (
"439 390 OFFCURVE",
"441 377 OFFCURVE",
"449 377 QCURVE SMOOTH",
"457 377 OFFCURVE",
"465 391 OFFCURVE",
"468 412 QCURVE SMOOTH",
"579 1040 LINE SMOOTH",
"582 1054 OFFCURVE",
"581 1069 OFFCURVE",
"572 1069 QCURVE SMOOTH",
"563 1069 OFFCURVE",
"557 1054 OFFCURVE",
"554 1040 QCURVE SMOOTH",
"443 412 LINE SMOOTH"
);
}
);
width = 1028;
}
);
leftKerningGroup = CG_UC;
rightKerningGroup = D_UC;
unicode = 004F;
},
{
glyphname = P;
layers = (
{
layerId = "3F9F0E9B-02B5-40B1-9FD1-782180825A5D";
paths = (
{
closed = 1;
nodes = (
"133 1456 LINE",
"726 1456 LINE SMOOTH",
"914 1456 OFFCURVE",
"1069 1168 OFFCURVE",
"1018 879 QCURVE SMOOTH",
"967 590 OFFCURVE",
"690 309 OFFCURVE",
"485 309 QCURVE SMOOTH",
"410 309 LINE",
"356 0 LINE",
"-124 0 LINE"
);
},
{
closed = 1;
nodes = (
"493 690 LINE SMOOTH",
"504 690 OFFCURVE",
"512 716 OFFCURVE",
"539 865 QCURVE SMOOTH",
"564 1007 OFFCURVE",
"564 1041 OFFCURVE",
"554 1041 QCURVE SMOOTH",
"540 1041 LINE",
"478 690 LINE"
);
}
);
width = 1002;
}
);
leftKerningGroup = StraightRight_UC;
unicode = 0050;
},
{
glyphname = Q;
layers = (
{
layerId = "3F9F0E9B-02B5-40B1-9FD1-782180825A5D";
paths = (
{
closed = 1;
nodes = (
"26 871 LINE SMOOTH",
"83 1194 OFFCURVE",
"390 1486 OFFCURVE",
"641 1486 QCURVE SMOOTH",
"902 1486 OFFCURVE",
"1103 1195 OFFCURVE",
"1045 872 QCURVE SMOOTH",
"1001 626 LINE SMOOTH",
"943 301 OFFCURVE",
"635 -13 OFFCURVE",
"378 -13 QCURVE SMOOTH",
"129 -13 OFFCURVE",
"-75 300 OFFCURVE",
"-18 626 QCURVE SMOOTH"
);
},
{
closed = 1;
nodes = (
"439 398 OFFCURVE",
"441 385 OFFCURVE",
"449 385 QCURVE SMOOTH",
"457 385 OFFCURVE",
"464 399 OFFCURVE",
"468 420 QCURVE SMOOTH",
"579 1048 LINE SMOOTH",
"581 1062 OFFCURVE",
"581 1077 OFFCURVE",
"572 1077 QCURVE SMOOTH",
"563 1077 OFFCURVE",
"556 1062 OFFCURVE",
"554 1048 QCURVE SMOOTH",
"443 420 LINE SMOOTH"
);
},
{
closed = 1;
nodes = (
"382 108 LINE",
"691 383 LINE",
"904 127 LINE",
"591 -148 LINE"
);
}
);
width = 1029;
}
);
leftKerningGroup = CG_UC;
unicode = 0051;
},
{
glyphname = R;
layers = (
{
layerId = "3F9F0E9B-02B5-40B1-9FD1-782180825A5D";
paths = (
{
closed = 1;
nodes = (
"133 1456 LINE",
"745 1456 LINE SMOOTH",
"923 1456 OFFCURVE",
"1088 1204 OFFCURVE",
"1038 926 QCURVE SMOOTH",
"987 643 OFFCURVE",
"713 413 OFFCURVE",
"565 413 QCURVE SMOOTH",
"428 413 LINE",
"355 0 LINE",
"-124 0 LINE"
);
},
{
closed = 1;
nodes = (
"498 776 LINE SMOOTH",
"506 776 OFFCURVE",
"515 795 OFFCURVE",
"535 910 QCURVE SMOOTH",
"555 1018 OFFCURVE",
"554 1052 OFFCURVE",
"545 1052 QCURVE SMOOTH",
"540 1052 LINE",
"492 776 LINE"
);
},
{
closed = 1;
nodes = (
"454 627 LINE",
"889 627 LINE",
"925 0 LINE",
"412 0 LINE"
);
}
);
width = 1042;
}
);
leftKerningGroup = StraightRight_UC;
rightKerningGroup = R_UC;
unicode = 0052;
},
{
glyphname = S;
layers = (
{
layerId = "3F9F0E9B-02B5-40B1-9FD1-782180825A5D";
paths = (
{
closed = 1;
nodes = (
"-39 505 LINE",
"427 505 LINE",
"407 393 LINE SMOOTH",
"404 373 OFFCURVE",
"417 358 OFFCURVE",
"430 358 QCURVE SMOOTH",
"442 358 OFFCURVE",
"463 382 OFFCURVE",
"468 409 QCURVE SMOOTH",
"477 459 OFFCURVE",
"445 529 OFFCURVE",
"339 593 QCURVE SMOOTH",
"177 690 OFFCURVE",
"33 910 OFFCURVE",
"68 1106 QCURVE SMOOTH",
"100 1287 OFFCURVE",
"410 1476 OFFCURVE",
"652 1476 QCURVE SMOOTH",
"894 1476 OFFCURVE",
"1082 1257 OFFCURVE",
"1050 1079 QCURVE SMOOTH",
"1036 1000 LINE",
"604 1000 LINE",
"615 1059 LINE SMOOTH",
"617 1068 OFFCURVE",
"608 1082 OFFCURVE",
"598 1082 QCURVE SMOOTH",
"587 1082 OFFCURVE",
"572 1067 OFFCURVE",
"569 1050 QCURVE SMOOTH",
"565 1030 OFFCURVE",
"593 994 OFFCURVE",
"711 927 QCURVE SMOOTH",
"850 848 OFFCURVE",
"995 596 OFFCURVE",
"955 392 QCURVE SMOOTH",
"916 194 OFFCURVE",
"646 -18 OFFCURVE",
"389 -19 QCURVE SMOOTH",
"131 -20 OFFCURVE",
"-92 204 OFFCURVE",
"-59 390 QCURVE SMOOTH"
);
}
);
width = 1028;
}
);
leftKerningGroup = S_UC;
rightKerningGroup = S_UC;
unicode = 0053;
},
{
glyphname = T;
layers = (
{
layerId = "3F9F0E9B-02B5-40B1-9FD1-782180825A5D";
paths = (
{
closed = 1;
nodes = (
"132 1456 LINE",
"1002 1456 LINE",
"920 990 LINE",
"734 990 LINE",
"559 0 LINE",
"69 0 LINE",
"244 990 LINE",
"50 990 LINE"
);
}
);
width = 880;
}
);
leftKerningGroup = T_UC;
rightKerningGroup = T_UC;
unicode = 0054;
},
{
glyphname = U;
layers = (
{
layerId = "3F9F0E9B-02B5-40B1-9FD1-782180825A5D";
paths = (
{
closed = 1;
nodes = (
"135 1456 LINE",
"611 1456 LINE",
"426 440 LINE SMOOTH",
"421 415 OFFCURVE",
"418 392 OFFCURVE",
"426 392 QCURVE SMOOTH",
"433 392 OFFCURVE",
"440 418 OFFCURVE",
"444 440 QCURVE SMOOTH",
"627 1456 LINE",
"1099 1456 LINE",
"925 462 LINE SMOOTH",
"880 206 OFFCURVE",
"587 -23 OFFCURVE",
"385 -23 QCURVE SMOOTH",
"165 -23 OFFCURVE",
"-84 221 OFFCURVE",
"-41 462 QCURVE SMOOTH"
);
}
);
width = 976;
}
);
leftKerningGroup = U_UC;
rightKerningGroup = JU_UC;
unicode = 0055;
},
{
glyphname = V;
layers = (
{
layerId = "3F9F0E9B-02B5-40B1-9FD1-782180825A5D";
paths = (
{
closed = 1;
nodes = (
"594 1456 LINE",
"463 591 LINE SMOOTH",
"459 566 OFFCURVE",
"451 519 OFFCURVE",
"445 479 QCURVE",
"451 479 LINE",
"460 518 OFFCURVE",
"471 566 OFFCURVE",
"475 591 QCURVE SMOOTH",
"628 1456 LINE",
"1092 1456 LINE",
"672 0 LINE",
"47 0 LINE",
"113 1456 LINE"
);
}
);
width = 945;
}
);
unicode = 0056;
},
{
glyphname = W;
layers = (
{
layerId = "3F9F0E9B-02B5-40B1-9FD1-782180825A5D";
paths = (
{
closed = 1;
nodes = (
"122 1456 LINE",
"609 1456 LINE",
"535 745 LINE SMOOTH",
"533 727 OFFCURVE",
"530 684 OFFCURVE",
"527 668 QCURVE",
"529 668 LINE",
"534 684 OFFCURVE",
"541 726 OFFCURVE",
"544 744 QCURVE SMOOTH",
"661 1456 LINE",
"1097 1456 LINE",
"1005 746 LINE SMOOTH",
"1004 738 OFFCURVE",
"997 672 OFFCURVE",
"996 668 QCURVE",
"999 668 LINE",
"999 672 OFFCURVE",
"1012 737 OFFCURVE",
"1014 746 QCURVE SMOOTH",
"1149 1456 LINE",
"1621 1456 LINE",
"1250 0 LINE",
"704 0 LINE",
"750 518 LINE SMOOTH",
"751 528 OFFCURVE",
"754 565 OFFCURVE",
"756 572 QCURVE",
"750 572 LINE",
"750 565 OFFCURVE",
"744 530 OFFCURVE",
"741 518 QCURVE SMOOTH",
"632 0 LINE",
"87 0 LINE"
);
}
);
width = 1499;
}
);
leftKerningGroup = W_UC;
rightKerningGroup = W_UC;
unicode = 0057;
},
{
glyphname = X;
layers = (
{
layerId = "3F9F0E9B-02B5-40B1-9FD1-782180825A5D";
paths = (
{
closed = 1;
nodes = (
"408 955 LINE",
"498 955 LINE",
"740 1456 LINE",
"1187 1456 LINE",
"659 513 LINE",
"568 513 LINE",
"332 0 LINE",
"-134 0 LINE"
);
},
{
closed = 1;
nodes = (
"617 1456 LINE",
"708 915 LINE",
"767 917 LINE",
"927 -1 LINE",
"445 -1 LINE",
"362 577 LINE",
"303 577 LINE",
"125 1456 LINE"
);
}
);
width = 1064;
}
);
unicode = 0058;
},
{
glyphname = Y;
layers = (
{
layerId = "3F9F0E9B-02B5-40B1-9FD1-782180825A5D";
paths = (
{
closed = 1;
nodes = (
"197 447 LINE",
"120 1456 LINE",
"592 1456 LINE",
"546 977 LINE SMOOTH",
"544 959 OFFCURVE",
"544 932 OFFCURVE",
"543 925 QCURVE",
"545 925 LINE",
"546 932 OFFCURVE",
"554 960 OFFCURVE",
"557 976 QCURVE SMOOTH",
"651 1456 LINE",
"1119 1456 LINE",
"697 447 LINE",
"618 0 LINE",
"118 0 LINE"
);
}
);
width = 993;
}
);
leftKerningGroup = Y_UC;
rightKerningGroup = Y_UC;
unicode = 0059;
},
{
glyphname = Z;
layers = (
{
layerId = "3F9F0E9B-02B5-40B1-9FD1-782180825A5D";
paths = (
{
closed = 1;
nodes = (
"-75 314 LINE",
"345 990 LINE",
"58 990 LINE",
"140 1456 LINE",
"1031 1456 LINE",
"972 1122 LINE",
"553 446 LINE",
"857 446 LINE",
"778 0 LINE",
"-130 0 LINE"
);
}
);
width = 916;
}
);
leftKerningGroup = Z_UC;
rightKerningGroup = Z_UC;
unicode = 005A;
},
{
glyphname = AE;
layers = (
{
layerId = "3F9F0E9B-02B5-40B1-9FD1-782180825A5D";
paths = (
{
closed = 1;
nodes = (
"469 568 LINE",
"1129 568 LINE",
"1129 313 LINE",
"323 313 LINE"
);
},
{
closed = 1;
nodes = (
"860 1456 LINE",
"2060 1456 LINE",
"2060 1239 LINE",
"1248 1239 LINE",
"1248 859 LINE",
"1974 859 LINE",
"1974 642 LINE",
"1248 642 LINE",
"1248 217 LINE",
"2070 217 LINE",
"2070 0 LINE",
"974 0 LINE",
"974 1170 LINE",
"317 0 LINE",
"-21 0 LINE"
);
}
);
width = 2210;
}
);
leftKerningGroup = AE_UC;
rightKerningGroup = E_UC;
unicode = 00C6;
},
{
glyphname = Thorn;
layers = (
{
guideLines = (
{
position = "{0, 901}";
},
{
position = "{0, 555}";
}
);
layerId = "3F9F0E9B-02B5-40B1-9FD1-782180825A5D";
paths = (
{
closed = 1;
nodes = (
"470 1456 LINE",
"470 1163 LINE",
"762 1163 LINE SMOOTH",
"1028 1163 OFFCURVE",
"1333 943 OFFCURVE",
"1333 736 QCURVE SMOOTH",
"1333 529 OFFCURVE",
"1028 313 OFFCURVE",
"762 314 QCURVE SMOOTH",
"470 314 LINE",
"470 0 LINE",
"210 0 LINE",
"210 1456 LINE"
);
},
{
closed = 1;
nodes = (
"470 960 LINE",
"470 517 LINE",
"762 517 LINE SMOOTH",
"920 517 OFFCURVE",
"1074 605 OFFCURVE",
"1074 733 QCURVE SMOOTH",
"1074 860 OFFCURVE",
"920 961 OFFCURVE",
"762 960 QCURVE SMOOTH"
);
}
);
width = 1388;
}
);
leftKerningGroup = StraightRight_UC;
unicode = 00DE;
userData = {
com.typemytype.robofont.guideline.magnetic.T8KKW8oxop = 5;
com.typemytype.robofont.guideline.magnetic.i9jYwjBDP4 = 5;
};
},
{
glyphname = OE;
layers = (
{
layerId = "3F9F0E9B-02B5-40B1-9FD1-782180825A5D";
paths = (
{
closed = 1;
nodes = (
"775 1477 OFFCURVE",
"926 1464 OFFCURVE",
"993 1456 QCURVE",
"2019 1456 LINE",
"2019 1239 LINE",
"1191 1239 LINE",
"1191 859 LINE",
"1933 859 LINE",
"1933 644 LINE",
"1191 644 LINE",
"1191 215 LINE",
"2029 215 LINE",
"2029 0 LINE",
"993 0 LINE",
"926 -7 OFFCURVE",
"777 -21 OFFCURVE",
"701 -21 QCURVE SMOOTH",
"487 -21 OFFCURVE",
"144 340 OFFCURVE",
"144 682 QCURVE SMOOTH",
"144 772 LINE SMOOTH",
"144 1105 OFFCURVE",
"484 1477 OFFCURVE",
"742 1477 QCURVE SMOOTH"
);
},
{
closed = 1;
nodes = (
"422 417 OFFCURVE",
"613 177 OFFCURVE",
"744 177 QCURVE SMOOTH",
"797 177 OFFCURVE",
"877 186 OFFCURVE",
"915 192 QCURVE",
"915 1258 LINE",
"863 1265 OFFCURVE",
"768 1273 OFFCURVE",
"746 1273 QCURVE SMOOTH",
"606 1273 OFFCURVE",
"422 1023 OFFCURVE",
"422 774 QCURVE SMOOTH",
"422 682 LINE SMOOTH"
);
}
);
width = 2169;
}
);
leftKerningGroup = CG_UC;
rightKerningGroup = E_UC;
unicode = 0152;
},
{
glyphname = Schwa;
layers = (
{
layerId = "3F9F0E9B-02B5-40B1-9FD1-782180825A5D";
paths = (
{
closed = 1;
nodes = (
"115 1399 OFFCURVE",
"445 1579 OFFCURVE",
"725 1579 QCURVE SMOOTH",
"1101 1579 OFFCURVE",
"1517 1092 OFFCURVE",
"1517 820 QCURVE SMOOTH",
"1517 512 OFFCURVE",
"1051 -30 OFFCURVE",
"751 -30 QCURVE SMOOTH",
"433 -30 OFFCURVE",
"56 289 OFFCURVE",
"56 601 QCURVE SMOOTH",
"56 714 LINE",
"1336 714 LINE",
"1336 546 LINE",
"721 554 LINE",
"350 548 LINE",
"350 471 LINE SMOOTH",
"350 343 OFFCURVE",
"554 127 OFFCURVE",
"761 127 QCURVE SMOOTH",
"958 127 OFFCURVE",
"1247 519 OFFCURVE",
"1245 778 QCURVE SMOOTH",
"1242 1065 OFFCURVE",
"880 1388 OFFCURVE",
"706 1388 QCURVE SMOOTH",
"472 1388 OFFCURVE",
"176 1231 OFFCURVE",
"116 1131 QCURVE",
"-1 1220 LINE"
);
}
);
width = 1446;
}
);
rightKerningGroup = D_UC;
unicode = 018F;
},
{
glyphname = Germandbls;
layers = (
{
layerId = "3F9F0E9B-02B5-40B1-9FD1-782180825A5D";
paths = (
{
closed = 1;
nodes = (
"168 1254 OFFCURVE",
"439 1510 OFFCURVE",
"704 1510 QCURVE SMOOTH",
"1010 1510 OFFCURVE",
"1216 1322 OFFCURVE",
"1216 1244 QCURVE SMOOTH",
"1216 1116 OFFCURVE",
"1075 966 OFFCURVE",
"1042 955 QCURVE SMOOTH",
"983 918 OFFCURVE",
"923 882 OFFCURVE",
"923 867 QCURVE SMOOTH",
"923 858 OFFCURVE",
"957 846 OFFCURVE",
"1210 763 QCURVE SMOOTH",
"1415 701 OFFCURVE",
"1620 508 OFFCURVE",
"1620 352 QCURVE SMOOTH",
"1620 220 OFFCURVE",
"1311 -30 OFFCURVE",
"1104 -30 QCURVE SMOOTH",
"782 -30 OFFCURVE",
"482 154 OFFCURVE",
"482 358 QCURVE SMOOTH",
"482 370 LINE",
"782 370 LINE",
"782 358 LINE SMOOTH",
"782 279 OFFCURVE",
"922 203 OFFCURVE",
"1092 203 QCURVE SMOOTH",
"1184 203 OFFCURVE",
"1334 279 OFFCURVE",
"1334 346 QCURVE SMOOTH",
"1334 434 OFFCURVE",
"1178 495 OFFCURVE",
"980 558 QCURVE SMOOTH",
"693 653 OFFCURVE",
"585 742 OFFCURVE",
"585 816 QCURVE SMOOTH",
"585 911 OFFCURVE",
"672 991 OFFCURVE",
"779 1056 QCURVE SMOOTH",
"855 1102 OFFCURVE",
"931 1160 OFFCURVE",
"931 1229 QCURVE SMOOTH",
"931 1250 OFFCURVE",
"828 1283 OFFCURVE",
"711 1283 QCURVE SMOOTH",
"577 1283 OFFCURVE",
"442 1178 OFFCURVE",
"442 1036 QCURVE SMOOTH",
"442 355 LINE SMOOTH",
"442 184 OFFCURVE",
"233 -16 OFFCURVE",
"77 -16 QCURVE SMOOTH",
"62 -16 OFFCURVE",
"30 -14 OFFCURVE",
"15 -12 QCURVE",
"13 258 LINE",
"23 255 OFFCURVE",
"45 253 OFFCURVE",
"56 253 QCURVE SMOOTH",
"107 253 OFFCURVE",
"168 305 OFFCURVE",
"168 355 QCURVE SMOOTH",
"168 1066 LINE SMOOTH"
);
}
);
width = 1700;
}
);
unicode = 1E9E;
},
{
glyphname = micro;
layers = (
{
layerId = "3F9F0E9B-02B5-40B1-9FD1-782180825A5D";
paths = (
{
closed = 1;
nodes = (
"504 1190 LINE",
"369 489 LINE SMOOTH",
"341 351 OFFCURVE",
"425 232 OFFCURVE",
"539 232 QCURVE SMOOTH",
"636 232 OFFCURVE",
"791 337 OFFCURVE",
"849 420 QCURVE",
"997 1190 LINE",
"1261 1190 LINE",
"1038 39 LINE",
"794 39 LINE",
"814 187 LINE",
"807 187 LINE",
"729 108 OFFCURVE",
"546 17 OFFCURVE",
"426 17 QCURVE SMOOTH",
"387 17 OFFCURVE",
"322 56 OFFCURVE",
"288 74 QCURVE",
"194 -416 LINE",
"-72 -416 LINE",
"239 1190 LINE"
);
}
);
width = 1310;
}
);
unicode = 00B5;
},
{
glyphname = a;
layers = (
{
layerId = "3F9F0E9B-02B5-40B1-9FD1-782180825A5D";
paths = (
{
closed = 1;
nodes = (
"-68 414 OFFCURVE",
"126 576 OFFCURVE",
"385 576 QCURVE SMOOTH",
"446 576 LINE",
"458 644 LINE SMOOTH",
"459 649 OFFCURVE",
"455 655 OFFCURVE",
"450 655 QCURVE SMOOTH",
"445 655 OFFCURVE",
"440 649 OFFCURVE",
"440 645 QCURVE SMOOTH",
"429 586 LINE",
"7 589 LINE",
"14 629 LINE SMOOTH",
"37 782 OFFCURVE",
"310 946 OFFCURVE",
"529 946 QCURVE SMOOTH",
"740 946 OFFCURVE",
"955 786 OFFCURVE",
"921 599 QCURVE SMOOTH",
"831 97 LINE SMOOTH",
"825 63 OFFCURVE",
"826 26 OFFCURVE",
"831 12 QCURVE",
"829 0 LINE",
"361 0 LINE",
"357 8 OFFCURVE",
"357 35 OFFCURVE",
"359 45 QCURVE",
"329 23 OFFCURVE",
"224 -13 OFFCURVE",
"147 -13 QCURVE SMOOTH",
"32 -13 OFFCURVE",
"-119 124 OFFCURVE",
"-93 274 QCURVE SMOOTH"
);
},
{
closed = 1;
nodes = (
"367 275 OFFCURVE",
"372 258 OFFCURVE",
"380 258 QCURVE SMOOTH",
"386 258 OFFCURVE",
"394 266 OFFCURVE",
"395 272 QCURVE SMOOTH",
"413 377 LINE",
"405 377 LINE SMOOTH",
"398 377 OFFCURVE",
"383 363 OFFCURVE",
"375 316 QCURVE SMOOTH"
);
}
);
width = 959;
}
);
leftKerningGroup = a_LC;
rightKerningGroup = a_LC;
unicode = 0061;
},
{
glyphname = b;
layers = (
{
layerId = "3F9F0E9B-02B5-40B1-9FD1-782180825A5D";
paths = (
{
closed = 1;
nodes = (
"132 1456 LINE",
"609 1456 LINE",
"494 862 LINE",
"516 883 OFFCURVE",
"629 940 OFFCURVE",
"719 940 QCURVE SMOOTH",
"856 940 OFFCURVE",
"973 729 OFFCURVE",
"932 509 QCURVE SMOOTH",
"920 445 LINE SMOOTH",
"876 212 OFFCURVE",
"687 -15 OFFCURVE",
"540 -15 QCURVE SMOOTH",
"469 -15 OFFCURVE",
"371 24 OFFCURVE",
"346 50 QCURVE",
"346 50 LINE",
"337 0 LINE",
"-125 0 LINE"
);
},
{
closed = 1;
nodes = (
"412 357 OFFCURVE",
"417 351 OFFCURVE",
"425 351 QCURVE SMOOTH",
"432 351 OFFCURVE",
"439 356 OFFCURVE",
"440 363 QCURVE SMOOTH",
"473 549 LINE SMOOTH",
"475 559 OFFCURVE",
"469 566 OFFCURVE",
"463 566 QCURVE SMOOTH",
"455 566 OFFCURVE",
"448 559 OFFCURVE",
"446 549 QCURVE SMOOTH",
"413 364 LINE SMOOTH"
);
}
);
width = 980;
}
);
leftKerningGroup = bhk_LC;
rightKerningGroup = b_LC;
unicode = 0062;
},
{
glyphname = c;
layers = (
{
layerId = "3F9F0E9B-02B5-40B1-9FD1-782180825A5D";
paths = (
{
closed = 1;
nodes = (
"-43 505 LINE SMOOTH",
"-3 731 OFFCURVE",
"291 947 OFFCURVE",
"528 947 QCURVE SMOOTH",
"764 947 OFFCURVE",
"945 723 OFFCURVE",
"928 523 QCURVE SMOOTH",
"923 475 LINE",
"447 475 LINE",
"461 552 LINE SMOOTH",
"462 558 OFFCURVE",
"458 564 OFFCURVE",
"453 564 QCURVE SMOOTH",
"448 564 OFFCURVE",
"441 558 OFFCURVE",
"440 553 QCURVE SMOOTH",
"408 374 LINE SMOOTH",
"406 365 OFFCURVE",
"411 355 OFFCURVE",
"417 355 QCURVE SMOOTH",
"422 355 OFFCURVE",
"427 361 OFFCURVE",
"428 366 QCURVE SMOOTH",
"443 451 LINE",
"920 451 LINE",
"910 399 LINE SMOOTH",
"872 201 OFFCURVE",
"586 -22 OFFCURVE",
"356 -22 QCURVE SMOOTH",
"123 -22 OFFCURVE",
"-96 204 OFFCURVE",
"-53 446 QCURVE SMOOTH"
);
}
);
width = 983;
}
);
leftKerningGroup = alpha;
rightKerningGroup = c_LC;
unicode = 0063;
},
{
glyphname = d;
layers = (
{
layerId = "3F9F0E9B-02B5-40B1-9FD1-782180825A5D";
paths = (
{
closed = 1;
nodes = (
"-42 509 LINE SMOOTH",
"-3 729 OFFCURVE",
"200 940 OFFCURVE",
"332 940 QCURVE SMOOTH",
"420 940 OFFCURVE",
"504 892 OFFCURVE",
"518 871 QCURVE",
"621 1456 LINE",
"1105 1456 LINE",
"848 0 LINE",
"370 0 LINE",
"381 60 LINE",
"381 60 LINE",
"348 34 OFFCURVE",
"234 -15 OFFCURVE",
"165 -15 QCURVE SMOOTH",
"35 -15 OFFCURVE",
"-95 211 OFFCURVE",
"-54 445 QCURVE SMOOTH"
);
},
{
closed = 1;
nodes = (
"406 356 OFFCURVE",
"411 351 OFFCURVE",
"418 351 QCURVE SMOOTH",
"426 351 OFFCURVE",
"433 357 OFFCURVE",
"434 364 QCURVE SMOOTH",
"467 549 LINE SMOOTH",
"468 557 OFFCURVE",
"464 566 OFFCURVE",
"456 566 QCURVE SMOOTH",
"450 566 OFFCURVE",
"442 559 OFFCURVE",
"440 549 QCURVE SMOOTH",
"407 363 LINE SMOOTH"
);
}
);
width = 990;
}
);
leftKerningGroup = alpha;
unicode = 0064;
},
{
glyphname = e;
layers = (
{
layerId = "3F9F0E9B-02B5-40B1-9FD1-782180825A5D";
paths = (
{
closed = 1;
nodes = (
"-40 505 LINE SMOOTH",
"0 721 OFFCURVE",
"309 947 OFFCURVE",
"525 947 QCURVE SMOOTH",
"783 947 OFFCURVE",
"964 686 OFFCURVE",
"918 459 QCURVE SMOOTH",
"909 410 LINE",
"216 410 LINE",
"235 517 LINE",
"480 517 LINE",
"488 559 LINE SMOOTH",
"490 570 OFFCURVE",
"481 584 OFFCURVE",
"468 584 QCURVE SMOOTH",
"452 584 OFFCURVE",
"436 562 OFFCURVE",
"433 546 QCURVE SMOOTH",
"404 380 LINE SMOOTH",
"401 361 OFFCURVE",
"413 340 OFFCURVE",
"430 340 QCURVE SMOOTH",
"444 340 OFFCURVE",
"464 368 OFFCURVE",
"472 403 QCURVE",
"914 374 LINE",
"855 179 OFFCURVE",
"607 -22 OFFCURVE",
"355 -22 QCURVE SMOOTH",
"127 -22 OFFCURVE",
"-91 229 OFFCURVE",
"-51 445 QCURVE SMOOTH"
);
}
);
width = 980;
}
);
leftKerningGroup = alpha;
rightKerningGroup = e_LC;
unicode = 0065;
},
{
glyphname = f;
layers = (
{
layerId = "3F9F0E9B-02B5-40B1-9FD1-782180825A5D";
paths = (
{
closed = 1;
nodes = (
"99 1097 LINE SMOOTH",
"132 1281 OFFCURVE",
"357 1478 OFFCURVE",
"527 1478 QCURVE SMOOTH",
"630 1478 OFFCURVE",
"735 1462 OFFCURVE",
"757 1456 QCURVE",
"642 1061 LINE",
"632 1063 OFFCURVE",
"616 1064 OFFCURVE",
"605 1064 QCURVE SMOOTH",
"592 1064 OFFCURVE",
"570 1053 OFFCURVE",
"568 1043 QCURVE SMOOTH",
"532 839 LINE",
"540 830 LINE",
"394 0 LINE",
"-94 0 LINE"
);
},
{
closed = 1;
nodes = (
"21 914 LINE",
"116 914 LINE",
"134 914 LINE",
"619 914 LINE",
"550 520 LINE",
"-48 520 LINE"
);
}
);
width = 592;
}
);
leftKerningGroup = f_LC;
rightKerningGroup = f_LC;
unicode = 0066;
},
{
glyphname = g;
layers = (
{
layerId = "3F9F0E9B-02B5-40B1-9FD1-782180825A5D";
paths = (
{
closed = 1;
nodes = (
"-52 -47 LINE",
"-24 -61 OFFCURVE",
"100 -92 OFFCURVE",
"194 -92 QCURVE SMOOTH",
"275 -92 OFFCURVE",
"366 -22 OFFCURVE",
"378 41 QCURVE SMOOTH",
"387 87 LINE",
"356 51 OFFCURVE",
"243 6 OFFCURVE",
"163 6 QCURVE SMOOTH",
"32 6 OFFCURVE",
"-94 217 OFFCURVE",
"-54 445 QCURVE SMOOTH",
"-42 509 LINE SMOOTH",
"-3 729 OFFCURVE",
"194 931 OFFCURVE",
"320 931 QCURVE SMOOTH",
"417 931 OFFCURVE",
"501 875 OFFCURVE",
"510 852 QCURVE",
"512 852 LINE",
"523 914 LINE",
"1008 914 LINE",
"872 141 LINE SMOOTH",
"811 -208 OFFCURVE",
"429 -451 OFFCURVE",
"209 -451 QCURVE SMOOTH",
"62 -451 OFFCURVE",
"-80 -425 OFFCURVE",
"-111 -411 QCURVE"
);
},
{
closed = 1;
nodes = (
"407 356 OFFCURVE",
"412 351 OFFCURVE",
"419 351 QCURVE SMOOTH",
"427 351 OFFCURVE",
"434 357 OFFCURVE",
"435 364 QCURVE SMOOTH",
"468 549 LINE SMOOTH",
"469 557 OFFCURVE",
"465 566 OFFCURVE",
"457 566 QCURVE SMOOTH",
"451 566 OFFCURVE",
"443 559 OFFCURVE",
"441 549 QCURVE SMOOTH",
"408 363 LINE SMOOTH"
);
}
);
width = 989;
}
);
leftKerningGroup = alpha;
unicode = 0067;
},
{
glyphname = h;
layers = (
{
layerId = "3F9F0E9B-02B5-40B1-9FD1-782180825A5D";
paths = (
{
closed = 1;
nodes = (
"132 1456 LINE",
"606 1456 LINE",
"500 854 LINE",
"518 874 OFFCURVE",
"650 938 OFFCURVE",
"755 938 QCURVE SMOOTH",
"872 938 OFFCURVE",
"994 819 OFFCURVE",
"973 690 QCURVE SMOOTH",
"851 0 LINE",
"373 0 LINE",
"473 566 LINE SMOOTH",
"474 571 OFFCURVE",
"471 576 OFFCURVE",
"465 576 QCURVE SMOOTH",
"458 576 OFFCURVE",
"452 566 OFFCURVE",
"451 557 QCURVE SMOOTH",
"353 0 LINE",
"-125 0 LINE"
);
}
);
width = 992;
}
);
leftKerningGroup = bhk_LC;
rightKerningGroup = hmn_LC;
unicode = 0068;
},
{
glyphname = i;
layers = (
{
layerId = "3F9F0E9B-02B5-40B1-9FD1-782180825A5D";
paths = (
{
closed = 1;
nodes = (
"41 914 LINE",
"524 914 LINE",
"363 0 LINE",
"-120 0 LINE"
);
},
{
closed = 1;
nodes = (
"74 1302 OFFCURVE",
"224 1452 OFFCURVE",
"350 1452 QCURVE SMOOTH",
"476 1452 OFFCURVE",
"596 1308 OFFCURVE",
"590 1194 QCURVE SMOOTH",
"578 1086 OFFCURVE",
"434 930 OFFCURVE",
"308 930 QCURVE SMOOTH",
"182 930 OFFCURVE",
"56 1086 OFFCURVE",
"68 1194 QCURVE SMOOTH"
);
}
);
width = 510;
}
);
leftKerningGroup = i_LC;
rightKerningGroup = i_LC;
unicode = 0069;
},
{
glyphname = j;
layers = (
{
layerId = "3F9F0E9B-02B5-40B1-9FD1-782180825A5D";
paths = (
{
closed = 1;
nodes = (
"-361 -35 LINE",
"-339 -40 OFFCURVE",
"-272 -47 OFFCURVE",
"-219 -47 QCURVE SMOOTH",
"-172 -47 OFFCURVE",
"-120 1 OFFCURVE",
"-107 75 QCURVE SMOOTH",
"41 914 LINE",
"525 914 LINE",
"363 -7 LINE SMOOTH",
"329 -202 OFFCURVE",
"52 -441 OFFCURVE",
"-174 -441 QCURVE SMOOTH",
"-268 -441 OFFCURVE",
"-372 -426 OFFCURVE",
"-416 -419 QCURVE"
);
},
{
closed = 1;
nodes = (
"78 1308 OFFCURVE",
"222 1458 OFFCURVE",
"348 1458 QCURVE SMOOTH",
"480 1458 OFFCURVE",
"600 1308 OFFCURVE",
"588 1194 QCURVE SMOOTH",
"582 1086 OFFCURVE",
"438 930 OFFCURVE",
"306 930 QCURVE SMOOTH",
"180 930 OFFCURVE",
"60 1086 OFFCURVE",
"66 1194 QCURVE SMOOTH"
);
}
);
width = 514;
}
);
rightKerningGroup = j_LC;
unicode = 006A;
},
{
glyphname = k;
layers = (
{
layerId = "3F9F0E9B-02B5-40B1-9FD1-782180825A5D";
paths = (
{
closed = 1;
nodes = (
"132 1456 LINE",
"609 1456 LINE",
"481 745 LINE",
"602 914 LINE",
"1078 914 LINE",
"381 163 LINE",
"352 0 LINE",
"-125 0 LINE"
);
},
{
closed = 1;
nodes = (
"350 370 LINE",
"702 785 LINE",
"918 0 LINE",
"428 0 LINE"
);
}
);
width = 1004;
}
);
leftKerningGroup = bhk_LC;
rightKerningGroup = k_LC;
unicode = 006B;
},
{
glyphname = l;
layers = (
{
layerId = "3F9F0E9B-02B5-40B1-9FD1-782180825A5D";
paths = (
{
closed = 1;
nodes = (
"133 1456 LINE",
"627 1456 LINE",
"370 0 LINE",
"-124 0 LINE"
);
}
);
width = 510;
}
);
leftKerningGroup = bhk_LC;
rightKerningGroup = l_LC;
unicode = 006C;
},
{
glyphname = m;
layers = (
{
layerId = "3F9F0E9B-02B5-40B1-9FD1-782180825A5D";
paths = (
{
closed = 1;
nodes = (
"36 914 LINE",
"510 914 LINE",
"496 832 LINE",
"496 832 LINE",
"519 862 OFFCURVE",
"664 938 OFFCURVE",
"776 938 QCURVE SMOOTH",
"878 938 OFFCURVE",
"972 867 OFFCURVE",
"991 815 QCURVE",
"1001 815 LINE",
"1032 864 OFFCURVE",
"1158 938 OFFCURVE",
"1264 938 QCURVE SMOOTH",
"1384 938 OFFCURVE",
"1492 819 OFFCURVE",
"1471 690 QCURVE SMOOTH",
"1349 0 LINE",
"871 0 LINE",
"971 566 LINE SMOOTH",
"972 571 OFFCURVE",
"969 576 OFFCURVE",
"963 576 QCURVE SMOOTH",
"956 576 OFFCURVE",
"950 566 OFFCURVE",
"949 557 QCURVE SMOOTH",
"851 0 LINE",
"373 0 LINE",
"473 566 LINE SMOOTH",
"474 571 OFFCURVE",
"471 576 OFFCURVE",
"465 576 QCURVE SMOOTH",
"458 576 OFFCURVE",
"452 566 OFFCURVE",
"451 557 QCURVE SMOOTH",
"353 0 LINE",
"-125 0 LINE"
);
}
);
width = 1490;
}
);
leftKerningGroup = mnpr_LC;
rightKerningGroup = hmn_LC;
unicode = 006D;
},
{
glyphname = n;
layers = (
{
layerId = "3F9F0E9B-02B5-40B1-9FD1-782180825A5D";
paths = (
{
closed = 1;
nodes = (
"36 914 LINE",
"510 914 LINE",
"496 835 LINE",
"499 835 LINE",
"518 860 OFFCURVE",
"653 938 OFFCURVE",
"766 938 QCURVE SMOOTH",
"883 938 OFFCURVE",
"994 819 OFFCURVE",
"973 690 QCURVE SMOOTH",
"851 0 LINE",
"373 0 LINE",
"473 566 LINE SMOOTH",
"474 571 OFFCURVE",
"471 576 OFFCURVE",
"465 576 QCURVE SMOOTH",
"458 576 OFFCURVE",
"453 566 OFFCURVE",
"451 557 QCURVE SMOOTH",
"353 0 LINE",
"-125 0 LINE"
);
}
);
width = 992;
}
);
leftKerningGroup = mnpr_LC;
rightKerningGroup = hmn_LC;
unicode = 006E;
},
{
glyphname = o;
layers = (
{
layerId = "3F9F0E9B-02B5-40B1-9FD1-782180825A5D";
paths = (
{
closed = 1;
nodes = (
"-42 509 LINE SMOOTH",
"-2 725 OFFCURVE",
"297 947 OFFCURVE",
"523 947 QCURVE SMOOTH",
"752 947 OFFCURVE",
"975 725 OFFCURVE",
"935 509 QCURVE SMOOTH",
"923 445 LINE SMOOTH",
"879 212 OFFCURVE",
"580 -22 OFFCURVE",
"352 -22 QCURVE SMOOTH",
"127 -22 OFFCURVE",
"-98 212 OFFCURVE",
"-54 445 QCURVE SMOOTH"
);
},
{
closed = 1;
nodes = (
"407 360 LINE SMOOTH",
"406 352 OFFCURVE",
"410 347 OFFCURVE",
"418 347 QCURVE SMOOTH",
"425 347 OFFCURVE",
"431 352 OFFCURVE",
"432 359 QCURVE SMOOTH",
"467 555 LINE SMOOTH",
"469 565 OFFCURVE",
"464 572 OFFCURVE",
"458 572 QCURVE SMOOTH",
"450 572 OFFCURVE",
"444 565 OFFCURVE",
"442 555 QCURVE SMOOTH"
);
}
);
width = 982;
}
);
leftKerningGroup = o_LC;
rightKerningGroup = o_LC;
unicode = 006F;
},
{
glyphname = p;
layers = (
{
layerId = "3F9F0E9B-02B5-40B1-9FD1-782180825A5D";
paths = (
{
closed = 1;
nodes = (
"35 914 LINE",
"502 914 LINE",
"493 861 LINE",
"497 862 LINE",
"519 885 OFFCURVE",
"622 940 OFFCURVE",
"708 940 QCURVE SMOOTH",
"836 940 OFFCURVE",
"971 724 OFFCURVE",
"931 509 QCURVE SMOOTH",
"919 445 LINE SMOOTH",
"875 212 OFFCURVE",
"661 -15 OFFCURVE",
"530 -15 QCURVE SMOOTH",
"469 -15 OFFCURVE",
"383 -2 OFFCURVE",
"350 12 QCURVE",
"280 -388 LINE",
"-194 -388 LINE"
);
},
{
closed = 1;
nodes = (
"413 357 OFFCURVE",
"416 351 OFFCURVE",
"424 351 QCURVE SMOOTH",
"431 351 OFFCURVE",
"438 356 OFFCURVE",
"439 363 QCURVE SMOOTH",
"472 549 LINE SMOOTH",
"474 559 OFFCURVE",
"468 566 OFFCURVE",
"462 566 QCURVE SMOOTH",
"454 566 OFFCURVE",
"449 559 OFFCURVE",
"447 549 QCURVE SMOOTH",
"414 364 LINE SMOOTH"
);
}
);
width = 993;
}
);
leftKerningGroup = mnpr_LC;
rightKerningGroup = b_LC;
unicode = 0070;
},
{
glyphname = q;
layers = (
{
layerId = "3F9F0E9B-02B5-40B1-9FD1-782180825A5D";
paths = (
{
closed = 1;
nodes = (
"-37 509 LINE SMOOTH",
"2 729 OFFCURVE",
"205 940 OFFCURVE",
"338 940 QCURVE SMOOTH",
"423 940 OFFCURVE",
"507 884 OFFCURVE",
"519 861 QCURVE",
"532 861 LINE",
"544 914 LINE",
"1016 914 LINE",
"787 -388 LINE",
"309 -388 LINE",
"388 60 LINE",
"388 60 LINE",
"354 34 OFFCURVE",
"242 -5 OFFCURVE",
"173 -5 QCURVE SMOOTH",
"40 -5 OFFCURVE",
"-90 224 OFFCURVE",
"-49 445 QCURVE SMOOTH"
);
},
{
closed = 1;
nodes = (
"413 366 OFFCURVE",
"418 361 OFFCURVE",
"425 361 QCURVE SMOOTH",
"433 361 OFFCURVE",
"440 367 OFFCURVE",
"441 374 QCURVE SMOOTH",
"472 549 LINE SMOOTH",
"473 557 OFFCURVE",
"469 566 OFFCURVE",
"461 566 QCURVE SMOOTH",
"455 566 OFFCURVE",
"447 559 OFFCURVE",
"445 549 QCURVE SMOOTH",
"414 373 LINE SMOOTH"
);
}
);
width = 1014;
}
);
leftKerningGroup = alpha;
unicode = 0071;
},
{
glyphname = r;
layers = (
{
layerId = "3F9F0E9B-02B5-40B1-9FD1-782180825A5D";
paths = (
{
closed = 1;
nodes = (
"36 914 LINE",
"510 914 LINE",
"496 834 LINE",
"499 834 LINE",
"518 871 OFFCURVE",
"592 930 OFFCURVE",
"633 930 QCURVE SMOOTH",
"656 930 OFFCURVE",
"688 919 OFFCURVE",
"696 915 QCURVE",
"625 514 LINE",
"616 522 OFFCURVE",
"578 531 OFFCURVE",
"560 531 QCURVE SMOOTH",
"535 531 OFFCURVE",
"465 495 OFFCURVE",
"442 457 QCURVE",
"363 0 LINE",
"-125 0 LINE"
);
}
);
width = 674;
}
);
leftKerningGroup = mnpr_LC;
rightKerningGroup = r_LC;
unicode = 0072;
},
{
glyphname = s;
layers = (
{
layerId = "3F9F0E9B-02B5-40B1-9FD1-782180825A5D";
paths = (
{
closed = 1;
nodes = (
"299 296 LINE",
"294 268 LINE SMOOTH",
"292 256 OFFCURVE",
"304 247 OFFCURVE",
"314 247 QCURVE SMOOTH",
"323 247 OFFCURVE",
"337 256 OFFCURVE",
"339 267 QCURVE SMOOTH",
"343 288 OFFCURVE",
"299 312 OFFCURVE",
"179 355 QCURVE SMOOTH",
"64 397 OFFCURVE",
"-19 541 OFFCURVE",
"1 659 QCURVE SMOOTH",
"26 798 OFFCURVE",
"245 947 OFFCURVE",
"455 947 QCURVE SMOOTH",
"680 947 OFFCURVE",
"827 786 OFFCURVE",
"808 678 QCURVE SMOOTH",
"796 613 LINE",
"418 613 LINE",
"421 632 LINE SMOOTH",
"423 642 OFFCURVE",
"412 652 OFFCURVE",
"403 652 QCURVE SMOOTH",
"394 652 OFFCURVE",
"383 645 OFFCURVE",
"381 636 QCURVE SMOOTH",
"378 622 OFFCURVE",
"414 605 OFFCURVE",
"547 568 QCURVE SMOOTH",
"693 526 OFFCURVE",
"808 383 OFFCURVE",
"785 251 QCURVE SMOOTH",
"761 116 OFFCURVE",
"522 -21 OFFCURVE",
"297 -21 QCURVE SMOOTH",
"78 -21 OFFCURVE",
"-106 138 OFFCURVE",
"-81 279 QCURVE SMOOTH",
"-78 296 LINE"
);
}
);
width = 874;
}
);
leftKerningGroup = s_LC;
rightKerningGroup = s_LC;
unicode = 0073;
},
{
glyphname = t;
layers = (
{
layerId = "3F9F0E9B-02B5-40B1-9FD1-782180825A5D";
paths = (
{
closed = 1;
nodes = (
"28 914 LINE",
"596 914 LINE",
"528 526 LINE",
"-40 526 LINE"
);
},
{
closed = 1;
nodes = (
"52 872 LINE",
"74 883 LINE",
"107 1072 LINE",
"555 1072 LINE",
"442 432 LINE SMOOTH",
"436 397 OFFCURVE",
"451 365 OFFCURVE",
"467 365 QCURVE SMOOTH",
"485 365 OFFCURVE",
"503 369 OFFCURVE",
"517 372 QCURVE",
"455 24 LINE",
"418 11 OFFCURVE",
"290 -13 OFFCURVE",
"226 -13 QCURVE SMOOTH",
"64 -13 OFFCURVE",
"-77 141 OFFCURVE",
"-51 291 QCURVE SMOOTH"
);
}
);
width = 585;
}
);
leftKerningGroup = t_LC;
rightKerningGroup = t_LC;
unicode = 0074;
},
{
glyphname = u;
layers = (
{
layerId = "3F9F0E9B-02B5-40B1-9FD1-782180825A5D";
paths = (
{
closed = 1;
nodes = (
"37 914 LINE",
"515 914 LINE",
"415 348 LINE SMOOTH",
"414 343 OFFCURVE",
"418 338 OFFCURVE",
"424 338 QCURVE SMOOTH",
"431 338 OFFCURVE",
"435 348 OFFCURVE",
"437 357 QCURVE SMOOTH",
"535 914 LINE",
"1013 914 LINE",
"852 0 LINE",
"378 0 LINE",
"392 79 LINE",
"389 79 LINE",
"371 54 OFFCURVE",
"235 -24 OFFCURVE",
"122 -24 QCURVE SMOOTH",
"5 -24 OFFCURVE",
"-107 95 OFFCURVE",
"-85 224 QCURVE SMOOTH"
);
}
);
width = 998;
}
);
leftKerningGroup = u_LC;
rightKerningGroup = u_LC;
unicode = 0075;
},
{
glyphname = v;
layers = (
{
layerId = "3F9F0E9B-02B5-40B1-9FD1-782180825A5D";
paths = (
{
closed = 1;
nodes = (
"439 914 LINE",
"437 628 LINE SMOOTH",
"437 608 OFFCURVE",
"435 580 OFFCURVE",
"433 563 QCURVE",
"434 563 LINE",
"437 579 OFFCURVE",
"445 608 OFFCURVE",
"451 625 QCURVE SMOOTH",
"545 914 LINE",
"952 914 LINE",
"591 0 LINE",
"39 0 LINE",
"-6 914 LINE"
);
}
);
width = 914;
}
);
leftKerningGroup = gamma;
rightKerningGroup = gamma;
unicode = 0076;
},
{
glyphname = w;
layers = (
{
layerId = "3F9F0E9B-02B5-40B1-9FD1-782180825A5D";
paths = (
{
closed = 1;
nodes = (
"402 914 LINE",
"381 558 LINE SMOOTH",
"380 543 OFFCURVE",
"381 504 OFFCURVE",
"381 503 QCURVE",
"381 503 LINE",
"381 504 OFFCURVE",
"394 543 OFFCURVE",
"397 558 QCURVE SMOOTH",
"472 914 LINE",
"833 914 LINE",
"790 558 LINE SMOOTH",
"788 543 OFFCURVE",
"788 504 OFFCURVE",
"788 503 QCURVE",
"788 503 LINE",
"788 504 OFFCURVE",
"802 543 OFFCURVE",
"806 558 QCURVE SMOOTH",
"893 914 LINE",
"1294 914 LINE",
"967 0 LINE",
"516 0 LINE",
"545 341 LINE SMOOTH",
"546 349 OFFCURVE",
"547 370 OFFCURVE",
"548 373 QCURVE",
"548 373 LINE",
"547 370 OFFCURVE",
"541 349 OFFCURVE",
"539 341 QCURVE SMOOTH",
"459 0 LINE",
"6 0 LINE",
"1 914 LINE"
);
}
);
width = 1256;
}
);
leftKerningGroup = w_LC;
rightKerningGroup = w_LC;
unicode = 0077;
},
{
glyphname = x;
layers = (
{
layerId = "3F9F0E9B-02B5-40B1-9FD1-782180825A5D";
paths = (
{
closed = 1;
nodes = (
"301 581 LINE",
"343 581 LINE",
"592 914 LINE",
"1030 914 LINE",
"538 316 LINE",
"496 316 LINE",
"252 0 LINE",
"-191 0 LINE"
);
},
{
closed = 1;
nodes = (
"479 914 LINE",
"590 603 LINE",
"627 603 LINE",
"868 0 LINE",
"370 0 LINE",
"276 297 LINE",
"240 297 LINE",
"0 914 LINE"
);
}
);
width = 967;
}
);
unicode = 0078;
},
{
glyphname = y;
layers = (
{
layerId = "3F9F0E9B-02B5-40B1-9FD1-782180825A5D";
paths = (
{
closed = 1;
nodes = (
"-251 -54 LINE",
"-221 -65 OFFCURVE",
"-145 -82 OFFCURVE",
"-84 -82 QCURVE SMOOTH",
"-13 -82 OFFCURVE",
"41 -29 OFFCURVE",
"46 -1 QCURVE SMOOTH",
"48 11 LINE",
"-15 914 LINE",
"426 914 LINE",
"426 658 LINE SMOOTH",
"426 633 OFFCURVE",
"424 580 OFFCURVE",
"422 563 QCURVE",
"423 563 LINE",
"426 579 OFFCURVE",
"442 632 OFFCURVE",
"451 657 QCURVE SMOOTH",
"534 914 LINE",
"943 914 LINE",
"608 72 LINE SMOOTH",
"494 -213 OFFCURVE",
"202 -442 OFFCURVE",
"-23 -442 QCURVE SMOOTH",
"-154 -442 OFFCURVE",
"-314 -412 OFFCURVE",
"-352 -394 QCURVE"
);
}
);
width = 912;
}
);
leftKerningGroup = gamma;
rightKerningGroup = gamma;
unicode = 0079;
},
{
glyphname = z;
layers = (
{
layerId = "3F9F0E9B-02B5-40B1-9FD1-782180825A5D";
paths = (
{
closed = 1;
nodes = (
"-73 285 LINE",
"184 520 LINE",
"-12 520 LINE",
"57 914 LINE",
"851 914 LINE",
"797 609 LINE",
"542 374 LINE",
"774 374 LINE",
"708 0 LINE",
"-123 0 LINE"
);
}
);
width = 848;
}
);
leftKerningGroup = z_LC;
rightKerningGroup = z_LC;
unicode = 007A;
},
{
glyphname = germandbls;
layers = (
{
layerId = "3F9F0E9B-02B5-40B1-9FD1-782180825A5D";
paths = (
{
closed = 1;
nodes = (
"436 0 LINE",
"178 0 LINE",
"178 1091 LINE SMOOTH",
"178 1294 OFFCURVE",
"433 1532 OFFCURVE",
"653 1532 QCURVE SMOOTH",
"835 1532 OFFCURVE",
"1053 1359 OFFCURVE",
"1053 1214 QCURVE SMOOTH",
"1053 1126 OFFCURVE",
"998 1015 OFFCURVE",
"957 972 QCURVE SMOOTH",
"922 934 OFFCURVE",
"857 877 OFFCURVE",
"857 848 QCURVE SMOOTH",
"857 800 OFFCURVE",
"1019 702 OFFCURVE",
"1109 640 QCURVE SMOOTH",
"1195 581 OFFCURVE",
"1298 418 OFFCURVE",
"1298 282 QCURVE SMOOTH",
"1298 157 OFFCURVE",
"1057 -20 OFFCURVE",
"872 -20 QCURVE SMOOTH",
"691 -20 OFFCURVE",
"482 129 OFFCURVE",
"476 278 QCURVE SMOOTH",
"476 304 LINE",
"696 304 LINE",
"696 295 LINE SMOOTH",
"696 232 OFFCURVE",
"791 184 OFFCURVE",
"874 184 QCURVE SMOOTH",
"963 184 OFFCURVE",
"1056 242 OFFCURVE",
"1056 302 QCURVE SMOOTH",
"1056 378 OFFCURVE",
"947 465 OFFCURVE",
"884 511 QCURVE SMOOTH",
"805 568 OFFCURVE",
"614 705 OFFCURVE",
"614 796 QCURVE SMOOTH",
"614 870 OFFCURVE",
"706 981 OFFCURVE",
"742 1025 QCURVE SMOOTH",
"773 1065 OFFCURVE",
"812 1148 OFFCURVE",
"812 1203 QCURVE SMOOTH",
"812 1269 OFFCURVE",
"707 1328 OFFCURVE",
"648 1328 QCURVE SMOOTH",
"551 1328 OFFCURVE",
"436 1223 OFFCURVE",
"436 1091 QCURVE {name = hr00;}"
);
}
);
width = 1334;
}
);
unicode = 00DF;
},
{
glyphname = ae;
layers = (
{
layerId = "3F9F0E9B-02B5-40B1-9FD1-782180825A5D";
paths = (
{
closed = 1;
nodes = (
"385 287 OFFCURVE",
"486 171 OFFCURVE",
"607 171 QCURVE SMOOTH",
"720 171 OFFCURVE",
"899 331 OFFCURVE",
"899 410 QCURVE",
"899 573 LINE",
"664 573 LINE SMOOTH",
"532 573 OFFCURVE",
"385 467 OFFCURVE",
"385 379 QCURVE SMOOTH"
);
},
{
closed = 1;
nodes = (
"120 549 OFFCURVE",
"423 746 OFFCURVE",
"643 746 QCURVE SMOOTH",
"899 746 LINE",
"899 795 LINE SMOOTH",
"899 893 OFFCURVE",
"813 1033 OFFCURVE",
"675 1033 QCURVE SMOOTH",
"545 1033 OFFCURVE",
"457 917 OFFCURVE",
"457 867 QCURVE SMOOTH",
"457 881 LINE",
"195 881 LINE",
"195 854 LINE SMOOTH",
"195 1000 OFFCURVE",
"461 1230 OFFCURVE",
"684 1230 QCURVE SMOOTH",
"898 1230 OFFCURVE",
"1089 1043 OFFCURVE",
"1080 963 QCURVE",
"1070 1047 OFFCURVE",
"1251 1230 OFFCURVE",
"1447 1230 QCURVE SMOOTH",
"1702 1230 OFFCURVE",
"1982 899 OFFCURVE",
"1982 633 QCURVE SMOOTH",
"1982 524 LINE",
"1050 524 LINE",
"1050 725 LINE",
"1714 725 LINE",
"1716 769 LINE",
"1714 884 OFFCURVE",
"1569 1025 OFFCURVE",
"1441 1025 QCURVE SMOOTH",
"1305 1025 OFFCURVE",
"1155 771 OFFCURVE",
"1155 610 QCURVE SMOOTH",
"1155 578 LINE SMOOTH",
"1155 417 OFFCURVE",
"1312 166 OFFCURVE",
"1495 166 QCURVE SMOOTH",
"1599 166 OFFCURVE",
"1755 266 OFFCURVE",
"1808 324 QCURVE",
"1974 206 LINE",
"1911 118 OFFCURVE",
"1661 -40 OFFCURVE",
"1493 -40 QCURVE SMOOTH",
"1332 -40 OFFCURVE",
"1051 79 OFFCURVE",
"981 228 QCURVE",
"955 107 OFFCURVE",
"728 -27 OFFCURVE",
"545 -27 QCURVE SMOOTH",
"382 -27 OFFCURVE",
"120 174 OFFCURVE",
"120 342 QCURVE SMOOTH"
);
}
);
width = 2048;
}
);
leftKerningGroup = a_LC;
rightKerningGroup = e_LC;
unicode = 00E6;
},
{
glyphname = eth;
layers = (
{
layerId = "3F9F0E9B-02B5-40B1-9FD1-782180825A5D";
paths = (
{
closed = 1;
nodes = (
"326 1698 LINE",
"713 1617 OFFCURVE",
"1188 1185 OFFCURVE",
"1188 740 QCURVE",
"1188 626 LINE",
"1188 336 OFFCURVE",
"882 -20 OFFCURVE",
"655 -20 QCURVE SMOOTH",
"414 -20 OFFCURVE",
"114 320 OFFCURVE",
"114 548 QCURVE SMOOTH",
"114 822 OFFCURVE",
"399 1141 OFFCURVE",
"611 1141 QCURVE SMOOTH",
"803 1141 OFFCURVE",
"1038 867 OFFCURVE",
"1038 716 QCURVE",
"949 717 LINE",
"949 768 OFFCURVE",
"850 934 OFFCURVE",
"685 934 QCURVE SMOOTH",
"525 934 OFFCURVE",
"376 732 OFFCURVE",
"376 548 QCURVE SMOOTH",
"376 438 OFFCURVE",
"510 187 OFFCURVE",
"659 187 QCURVE SMOOTH",
"788 187 OFFCURVE",
"923 442 OFFCURVE",
"923 626 QCURVE SMOOTH",
"923 742 LINE SMOOTH",
"923 1139 OFFCURVE",
"524 1395 OFFCURVE",
"241 1464 QCURVE"
);
},
{
closed = 1;
nodes = (
"486 1119 LINE",
"373 1277 LINE",
"982 1669 LINE",
"1095 1512 LINE"
);
}
);
width = 1299;
}
);
unicode = 00F0;
},
{
glyphname = thorn;
layers = (
{
layerId = "3F9F0E9B-02B5-40B1-9FD1-782180825A5D";
paths = (
{
closed = 1;
nodes = (
"178 1536 LINE",
"448 1536 LINE",
"448 1074 LINE",
"502 1140 OFFCURVE",
"650 1210 OFFCURVE",
"771 1210 QCURVE SMOOTH",
"999 1210 OFFCURVE",
"1289 855 OFFCURVE",
"1289 605 QCURVE SMOOTH",
"1289 573 LINE SMOOTH",
"1289 327 OFFCURVE",
"999 -20 OFFCURVE",
"771 -20 QCURVE SMOOTH",
"651 -20 OFFCURVE",
"498 57 OFFCURVE",
"462 114 QCURVE",
"457 114 LINE",
"441 -388 LINE",
"178 -388 LINE"
);
},
{
closed = 1;
nodes = (
"474 301 OFFCURVE",
"618 186 OFFCURVE",
"720 186 QCURVE SMOOTH",
"875 186 OFFCURVE",
"1019 413 OFFCURVE",
"1019 572 QCURVE SMOOTH",
"1019 605 LINE SMOOTH",
"1019 765 OFFCURVE",
"875 1005 OFFCURVE",
"720 1005 QCURVE SMOOTH",
"617 1005 OFFCURVE",
"474 889 OFFCURVE",
"443 817 QCURVE",
"443 372 LINE"
);
}
);
width = 1403;
}
);
rightKerningGroup = b_LC;
unicode = 00FE;
},
{
glyphname = kgreenlandic;
layers = (
{
layerId = "3F9F0E9B-02B5-40B1-9FD1-782180825A5D";
paths = (
{
closed = 1;
nodes = (
"455 0 LINE",
"192 0 LINE",
"192 1250 LINE",
"455 1250 LINE"
);
},
{
closed = 1;
nodes = (
"680 507 LINE",
"327 507 LINE",
"327 734 LINE",
"544 734 LINE",
"991 1250 LINE",
"1321 1250 LINE"
);
},
{
closed = 1;
nodes = (
"532 539 LINE",
"697 741 LINE",
"1341 0 LINE",
"1006 0 LINE"
);
}
);
width = 1358;
}
);
leftKerningGroup = mnpr_LC;
rightKerningGroup = k_LC;
unicode = 0138;
},
{
glyphname = oe;
layers = (
{
layerId = "3F9F0E9B-02B5-40B1-9FD1-782180825A5D";
paths = (
{
closed = 1;
nodes = (
"384 578 LINE SMOOTH",
"384 412 OFFCURVE",
"540 166 OFFCURVE",
"699 166 QCURVE SMOOTH",
"856 166 OFFCURVE",
"1012 410 OFFCURVE",
"1012 577 QCURVE SMOOTH",
"1012 611 LINE SMOOTH",
"1012 778 OFFCURVE",
"856 1025 OFFCURVE",
"699 1025 QCURVE SMOOTH",
"540 1025 OFFCURVE",
"384 776 OFFCURVE",
"384 611 QCURVE SMOOTH"
);
},
{
closed = 1;
nodes = (
"1132 1029 OFFCURVE",
"1389 1230 OFFCURVE",
"1632 1230 QCURVE SMOOTH",
"1831 1230 OFFCURVE",
"2111 899 OFFCURVE",
"2111 633 QCURVE SMOOTH",
"2111 524 LINE",
"1179 524 LINE",
"1179 725 LINE",
"1843 725 LINE",
"1845 769 LINE",
"1843 884 OFFCURVE",
"1698 1025 OFFCURVE",
"1592 1025 QCURVE SMOOTH",
"1434 1025 OFFCURVE",
"1284 773 OFFCURVE",
"1284 610 QCURVE SMOOTH",
"1284 578 LINE SMOOTH",
"1284 415 OFFCURVE",
"1421 166 OFFCURVE",
"1604 166 QCURVE SMOOTH",
"1708 166 OFFCURVE",
"1884 266 OFFCURVE",
"1937 324 QCURVE",
"2103 206 LINE",
"2040 118 OFFCURVE",
"1790 -40 OFFCURVE",
"1664 -40 QCURVE SMOOTH",
"1394 -40 OFFCURVE",
"1158 131 OFFCURVE",
"1145 183 QCURVE",
"1134 132 OFFCURVE",
"907 -40 OFFCURVE",
"638 -40 QCURVE SMOOTH",
"432 -40 OFFCURVE",
"114 311 OFFCURVE",
"114 578 QCURVE SMOOTH",
"114 610 LINE SMOOTH",
"114 879 OFFCURVE",
"429 1228 OFFCURVE",
"674 1228 QCURVE SMOOTH",
"925 1228 OFFCURVE",
"1148 1019 OFFCURVE",
"1140 1007 QCURVE"
);
}
);
width = 2168;
}
);
leftKerningGroup = alpha;
rightKerningGroup = e_LC;
unicode = 0153;
},
{
glyphname = schwa;
layers = (
{
layerId = "3F9F0E9B-02B5-40B1-9FD1-782180825A5D";
paths = (
{
closed = 1;
nodes = (
"1159 580 LINE SMOOTH",
"1159 311 OFFCURVE",
"849 -40 OFFCURVE",
"593 -40 QCURVE SMOOTH",
"338 -40 OFFCURVE",
"58 291 OFFCURVE",
"58 557 QCURVE SMOOTH",
"58 666 LINE",
"990 666 LINE",
"990 465 LINE",
"326 465 LINE",
"324 421 LINE",
"326 306 OFFCURVE",
"471 165 OFFCURVE",
"577 165 QCURVE SMOOTH",
"735 165 OFFCURVE",
"885 419 OFFCURVE",
"885 580 QCURVE SMOOTH",
"885 612 LINE SMOOTH",
"885 773 OFFCURVE",
"728 1024 OFFCURVE",
"545 1024 QCURVE SMOOTH",
"441 1024 OFFCURVE",
"285 924 OFFCURVE",
"232 866 QCURVE",
"66 984 LINE",
"129 1072 OFFCURVE",
"379 1230 OFFCURVE",
"547 1230 QCURVE SMOOTH",
"846 1230 OFFCURVE",
"1159 877 OFFCURVE",
"1159 612 QCURVE SMOOTH"
);
}
);
width = 1273;
}
);
rightKerningGroup = o_LC;
unicode = 0259;
},
{
glyphname = primemod;
layers = (
{
layerId = "3F9F0E9B-02B5-40B1-9FD1-782180825A5D";
paths = (
{
closed = 1;
nodes = (
"470 1502 LINE",
"341 947 LINE",
"172 952 LINE",
"228 1502 LINE"
);
}
);
width = 664;
}
);
unicode = 02B9;
},
{
glyphname = doubleprimemod;
layers = (
{
layerId = "3F9F0E9B-02B5-40B1-9FD1-782180825A5D";
paths = (
{
closed = 1;
nodes = (
"470 1502 LINE",
"343 973 LINE",
"174 978 LINE",
"228 1502 LINE"
);
},
{
closed = 1;
nodes = (
"770 1502 LINE",
"643 973 LINE",
"474 978 LINE",
"528 1502 LINE"
);
}
);
width = 740;
}
);
unicode = 02BA;
},
{
glyphname = apostrophemod;
layers = (
{
layerId = "3F9F0E9B-02B5-40B1-9FD1-782180825A5D";
paths = (
{
closed = 1;
nodes = (
"206 1008 OFFCURVE",
"340 1148 OFFCURVE",
"359 1227 QCURVE",
"268 1227 OFFCURVE",
"165 1316 OFFCURVE",
"165 1386 QCURVE SMOOTH",
"165 1455 OFFCURVE",
"269 1546 OFFCURVE",
"350 1546 QCURVE SMOOTH",
"426 1546 OFFCURVE",
"550 1432 OFFCURVE",
"550 1341 QCURVE SMOOTH",
"550 1196 OFFCURVE",
"345 973 OFFCURVE",
"210 914 QCURVE",
"155 972 LINE"
);
}
);
width = 600;
}
);
leftKerningGroup = minute;
rightKerningGroup = minute;
unicode = 02BC;
},
{
glyphname = ordfeminine;
layers = (
{
guideLines = (
{
position = "{0, 1681}";
},
{
position = "{0, 909}";
}
);
layerId = "3F9F0E9B-02B5-40B1-9FD1-782180825A5D";
paths = (
{
closed = 1;
nodes = (
"584 821 OFFCURVE",
"604 736 OFFCURVE",
"627 706 QCURVE",
"804 706 LINE",
"790 749 OFFCURVE",
"778 838 OFFCURVE",
"778 887 QCURVE SMOOTH",
"778 1201 LINE SMOOTH",
"778 1342 OFFCURVE",
"602 1477 OFFCURVE",
"464 1477 QCURVE SMOOTH",
"337 1477 OFFCURVE",
"152 1356 OFFCURVE",
"148 1261 QCURVE SMOOTH",
"148 1234 LINE",
"350 1234 LINE",
"350 1247 LINE SMOOTH",
"350 1273 OFFCURVE",
"409 1312 OFFCURVE",
"466 1312 QCURVE SMOOTH",
"522 1312 OFFCURVE",
"584 1264 OFFCURVE",
"584 1202 QCURVE SMOOTH",
"584 862 LINE"
);
},
{
closed = 1;
nodes = (
"477 1149 LINE SMOOTH",
"291 1149 OFFCURVE",
"124 1027 OFFCURVE",
"124 918 QCURVE SMOOTH",
"124 823 OFFCURVE",
"258 692 OFFCURVE",
"387 692 QCURVE SMOOTH",
"488 692 OFFCURVE",
"619 788 OFFCURVE",
"641 837 QCURVE",
"618 982 LINE",
"618 944 OFFCURVE",
"490 855 OFFCURVE",
"426 855 QCURVE SMOOTH",
"374 855 OFFCURVE",
"328 900 OFFCURVE",
"328 922 QCURVE SMOOTH",
"328 952 OFFCURVE",
"399 1028 OFFCURVE",
"478 1029 QCURVE SMOOTH",
"635 1029 LINE",
"635 1149 LINE"
);
}
);
width = 916;
}
);
unicode = 00AA;
userData = {
com.typemytype.robofont.guideline.magnetic.3CJlALCfkl = 5;
com.typemytype.robofont.guideline.magnetic.Zdl6NZVQAy = 5;
};
},
{
glyphname = ordmasculine;
layers = (
{
guideLines = (
{
position = "{0, 1975}";
}
);
layerId = "3F9F0E9B-02B5-40B1-9FD1-782180825A5D";
paths = (
{
closed = 1;
nodes = (
"110 1124 LINE",
"110 1278 OFFCURVE",
"308 1477 OFFCURVE",
"465 1477 QCURVE SMOOTH",
"623 1477 OFFCURVE",
"819 1277.731 OFFCURVE",
"819 1124 QCURVE",
"819 1043 LINE",
"819 889.269 OFFCURVE",
"624 691 OFFCURVE",
"467 691 QCURVE SMOOTH",
"309 691 OFFCURVE",
"110 889 OFFCURVE",
"110 1043 QCURVE"
);
},
{
closed = 1;
nodes = (
"326 1043 LINE",
"326 982.955 OFFCURVE",
"389.209 870 OFFCURVE",
"467 870 QCURVE SMOOTH",
"539.806 870 OFFCURVE",
"605 982.955 OFFCURVE",
"605 1043 QCURVE",
"605 1124 LINE",
"605 1180.806 OFFCURVE",
"539.299 1296 OFFCURVE",
"465 1296 QCURVE SMOOTH",
"390.702 1296 OFFCURVE",
"326 1180.806 OFFCURVE",
"326 1124 QCURVE"
);
}
);
width = 932;
}
);
unicode = 00BA;
userData = {
com.typemytype.robofont.guideline.magnetic.Jnt0R9CyOf = 5;
};
},
{
glyphname = hookabovecomb;
layers = (
{
layerId = "3F9F0E9B-02B5-40B1-9FD1-782180825A5D";
paths = (
{
closed = 1;
nodes = (
"361 994 LINE SMOOTH",
"361 1073 OFFCURVE",
"436 1148 OFFCURVE",
"491 1152 QCURVE SMOOTH",
"529 1156 OFFCURVE",
"549 1168 OFFCURVE",
"549 1185 QCURVE SMOOTH",
"549 1200 OFFCURVE",
"517 1215 OFFCURVE",
"479 1215 QCURVE SMOOTH",
"436 1215 OFFCURVE",
"341 1190 OFFCURVE",
"333 1186 QCURVE",
"275 1351 LINE",
"305 1369 OFFCURVE",
"450 1408 OFFCURVE",
"531 1408 QCURVE SMOOTH",
"650 1408 OFFCURVE",
"782 1299 OFFCURVE",
"782 1207 QCURVE SMOOTH",
"782 1111 OFFCURVE",
"683 997 OFFCURVE",
"530 987 QCURVE",
"530 957 LINE",
"361 957 LINE"
);
}
);
width = 1024;
}
);
unicode = 0309;
},
{
glyphname = breveinvertedcomb;
layers = (
{
layerId = "3F9F0E9B-02B5-40B1-9FD1-782180825A5D";
paths = (
{
closed = 1;
nodes = (
"154 1033 LINE",
"192 1157 OFFCURVE",
"379 1367 OFFCURVE",
"513 1367 QCURVE SMOOTH",
"634 1367 OFFCURVE",
"827 1174 OFFCURVE",
"872 1031 QCURVE",
"666 964 LINE",
"642 999 OFFCURVE",
"563 1058 OFFCURVE",
"510 1058 QCURVE SMOOTH",
"454 1058 OFFCURVE",
"374 1001 OFFCURVE",
"350 964 QCURVE"
);
}
);
width = 1024;
}
);
unicode = 030F;
},
{
glyphname = horncomb;
layers = (
{
layerId = "3F9F0E9B-02B5-40B1-9FD1-782180825A5D";
paths = (
{
closed = 1;
nodes = (
"57 914 LINE SMOOTH",
"90 914 OFFCURVE",
"139 950 OFFCURVE",
"139 1006 QCURVE SMOOTH",
"139 1056 OFFCURVE",
"130 1132 OFFCURVE",
"123 1169 QCURVE",
"343 1169 LINE",
"364 1135 OFFCURVE",
"399 1028 OFFCURVE",
"399 947 QCURVE SMOOTH",
"399 833 OFFCURVE",
"252 725 OFFCURVE",
"152 725 QCURVE SMOOTH",
"103 725 OFFCURVE",
"28 740 OFFCURVE",
"0 752 QCURVE",
"0 914 LINE"
);
}
);
width = 1024;
}
);
unicode = 031B;
},
{
glyphname = dotbelowcomb;
layers = (
{
layerId = "3F9F0E9B-02B5-40B1-9FD1-782180825A5D";
paths = (
{
closed = 1;
nodes = (
"318 -274 OFFCURVE",
"417 -164 OFFCURVE",
"512 -164 QCURVE SMOOTH",
"606 -164 OFFCURVE",
"706 -274 OFFCURVE",
"706 -354 QCURVE SMOOTH",
"706 -429 OFFCURVE",
"606 -537 OFFCURVE",
"512 -537 QCURVE SMOOTH",
"417 -537 OFFCURVE",
"318 -429 OFFCURVE",
"318 -354 QCURVE SMOOTH"
);
}
);
width = 1024;
}
);
unicode = 0323;
},
{
glyphname = dieresisbelowcomb;
layers = (
{
layerId = "3F9F0E9B-02B5-40B1-9FD1-782180825A5D";
paths = (
{
closed = 1;
nodes = (
"166 -273 OFFCURVE",
"226 -214 OFFCURVE",
"282 -214 QCURVE SMOOTH",
"335 -214 OFFCURVE",
"398 -277 OFFCURVE",
"398 -328 QCURVE SMOOTH",
"398 -382 OFFCURVE",
"339 -441 OFFCURVE",
"282 -441 QCURVE SMOOTH",
"229 -441 OFFCURVE",
"166 -379 OFFCURVE",
"166 -328 QCURVE SMOOTH"
);
},
{
closed = 1;
nodes = (
"626 -273 OFFCURVE",
"686 -214 OFFCURVE",
"742 -214 QCURVE SMOOTH",
"795 -214 OFFCURVE",
"858 -277 OFFCURVE",
"858 -328 QCURVE SMOOTH",
"858 -382 OFFCURVE",
"799 -441 OFFCURVE",
"742 -441 QCURVE SMOOTH",
"689 -441 OFFCURVE",
"626 -379 OFFCURVE",
"626 -328 QCURVE SMOOTH"
);
}
);
width = 1024;
}
);
unicode = 0324;
},
{
glyphname = commaaccentcomb;
layers = (
{
layerId = "3F9F0E9B-02B5-40B1-9FD1-782180825A5D";
paths = (
{
closed = 1;
nodes = (
"264 -424 OFFCURVE",
"300 -284 OFFCURVE",
"323 -156 QCURVE",
"805 -154 LINE",
"678 -531 LINE",
"235 -528 LINE"
);
}
);
width = 1024;
}
);
unicode = 0326;
},
{
glyphname = brevebelowcomb;
layers = (
{
layerId = "3F9F0E9B-02B5-40B1-9FD1-782180825A5D";
paths = (
{
closed = 1;
nodes = (
"896 -197 LINE",
"857 -296 OFFCURVE",
"656 -463 OFFCURVE",
"512 -463 QCURVE SMOOTH",
"384 -463 OFFCURVE",
"177 -310 OFFCURVE",
"129 -196 QCURVE",
"229 -127 LINE",
"272 -190 OFFCURVE",
"417 -294 OFFCURVE",
"512 -294 QCURVE SMOOTH",
"614 -294 OFFCURVE",
"760 -195 OFFCURVE",
"803 -127 QCURVE"
);
}
);
width = 1024;
}
);
unicode = 032E;
},
{
glyphname = macronbelowcomb;
layers = (
{
layerId = "3F9F0E9B-02B5-40B1-9FD1-782180825A5D";
paths = (
{
closed = 1;
nodes = (
"216 -103 LINE",
"808 -103 LINE",
"808 -259 LINE",
"216 -259 LINE"
);
}
);
width = 1024;
}
);
unicode = 0331;
},
{
glyphname = zero;
layers = (
{
layerId = "3F9F0E9B-02B5-40B1-9FD1-782180825A5D";
paths = (
{
closed = 1;
nodes = (
"58 945 LINE SMOOTH",
"108 1229 OFFCURVE",
"408 1476 OFFCURVE",
"635 1476 QCURVE SMOOTH",
"861 1476 OFFCURVE",
"1078 1239 OFFCURVE",
"1026 945 QCURVE SMOOTH",
"949 508 LINE SMOOTH",
"900 228 OFFCURVE",
"570 -20 OFFCURVE",
"371 -20 QCURVE SMOOTH",
"140 -20 OFFCURVE",
"-68 231 OFFCURVE",
"-19 508 QCURVE SMOOTH"
);
},
{
closed = 1;
nodes = (
"428 371 OFFCURVE",
"428 359 OFFCURVE",
"434 359 QCURVE SMOOTH",
"440 359 OFFCURVE",
"444 371 OFFCURVE",
"447 386 QCURVE SMOOTH",
"565 1055 LINE SMOOTH",
"567 1068 OFFCURVE",
"567 1078 OFFCURVE",
"561 1078 QCURVE SMOOTH",
"556 1078 OFFCURVE",
"551 1068 OFFCURVE",
"549 1055 QCURVE SMOOTH",
"431 386 LINE SMOOTH"
);
}
);
width = 1008;
}
);
unicode = 0030;
},
{
glyphname = one;
layers = (
{
layerId = "3F9F0E9B-02B5-40B1-9FD1-782180825A5D";
paths = (
{
closed = 1;
nodes = (
"391 962 LINE",
"45 819 LINE",
"129 1292 LINE",
"525 1447 LINE",
"1049 1447 LINE",
"794 0 LINE",
"221 0 LINE"
);
}
);
width = 1008;
}
);
unicode = 0031;
},
{
glyphname = two;
layers = (
{
layerId = "3F9F0E9B-02B5-40B1-9FD1-782180825A5D";
paths = (
{
closed = 1;
nodes = (
"-57 384 LINE",
"497 879 LINE SMOOTH",
"522 902 OFFCURVE",
"548 953 OFFCURVE",
"556 999 QCURVE SMOOTH",
"564 1043 OFFCURVE",
"558 1068 OFFCURVE",
"543 1068 QCURVE SMOOTH",
"528 1068 OFFCURVE",
"517 1045 OFFCURVE",
"514 1026 QCURVE SMOOTH",
"490 891 LINE",
"24 891 LINE",
"43 997 LINE SMOOTH",
"86 1228 OFFCURVE",
"396 1476 OFFCURVE",
"634 1476 QCURVE SMOOTH",
"869 1476 OFFCURVE",
"1069 1246 OFFCURVE",
"1039 1070 QCURVE SMOOTH",
"1008 889 OFFCURVE",
"881 673 OFFCURVE",
"785 596 QCURVE SMOOTH",
"569 422 LINE",
"941 422 LINE",
"867 0 LINE",
"-125 0 LINE"
);
}
);
width = 1008;
}
);
unicode = 0032;
},
{
glyphname = three;
layers = (
{
layerId = "3F9F0E9B-02B5-40B1-9FD1-782180825A5D";
paths = (
{
closed = 1;
nodes = (
"-16 571 LINE",
"449 571 LINE",
"418 395 LINE SMOOTH",
"413 371 OFFCURVE",
"414 359 OFFCURVE",
"421 359 QCURVE SMOOTH",
"428 359 OFFCURVE",
"436 376 OFFCURVE",
"453 468 QCURVE SMOOTH",
"471 567 OFFCURVE",
"463 590 OFFCURVE",
"448 590 QCURVE SMOOTH",
"316 590 LINE",
"370 900 LINE",
"491 900 LINE SMOOTH",
"520 900 OFFCURVE",
"533 938 OFFCURVE",
"544 999 QCURVE SMOOTH",
"555 1062 OFFCURVE",
"552 1078 OFFCURVE",
"543 1078 QCURVE SMOOTH",
"535 1078 OFFCURVE",
"528 1054 OFFCURVE",
"519 1001 QCURVE SMOOTH",
"503 915 LINE",
"55 915 LINE",
"67 998 LINE SMOOTH",
"101 1231 OFFCURVE",
"389 1476 OFFCURVE",
"628 1476 QCURVE SMOOTH",
"859 1476 OFFCURVE",
"1060 1239 OFFCURVE",
"1028 1060 QCURVE SMOOTH",
"1008 943 OFFCURVE",
"881 795 OFFCURVE",
"795 770 QCURVE",
"795 766 LINE",
"861 740 OFFCURVE",
"962 561 OFFCURVE",
"932 388 QCURVE SMOOTH",
"903 222 OFFCURVE",
"613 -20 OFFCURVE",
"364 -20 QCURVE SMOOTH",
"141 -20 OFFCURVE",
"-57 224 OFFCURVE",
"-36 459 QCURVE SMOOTH"
);
}
);
width = 1008;
}
);
unicode = 0033;
},
{
glyphname = four;
layers = (
{
layerId = "3F9F0E9B-02B5-40B1-9FD1-782180825A5D";
paths = (
{
closed = 1;
nodes = (
"364 341 LINE",
"389 355 LINE",
"458 749 LINE",
"449 749 LINE",
"347 615 LINE",
"666 615 LINE",
"703 665 LINE",
"986 665 LINE",
"908 219 LINE",
"-86 219 LINE",
"1 712 LINE",
"637 1456 LINE",
"1095 1456 LINE",
"838 0 LINE",
"304 0 LINE"
);
}
);
width = 1008;
}
);
unicode = 0034;
},
{
glyphname = five;
layers = (
{
layerId = "3F9F0E9B-02B5-40B1-9FD1-782180825A5D";
paths = (
{
closed = 1;
nodes = (
"-23 581 LINE",
"445 581 LINE",
"418 424 LINE SMOOTH",
"412 388 OFFCURVE",
"412 359 OFFCURVE",
"424 359 QCURVE SMOOTH",
"436 359 OFFCURVE",
"445 402 OFFCURVE",
"462 499 QCURVE SMOOTH",
"489 655 OFFCURVE",
"485 680 OFFCURVE",
"471 680 QCURVE SMOOTH",
"458 680 OFFCURVE",
"444 643 OFFCURVE",
"436 598 QCURVE",
"4 650 LINE",
"215 1456 LINE",
"1040 1456 LINE",
"965 999 LINE",
"541 999 LINE",
"522 934 LINE",
"576 965 OFFCURVE",
"655 983 OFFCURVE",
"707 983 QCURVE SMOOTH",
"847 983 OFFCURVE",
"1010 774 OFFCURVE",
"960 514 QCURVE SMOOTH",
"907 238 OFFCURVE",
"593 -20 OFFCURVE",
"349 -20 QCURVE SMOOTH",
"129 -20 OFFCURVE",
"-82 238 OFFCURVE",
"-44 459 QCURVE SMOOTH"
);
}
);
width = 1008;
}
);
unicode = 0035;
},
{
glyphname = six;
layers = (
{
layerId = "3F9F0E9B-02B5-40B1-9FD1-782180825A5D";
paths = (
{
closed = 1;
nodes = (
"8 644 LINE SMOOTH",
"78 1037 OFFCURVE",
"488 1476 OFFCURVE",
"906 1476 QCURVE SMOOTH",
"1011 1476 LINE",
"937 1056 LINE",
"907 1056 LINE SMOOTH",
"722 1056 OFFCURVE",
"512 920 OFFCURVE",
"447 548 QCURVE SMOOTH",
"418 386 LINE SMOOTH",
"415 367 OFFCURVE",
"421 358 OFFCURVE",
"428 358 QCURVE SMOOTH",
"434 358 OFFCURVE",
"446 375 OFFCURVE",
"475 538 QCURVE SMOOTH",
"495 651 OFFCURVE",
"493 670 OFFCURVE",
"482 670 QCURVE SMOOTH",
"473 670 OFFCURVE",
"464 645 OFFCURVE",
"455 595 QCURVE",
"404 595 LINE",
"438 787 OFFCURVE",
"575 953 OFFCURVE",
"721 953 QCURVE SMOOTH",
"867 953 OFFCURVE",
"988 725 OFFCURVE",
"945 481 QCURVE SMOOTH",
"902 237 OFFCURVE",
"592 -20 OFFCURVE",
"376 -20 QCURVE SMOOTH",
"148 -20 OFFCURVE",
"-64 242 OFFCURVE",
"-9 549 QCURVE SMOOTH"
);
}
);
width = 1008;
}
);
unicode = 0036;
},
{
glyphname = seven;
layers = (
{
layerId = "3F9F0E9B-02B5-40B1-9FD1-782180825A5D";
paths = (
{
closed = 1;
nodes = (
"498 998 LINE",
"65 998 LINE",
"146 1456 LINE",
"1117 1456 LINE",
"1033 982 LINE",
"552 0 LINE",
"-36 0 LINE"
);
}
);
width = 1008;
}
);
unicode = 0037;
},
{
glyphname = eight;
layers = (
{
layerId = "3F9F0E9B-02B5-40B1-9FD1-782180825A5D";
paths = (
{
closed = 1;
nodes = (
"-27 559 OFFCURVE",
"124 738 OFFCURVE",
"200 765 QCURVE",
"201 769 LINE",
"150 811 OFFCURVE",
"79 1006 OFFCURVE",
"116 1144 QCURVE SMOOTH",
"159 1303 OFFCURVE",
"410 1476 OFFCURVE",
"631 1476 QCURVE SMOOTH",
"860 1476 OFFCURVE",
"1055 1253 OFFCURVE",
"1023 1074 QCURVE SMOOTH",
"1005 972 OFFCURVE",
"913 814 OFFCURVE",
"830 764 QCURVE",
"829 760 LINE",
"897 724 OFFCURVE",
"968 535 OFFCURVE",
"931 368 QCURVE SMOOTH",
"896 208 OFFCURVE",
"604 -20 OFFCURVE",
"367 -20 QCURVE SMOOTH",
"128 -20 OFFCURVE",
"-85 231 OFFCURVE",
"-52 422 QCURVE SMOOTH"
);
},
{
closed = 1;
nodes = (
"416 376 OFFCURVE",
"419 352 OFFCURVE",
"428 352 QCURVE SMOOTH",
"437 352 OFFCURVE",
"449 376 OFFCURVE",
"468 482 QCURVE SMOOTH",
"487 591 OFFCURVE",
"483 611 OFFCURVE",
"474 611 QCURVE SMOOTH",
"465 611 OFFCURVE",
"454 591 OFFCURVE",
"435 482 QCURVE SMOOTH"
);
},
{
closed = 1;
nodes = (
"511 908 OFFCURVE",
"515 893 OFFCURVE",
"523 893 QCURVE SMOOTH",
"530 893 OFFCURVE",
"540 908 OFFCURVE",
"554 988 QCURVE SMOOTH",
"570 1080 OFFCURVE",
"566 1095 OFFCURVE",
"559 1095 QCURVE SMOOTH",
"551 1095 OFFCURVE",
"541 1080 OFFCURVE",
"525 988 QCURVE SMOOTH"
);
}
);
width = 1008;
}
);
unicode = 0038;
},
{
glyphname = nine;
layers = (
{
layerId = "3F9F0E9B-02B5-40B1-9FD1-782180825A5D";
paths = (
{
closed = 1;
nodes = (
"89 1190 OFFCURVE",
"408 1476 OFFCURVE",
"634 1476 QCURVE SMOOTH",
"865 1476 OFFCURVE",
"1080 1214 OFFCURVE",
"1025 907 QCURVE SMOOTH",
"1008 812 LINE SMOOTH",
"938 419 OFFCURVE",
"511 -20 OFFCURVE",
"93 -20 QCURVE SMOOTH",
"-12 -20 LINE",
"63 400 LINE",
"93 400 LINE SMOOTH",
"278 400 OFFCURVE",
"490 536 OFFCURVE",
"556 908 QCURVE SMOOTH",
"583 1060 LINE SMOOTH",
"586 1079 OFFCURVE",
"577 1088 OFFCURVE",
"569 1088 QCURVE SMOOTH",
"561 1088 OFFCURVE",
"553 1073 OFFCURVE",
"526 918 QCURVE SMOOTH",
"506 805 OFFCURVE",
"508 786 OFFCURVE",
"518 786 QCURVE SMOOTH",
"528 786 OFFCURVE",
"536 811 OFFCURVE",
"545 861 QCURVE",
"596 861 LINE",
"562 669 OFFCURVE",
"425 503 OFFCURVE",
"279 503 QCURVE SMOOTH",
"133 503 OFFCURVE",
"3 702 OFFCURVE",
"46 946 QCURVE SMOOTH"
);
}
);
width = 1008;
}
);
unicode = 0039;
},
{
glyphname = onesuperior;
layers = (
{
layerId = "3F9F0E9B-02B5-40B1-9FD1-782180825A5D";
paths = (
{
closed = 1;
nodes = (
"123 1370 LINE",
"457 1486 LINE",
"501 1486 LINE",
"501 690 LINE",
"339 690 LINE",
"339 1288 LINE",
"123 1211 LINE"
);
}
);
width = 751;
}
);
unicode = 00B9;
},
{
glyphname = twosuperior;
layers = (
{
layerId = "3F9F0E9B-02B5-40B1-9FD1-782180825A5D";
paths = (
{
closed = 1;
nodes = (
"85 805 LINE",
"373 1066 LINE SMOOTH",
"441 1127 OFFCURVE",
"479 1216 OFFCURVE",
"479 1249 QCURVE SMOOTH",
"479 1297 OFFCURVE",
"429 1354 OFFCURVE",
"370 1354 QCURVE SMOOTH",
"305 1354 OFFCURVE",
"234 1273 OFFCURVE",
"235 1198 QCURVE",
"67 1198 LINE",
"66 1329 OFFCURVE",
"224 1487 OFFCURVE",
"366 1487 QCURVE SMOOTH",
"500 1487 OFFCURVE",
"652 1359 OFFCURVE",
"652 1251 QCURVE SMOOTH",
"652 1171 OFFCURVE",
"551 1047 OFFCURVE",
"463 971 QCURVE SMOOTH",
"314 845 LINE",
"683 845 LINE",
"683 697 LINE",
"85 697 LINE"
);
}
);
width = 751;
}
);
unicode = 00B2;
},
{
glyphname = threesuperior;
layers = (
{
layerId = "3F9F0E9B-02B5-40B1-9FD1-782180825A5D";
paths = (
{
closed = 1;
nodes = (
"220 920 LINE",
"220 875 OFFCURVE",
"300 824 OFFCURVE",
"366 824 QCURVE SMOOTH",
"435 824 OFFCURVE",
"499 876 OFFCURVE",
"499 925 QCURVE SMOOTH",
"499 978 OFFCURVE",
"423 1028 OFFCURVE",
"350 1029 QCURVE SMOOTH",
"266 1029 LINE",
"266 1151 LINE",
"350 1151 LINE SMOOTH",
"422 1151 OFFCURVE",
"486 1207 OFFCURVE",
"486 1255 QCURVE SMOOTH",
"486 1299 OFFCURVE",
"432 1347 OFFCURVE",
"363 1347 QCURVE SMOOTH",
"306 1347 OFFCURVE",
"231 1299 OFFCURVE",
"231 1256 QCURVE",
"86 1256 LINE",
"86 1357 OFFCURVE",
"241 1487 OFFCURVE",
"360 1487 QCURVE SMOOTH",
"490 1487 OFFCURVE",
"656 1372 OFFCURVE",
"656 1263 QCURVE SMOOTH",
"656 1212 OFFCURVE",
"593 1120 OFFCURVE",
"533 1098 QCURVE",
"601 1075 OFFCURVE",
"667 983 OFFCURVE",
"667 917 QCURVE SMOOTH",
"667 807 OFFCURVE",
"491 686 OFFCURVE",
"361 686 QCURVE SMOOTH",
"248 686 OFFCURVE",
"75 798 OFFCURVE",
"75 920 QCURVE"
);
}
);
width = 751;
}
);
unicode = 00B3;
},
{
glyphname = foursuperior;
layers = (
{
layerId = "3F9F0E9B-02B5-40B1-9FD1-782180825A5D";
paths = (
{
closed = 1;
nodes = (
"54 982 LINE",
"432 1496 LINE",
"556 1496 LINE",
"399 1270 LINE",
"212 1010 LINE",
"700 1010 LINE",
"700 880 LINE",
"61 880 LINE"
);
},
{
closed = 1;
nodes = (
"592 697 LINE",
"435 697 LINE",
"435 1496 LINE",
"592 1496 LINE"
);
}
);
width = 751;
}
);
unicode = 2074;
},
{
glyphname = underscore;
layers = (
{
layerId = "3F9F0E9B-02B5-40B1-9FD1-782180825A5D";
paths = (
{
closed = 1;
nodes = (
"-143 -56 LINE",
"540 -56 LINE",
"510 -326 LINE",
"-173 -326 LINE"
);
}
);
width = 683;
}
);
unicode = 005F;
},
{
glyphname = hyphen;
layers = (
{
layerId = "3F9F0E9B-02B5-40B1-9FD1-782180825A5D";
paths = (
{
closed = 1;
nodes = (
"62 864 LINE",
"688 864 LINE",
"605 389 LINE",
"-21 389 LINE"
);
}
);
width = 714;
}
);
leftKerningGroup = emdash;
rightKerningGroup = emdash;
unicode = 002D;
},
{
glyphname = endash;
layers = (
{
layerId = "3F9F0E9B-02B5-40B1-9FD1-782180825A5D";
paths = (
{
closed = 1;
nodes = (
"0 714 LINE",
"1224 714 LINE",
"1224 470 LINE",
"0 470 LINE"
);
}
);
width = 1224;
}
);
leftKerningGroup = emdash;
rightKerningGroup = emdash;
unicode = 2013;
},
{
glyphname = emdash;
layers = (
{
layerId = "3F9F0E9B-02B5-40B1-9FD1-782180825A5D";
paths = (
{
closed = 1;
nodes = (
"360 714 LINE",
"2088 714 LINE",
"2088 470 LINE",
"360 470 LINE"
);
}
);
width = 2448;
}
);
leftKerningGroup = emdash;
rightKerningGroup = emdash;
unicode = 2014;
},
{
glyphname = horizontalbar;
layers = (
{
layerId = "3F9F0E9B-02B5-40B1-9FD1-782180825A5D";
paths = (
{
closed = 1;
nodes = (
"40 792 LINE",
"612 792 LINE",
"612 626 LINE",
"40 626 LINE"
);
}
);
width = 656;
}
);
leftKerningGroup = emdash;
rightKerningGroup = emdash;
unicode = 2015;
},
{
glyphname = parenleft;
layers = (
{
layerId = "3F9F0E9B-02B5-40B1-9FD1-782180825A5D";
paths = (
{
closed = 1;
nodes = (
"163 -374 OFFCURVE",
"-64 97 OFFCURVE",
"10 514 QCURVE SMOOTH",
"12 525 LINE SMOOTH",
"85 943 OFFCURVE",
"478 1414 OFFCURVE",
"732 1476 QCURVE",
"691 1241 LINE",
"591 1190 OFFCURVE",
"476 890 OFFCURVE",
"413 532 QCURVE SMOOTH",
"409 508 LINE SMOOTH",
"345 150 OFFCURVE",
"355 -150 OFFCURVE",
"437 -201 QCURVE",
"395 -436 LINE"
);
}
);
width = 622;
}
);
rightKerningGroup = parens;
unicode = 0028;
},
{
glyphname = parenright;
layers = (
{
layerId = "3F9F0E9B-02B5-40B1-9FD1-782180825A5D";
paths = (
{
closed = 1;
nodes = (
"-153 -201 LINE",
"-53 -150 OFFCURVE",
"61 150 OFFCURVE",
"125 508 QCURVE SMOOTH",
"129 532 LINE SMOOTH",
"192 890 OFFCURVE",
"183 1190 OFFCURVE",
"101 1241 QCURVE",
"142 1476 LINE",
"374 1414 OFFCURVE",
"601 943 OFFCURVE",
"528 526 QCURVE SMOOTH",
"526 515 LINE SMOOTH",
"452 97 OFFCURVE",
"59 -374 OFFCURVE",
"-195 -436 QCURVE"
);
}
);
width = 622;
}
);
leftKerningGroup = parens;
unicode = 0029;
},
{
glyphname = bracketleft;
layers = (
{
layerId = "3F9F0E9B-02B5-40B1-9FD1-782180825A5D";
paths = (
{
closed = 1;
nodes = (
"184 1456 LINE",
"683 1456 LINE",
"635 1186 LINE",
"495 1186 LINE",
"270 -40 LINE",
"430 -40 LINE",
"382 -310 LINE",
"-127 -310 LINE"
);
}
);
width = 610;
}
);
rightKerningGroup = parens;
unicode = 005B;
},
{
glyphname = bracketright;
layers = (
{
layerId = "3F9F0E9B-02B5-40B1-9FD1-782180825A5D";
paths = (
{
closed = 1;
nodes = (
"-151 -310 LINE",
"-113 -40 LINE",
"57 -40 LINE",
"272 1186 LINE",
"122 1186 LINE",
"160 1456 LINE",
"669 1456 LINE",
"358 -310 LINE"
);
}
);
width = 610;
}
);
leftKerningGroup = parens;
unicode = 005D;
},
{
glyphname = braceleft;
layers = (
{
layerId = "3F9F0E9B-02B5-40B1-9FD1-782180825A5D";
paths = (
{
closed = 1;
nodes = (
"129 -324 OFFCURVE",
"-9 -87 OFFCURVE",
"63 109 QCURVE SMOOTH",
"143 302 LINE SMOOTH",
"178 383 OFFCURVE",
"112 430 OFFCURVE",
"22 430 QCURVE",
"45 718 LINE",
"136 718 OFFCURVE",
"225 765 OFFCURVE",
"227 846 QCURVE SMOOTH",
"222 1039 LINE SMOOTH",
"205 1229 OFFCURVE",
"441 1466 OFFCURVE",
"795 1460 QCURVE",
"770 1193 LINE",
"671 1193 OFFCURVE",
"562 1093 OFFCURVE",
"560 995 QCURVE SMOOTH",
"566 814 LINE SMOOTH",
"570 730 OFFCURVE",
"489 604 OFFCURVE",
"395 574 QCURVE",
"480 544 OFFCURVE",
"516 418 OFFCURVE",
"481 334 QCURVE SMOOTH",
"401 153 LINE SMOOTH",
"360 55 OFFCURVE",
"410 -45 OFFCURVE",
"509 -45 QCURVE",
"483 -312 LINE"
);
}
);
width = 666;
}
);
rightKerningGroup = parens;
unicode = 007B;
},
{
glyphname = braceright;
layers = (
{
layerId = "3F9F0E9B-02B5-40B1-9FD1-782180825A5D";
paths = (
{
closed = 1;
nodes = (
"-121 -46 LINE",
"-23 -46 OFFCURVE",
"87 54 OFFCURVE",
"88 151 QCURVE SMOOTH",
"83 333 LINE SMOOTH",
"77 417 OFFCURVE",
"159 543 OFFCURVE",
"254 573 QCURVE",
"168 603 OFFCURVE",
"132 729 OFFCURVE",
"167 813 QCURVE SMOOTH",
"247 994 LINE SMOOTH",
"289 1092 OFFCURVE",
"238 1192 OFFCURVE",
"140 1192 QCURVE",
"166 1459 LINE",
"520 1471 OFFCURVE",
"659 1233 OFFCURVE",
"586 1038 QCURVE SMOOTH",
"506 845 LINE SMOOTH",
"471 764 OFFCURVE",
"536 717 OFFCURVE",
"627 717 QCURVE",
"603 428 LINE",
"513 428 OFFCURVE",
"424 381 OFFCURVE",
"421 301 QCURVE SMOOTH",
"426 107 LINE SMOOTH",
"443 -82 OFFCURVE",
"207 -319 OFFCURVE",
"-147 -313 QCURVE"
);
}
);
width = 666;
}
);
leftKerningGroup = parens;
unicode = 007D;
},
{
glyphname = leftanglebracket;
layers = (
{
layerId = "3F9F0E9B-02B5-40B1-9FD1-782180825A5D";
paths = (
{
closed = 1;
nodes = (
"-16 695 LINE",
"586 1499 LINE",
"747 1377 LINE",
"265 604 LINE",
"745 -184 LINE",
"586 -304 LINE",
"-16 506 LINE"
);
}
);
width = 749;
}
);
rightKerningGroup = parens;
unicode = 27E8;
},
{
glyphname = rightanglebracket;
layers = (
{
layerId = "3F9F0E9B-02B5-40B1-9FD1-782180825A5D";
paths = (
{
closed = 1;
nodes = (
"450 591 LINE",
"-30 1379 LINE",
"129 1499 LINE",
"731 689 LINE",
"731 500 LINE",
"129 -304 LINE",
"-32 -182 LINE"
);
}
);
width = 749;
}
);
leftKerningGroup = parens;
unicode = 27E9;
},
{
glyphname = numbersign;
layers = (
{
layerId = "3F9F0E9B-02B5-40B1-9FD1-782180825A5D";
paths = (
{
closed = 1;
nodes = (
"461 1469 LINE",
"766 1469 LINE",
"247 -13 LINE",
"-60 -13 LINE"
);
},
{
closed = 1;
nodes = (
"867 1469 LINE",
"1173 1469 LINE",
"653 -13 LINE",
"347 -13 LINE"
);
},
{
closed = 1;
nodes = (
"-3 594 LINE",
"1033 594 LINE",
"991 359 LINE",
"-45 359 LINE"
);
},
{
closed = 1;
nodes = (
"116 1096 LINE",
"1152 1096 LINE",
"1111 861 LINE",
"75 861 LINE"
);
}
);
width = 1119;
}
);
unicode = 0023;
},
{
glyphname = quotesingle;
layers = (
{
layerId = "3F9F0E9B-02B5-40B1-9FD1-782180825A5D";
paths = (
{
closed = 1;
nodes = (
"161 1284 LINE",
"192 1456 LINE",
"537 1456 LINE",
"506 1283 LINE",
"428 922 LINE",
"113 922 LINE"
);
}
);
width = 455;
}
);
leftKerningGroup = minute;
rightKerningGroup = minute;
unicode = 0027;
},
{
glyphname = quotedbl;
layers = (
{
layerId = "3F9F0E9B-02B5-40B1-9FD1-782180825A5D";
paths = (
{
closed = 1;
nodes = (
"161 1284 LINE",
"192 1456 LINE",
"540 1456 LINE",
"509 1284 LINE",
"430 922 LINE",
"115 922 LINE"
);
},
{
closed = 1;
nodes = (
"562 1284 LINE",
"593 1456 LINE",
"940 1456 LINE",
"909 1284 LINE",
"830 922 LINE",
"516 922 LINE"
);
}
);
width = 887;
}
);
leftKerningGroup = minute;
rightKerningGroup = minute;
unicode = 0022;
},
{
glyphname = quoteleft;
layers = (
{
layerId = "3F9F0E9B-02B5-40B1-9FD1-782180825A5D";
paths = (
{
closed = 1;
nodes = (
"10 1042 LINE SMOOTH",
"10 1203 OFFCURVE",
"164 1454 OFFCURVE",
"347 1574 QCURVE",
"586 1405 LINE",
"546 1355 OFFCURVE",
"510 1223 OFFCURVE",
"510 1125 QCURVE SMOOTH",
"510 864 LINE",
"10 864 LINE"
);
}
);
width = 576;
}
);
leftKerningGroup = minute;
rightKerningGroup = minute;
unicode = 2018;
},
{
glyphname = quoteright;
layers = (
{
layerId = "3F9F0E9B-02B5-40B1-9FD1-782180825A5D";
paths = (
{
closed = 1;
nodes = (
"566 1280 LINE SMOOTH",
"566 1119 OFFCURVE",
"412 868 OFFCURVE",
"229 748 QCURVE",
"-10 917 LINE",
"30 967 OFFCURVE",
"66 1099 OFFCURVE",
"66 1197 QCURVE SMOOTH",
"66 1458 LINE",
"566 1458 LINE"
);
}
);
width = 576;
}
);
leftKerningGroup = minute;
rightKerningGroup = minute;
unicode = 2019;
},
{
glyphname = quotedblleft;
layers = (
{
layerId = "3F9F0E9B-02B5-40B1-9FD1-782180825A5D";
paths = (
{
closed = 1;
nodes = (
"10 1065 LINE SMOOTH",
"10 1219 OFFCURVE",
"157 1459 OFFCURVE",
"332 1574 QCURVE",
"561 1412 LINE",
"522 1365 OFFCURVE",
"488 1238 OFFCURVE",
"488 1144 QCURVE SMOOTH",
"488 895 LINE",
"10 895 LINE"
);
},
{
closed = 1;
nodes = (
"508 1065 LINE SMOOTH",
"508 1219 OFFCURVE",
"655 1459 OFFCURVE",
"830 1574 QCURVE",
"1059 1412 LINE",
"1020 1365 OFFCURVE",
"986 1238 OFFCURVE",
"986 1144 QCURVE SMOOTH",
"986 895 LINE",
"508 895 LINE"
);
}
);
width = 1049;
}
);
leftKerningGroup = minute;
rightKerningGroup = minute;
unicode = 201C;
},
{
glyphname = quotedblright;
layers = (
{
layerId = "3F9F0E9B-02B5-40B1-9FD1-782180825A5D";
paths = (
{
closed = 1;
nodes = (
"541 1288 LINE SMOOTH",
"541 1134 OFFCURVE",
"394 894 OFFCURVE",
"219 779 QCURVE",
"-10 941 LINE",
"29 988 OFFCURVE",
"63 1115 OFFCURVE",
"63 1209 QCURVE SMOOTH",
"63 1458 LINE",
"541 1458 LINE"
);
},
{
closed = 1;
nodes = (
"1039 1288 LINE SMOOTH",
"1039 1134 OFFCURVE",
"892 894 OFFCURVE",
"717 779 QCURVE",
"488 941 LINE",
"527 988 OFFCURVE",
"561 1115 OFFCURVE",
"561 1209 QCURVE SMOOTH",
"561 1458 LINE",
"1039 1458 LINE"
);
}
);
width = 1049;
}
);
leftKerningGroup = minute;
rightKerningGroup = minute;
unicode = 201D;
},
{
glyphname = quotesinglbase;
layers = (
{
layerId = "3F9F0E9B-02B5-40B1-9FD1-782180825A5D";
paths = (
{
closed = 1;
nodes = (
"541 50 LINE SMOOTH",
"541 -104 OFFCURVE",
"394 -344 OFFCURVE",
"219 -459 QCURVE",
"-10 -297 LINE",
"29 -250 OFFCURVE",
"63 -123 OFFCURVE",
"63 -29 QCURVE SMOOTH",
"63 220 LINE",
"541 220 LINE"
);
}
);
width = 551;
}
);
leftKerningGroup = comma;
rightKerningGroup = comma;
unicode = 201A;
},
{
glyphname = quotedblbase;
layers = (
{
layerId = "3F9F0E9B-02B5-40B1-9FD1-782180825A5D";
paths = (
{
closed = 1;
nodes = (
"541 50 LINE SMOOTH",
"541 -104 OFFCURVE",
"394 -344 OFFCURVE",
"219 -459 QCURVE",
"-10 -297 LINE",
"29 -250 OFFCURVE",
"63 -123 OFFCURVE",
"63 -29 QCURVE SMOOTH",
"63 220 LINE",
"541 220 LINE"
);
},
{
closed = 1;
nodes = (
"1039 50 LINE SMOOTH",
"1039 -104 OFFCURVE",
"892 -344 OFFCURVE",
"717 -459 QCURVE",
"488 -297 LINE",
"527 -250 OFFCURVE",
"561 -123 OFFCURVE",
"561 -29 QCURVE SMOOTH",
"561 220 LINE",
"1039 220 LINE"
);
}
);
width = 1049;
}
);
leftKerningGroup = comma;
rightKerningGroup = comma;
unicode = 201E;
},
{
glyphname = guilsinglleft;
layers = (
{
guideLines = (
{
position = "{0, 901}";
},
{
position = "{0, 555}";
}
);
layerId = "3F9F0E9B-02B5-40B1-9FD1-782180825A5D";
paths = (
{
closed = 1;
nodes = (
"108 609 LINE",
"438 983 LINE",
"654 983 LINE",
"385 568 LINE",
"654 153 LINE",
"438 153 LINE",
"108 528 LINE"
);
}
);
width = 699;
}
);
leftKerningGroup = guillemotleft;
rightKerningGroup = guillemotleft;
unicode = 2039;
userData = {
com.typemytype.robofont.guideline.magnetic.Amp5Ormvx4 = 5;
com.typemytype.robofont.guideline.magnetic.JDX5vz3jKp = 5;
};
},
{
glyphname = guilsinglright;
layers = (
{
guideLines = (
{
position = "{0, 901}";
},
{
position = "{0, 555}";
}
);
layerId = "3F9F0E9B-02B5-40B1-9FD1-782180825A5D";
paths = (
{
closed = 1;
nodes = (
"314 568 LINE",
"45 983 LINE",
"262 983 LINE",
"591 609 LINE",
"591 528 LINE",
"262 153 LINE",
"45 153 LINE"
);
}
);
width = 699;
}
);
leftKerningGroup = guillemotright;
rightKerningGroup = guillemotright;
unicode = 203A;
userData = {
com.typemytype.robofont.guideline.magnetic.Amp5Ormvx4 = 5;
com.typemytype.robofont.guideline.magnetic.JDX5vz3jKp = 5;
};
},
{
glyphname = guillemotleft;
layers = (
{
guideLines = (
{
position = "{0, 901}";
},
{
position = "{0, 555}";
}
);
layerId = "3F9F0E9B-02B5-40B1-9FD1-782180825A5D";
paths = (
{
closed = 1;
nodes = (
"108 609 LINE",
"438 983 LINE",
"654 983 LINE",
"385 568 LINE",
"654 153 LINE",
"438 153 LINE",
"108 528 LINE"
);
},
{
closed = 1;
nodes = (
"567 609 LINE",
"896 983 LINE",
"1113 983 LINE",
"844 568 LINE",
"1113 153 LINE",
"896 153 LINE",
"567 528 LINE"
);
}
);
width = 1158;
}
);
leftKerningGroup = guillemotleft;
rightKerningGroup = guillemotleft;
unicode = 00AB;
userData = {
com.typemytype.robofont.guideline.magnetic.MVJpdoVRVd = 5;
com.typemytype.robofont.guideline.magnetic.ZftBQarVKw = 5;
};
},
{
glyphname = guillemotright;
layers = (
{
guideLines = (
{
position = "{0, 98}";
},
{
position = "{0, 443}";
}
);
layerId = "3F9F0E9B-02B5-40B1-9FD1-782180825A5D";
paths = (
{
closed = 1;
nodes = (
"314 568 LINE",
"45 983 LINE",
"262 983 LINE",
"591 609 LINE",
"591 528 LINE",
"262 153 LINE",
"45 153 LINE"
);
},
{
closed = 1;
nodes = (
"773 568 LINE",
"504 983 LINE",
"720 983 LINE",
"1050 609 LINE",
"1050 528 LINE",
"720 153 LINE",
"504 153 LINE"
);
}
);
width = 1158;
}
);
leftKerningGroup = guillemotright;
rightKerningGroup = guillemotright;
unicode = 00BB;
userData = {
com.typemytype.robofont.guideline.magnetic.G9bQni2n1K = 5;
com.typemytype.robofont.guideline.magnetic.MTEldNnfdj = 5;
};
},
{
glyphname = asterisk;
layers = (
{
layerId = "3F9F0E9B-02B5-40B1-9FD1-782180825A5D";
paths = (
{
closed = 1;
nodes = (
"199 1333 LINE",
"329 1237 LINE",
"343 1476 LINE",
"656 1476 LINE",
"567 1237 LINE",
"771 1333 LINE",
"818 1053 LINE",
"616 1008 LINE",
"726 815 LINE",
"471 650 LINE",
"413 865 LINE",
"278 650 LINE",
"63 815 LINE",
"240 1008 LINE",
"53 1052 LINE"
);
}
);
width = 768;
}
);
unicode = 002A;
},
{
glyphname = dagger;
layers = (
{
layerId = "3F9F0E9B-02B5-40B1-9FD1-782180825A5D";
paths = (
{
closed = 1;
nodes = (
"462 8 LINE",
"483 748 LINE",
"483 812 LINE",
"72 812 LINE",
"72 1065 LINE",
"479 1065 LINE",
"466 1558 LINE",
"737 1558 LINE",
"724 1065 LINE",
"1131 1065 LINE",
"1131 812 LINE",
"720 812 LINE",
"720 748 LINE",
"741 8 LINE",
"737 -274 LINE",
"638 -470 OFFCURVE",
"566 -472 OFFCURVE",
"466 -274 QCURVE"
);
}
);
width = 1213;
}
);
unicode = 2020;
},
{
glyphname = daggerdbl;
layers = (
{
layerId = "3F9F0E9B-02B5-40B1-9FD1-782180825A5D";
paths = (
{
closed = 1;
nodes = (
"82 240 LINE",
"479 240 LINE",
"459 534 LINE",
"474 818 LINE",
"82 818 LINE",
"82 1059 LINE",
"460 1059 LINE",
"457 1508 LINE",
"746 1508 LINE",
"743 1059 LINE",
"1121 1059 LINE",
"1121 818 LINE",
"729 818 LINE",
"744 534 LINE",
"724 240 LINE",
"1121 240 LINE",
"1121 1 LINE",
"738 1 LINE",
"741 -452 LINE",
"462 -452 LINE",
"465 1 LINE",
"82 1 LINE"
);
}
);
width = 1008;
}
);
unicode = 2021;
},
{
glyphname = period;
layers = (
{
layerId = "3F9F0E9B-02B5-40B1-9FD1-782180825A5D";
paths = (
{
closed = 1;
nodes = (
"-64 351 OFFCURVE",
"85 498 OFFCURVE",
"219 499 QCURVE SMOOTH",
"352 500 OFFCURVE",
"486 353 OFFCURVE",
"480 243 QCURVE SMOOTH",
"476 133 OFFCURVE",
"326 -15 OFFCURVE",
"193 -16 QCURVE SMOOTH",
"60 -17 OFFCURVE",
"-74 134 OFFCURVE",
"-69 242 QCURVE SMOOTH"
);
}
);
width = 613;
}
);
leftKerningGroup = comma;
rightKerningGroup = comma;
unicode = 002E;
},
{
glyphname = comma;
layers = (
{
layerId = "3F9F0E9B-02B5-40B1-9FD1-782180825A5D";
paths = (
{
closed = 1;
nodes = (
"-127 -88 OFFCURVE",
"-72 39 OFFCURVE",
"-61 100 QCURVE SMOOTH",
"8 496 LINE",
"471 496 LINE",
"402 104 LINE SMOOTH",
"388 24 OFFCURVE",
"306 -138 OFFCURVE",
"251 -183 QCURVE",
"-174 -145 LINE"
);
}
);
width = 538;
}
);
leftKerningGroup = comma;
rightKerningGroup = comma;
unicode = 002C;
},
{
glyphname = colon;
layers = (
{
layerId = "3F9F0E9B-02B5-40B1-9FD1-782180825A5D";
paths = (
{
closed = 1;
nodes = (
"-11 271 OFFCURVE",
"100 386 OFFCURVE",
"201 386 QCURVE SMOOTH",
"303 386 OFFCURVE",
"411 271 OFFCURVE",
"410 185 QCURVE SMOOTH",
"410 97 OFFCURVE",
"298 -17 OFFCURVE",
"197 -17 QCURVE SMOOTH",
"95 -17 OFFCURVE",
"-12 101 OFFCURVE",
"-11 187 QCURVE SMOOTH"
);
},
{
closed = 1;
nodes = (
"109 817 OFFCURVE",
"229 933 OFFCURVE",
"330 933 QCURVE SMOOTH",
"424 933 OFFCURVE",
"530 817 OFFCURVE",
"530 732 QCURVE SMOOTH",
"529 644 OFFCURVE",
"418 529 OFFCURVE",
"316 529 QCURVE SMOOTH",
"215 529 OFFCURVE",
"107 648 OFFCURVE",
"108 733 QCURVE SMOOTH"
);
}
);
width = 620;
}
);
leftKerningGroup = colon;
rightKerningGroup = colon;
unicode = 003A;
},
{
glyphname = semicolon;
layers = (
{
layerId = "3F9F0E9B-02B5-40B1-9FD1-782180825A5D";
paths = (
{
closed = 1;
nodes = (
"-96 -96 OFFCURVE",
"-45 12 OFFCURVE",
"-32 73 QCURVE SMOOTH",
"30 364 LINE",
"400 364 LINE",
"337 76 LINE SMOOTH",
"321 1 OFFCURVE",
"259 -141 OFFCURVE",
"209 -182 QCURVE",
"-139 -146 LINE"
);
},
{
closed = 1;
nodes = (
"89 817 OFFCURVE",
"199 933 OFFCURVE",
"301 933 QCURVE SMOOTH",
"402 933 OFFCURVE",
"510 817 OFFCURVE",
"510 732 QCURVE SMOOTH",
"509 644 OFFCURVE",
"398 529 OFFCURVE",
"296 529 QCURVE SMOOTH",
"195 529 OFFCURVE",
"87 648 OFFCURVE",
"88 733 QCURVE SMOOTH"
);
}
);
width = 620;
}
);
leftKerningGroup = colon;
rightKerningGroup = colon;
unicode = 003B;
},
{
glyphname = exclam;
layers = (
{
layerId = "3F9F0E9B-02B5-40B1-9FD1-782180825A5D";
paths = (
{
closed = 1;
nodes = (
"-42 314 OFFCURVE",
"97 449 OFFCURVE",
"220 449 QCURVE SMOOTH",
"346 449 OFFCURVE",
"473 313 OFFCURVE",
"469 218 QCURVE SMOOTH",
"465 124 OFFCURVE",
"326 -10 OFFCURVE",
"202 -10 QCURVE SMOOTH",
"76 -10 OFFCURVE",
"-50 126 OFFCURVE",
"-46 220 QCURVE SMOOTH"
);
},
{
closed = 1;
nodes = (
"173 1456 LINE",
"675 1456 LINE",
"493 495 LINE",
"16 495 LINE"
);
}
);
width = 584;
}
);
unicode = 0021;
},
{
glyphname = exclamdown;
layers = (
{
layerId = "3F9F0E9B-02B5-40B1-9FD1-782180825A5D";
paths = (
{
closed = 1;
nodes = (
"518 960 OFFCURVE",
"432 872 OFFCURVE",
"351 872 QCURVE SMOOTH",
"271 872 OFFCURVE",
"186 960 OFFCURVE",
"186 1022 QCURVE SMOOTH",
"186 1084 OFFCURVE",
"272 1172 OFFCURVE",
"352 1172 QCURVE SMOOTH",
"432 1172 OFFCURVE",
"518 1084 OFFCURVE",
"518 1022 QCURVE SMOOTH"
);
},
{
closed = 1;
nodes = (
"491 -306 LINE",
"214 -306 LINE",
"234 724 LINE",
"470 724 LINE"
);
}
);
width = 704;
}
);
unicode = 00A1;
},
{
glyphname = question;
layers = (
{
layerId = "3F9F0E9B-02B5-40B1-9FD1-782180825A5D";
paths = (
{
closed = 1;
nodes = (
"105 278 OFFCURVE",
"231 401 OFFCURVE",
"343 401 QCURVE SMOOTH",
"454 401 OFFCURVE",
"567 278 OFFCURVE",
"562 191 QCURVE SMOOTH",
"556 105 OFFCURVE",
"431 -18 OFFCURVE",
"320 -18 QCURVE SMOOTH",
"210 -18 OFFCURVE",
"95 106 OFFCURVE",
"100 191 QCURVE SMOOTH"
);
},
{
closed = 1;
nodes = (
"77 1142 LINE SMOOTH",
"101 1297 OFFCURVE",
"351 1482 OFFCURVE",
"559 1482 QCURVE SMOOTH",
"794 1482 OFFCURVE",
"973 1297 OFFCURVE",
"950 1128 QCURVE SMOOTH",
"929 973 OFFCURVE",
"819 835 OFFCURVE",
"723 760 QCURVE SMOOTH",
"627 685 OFFCURVE",
"568 615 OFFCURVE",
"558 559 QCURVE SMOOTH",
"539 425 LINE",
"155 425 LINE",
"175 572 LINE SMOOTH",
"189 672 OFFCURVE",
"275 814 OFFCURVE",
"360 887 QCURVE SMOOTH",
"463 975 OFFCURVE",
"480 999 OFFCURVE",
"496 1092 QCURVE SMOOTH",
"506 1150 OFFCURVE",
"508 1179 OFFCURVE",
"496 1179 QCURVE SMOOTH",
"481 1179 OFFCURVE",
"470 1141 OFFCURVE",
"462 1100 QCURVE SMOOTH",
"439 987 LINE",
"53 987 LINE"
);
}
);
width = 879;
}
);
unicode = 003F;
},
{
glyphname = questiondown;
layers = (
{
guideLines = (
{
position = "{0, -181}";
},
{
position = "{0, 921}";
}
);
layerId = "3F9F0E9B-02B5-40B1-9FD1-782180825A5D";
paths = (
{
closed = 1;
nodes = (
"750 958 OFFCURVE",
"664 870 OFFCURVE",
"584 870 QCURVE SMOOTH",
"504 870 OFFCURVE",
"418 958 OFFCURVE",
"418 1020 QCURVE SMOOTH",
"418 1082 OFFCURVE",
"504 1170 OFFCURVE",
"584 1170 QCURVE SMOOTH",
"665 1170 OFFCURVE",
"750 1082 OFFCURVE",
"750 1020 QCURVE SMOOTH"
);
},
{
closed = 1;
nodes = (
"1068 26 LINE SMOOTH",
"1068 -133 OFFCURVE",
"801 -328 OFFCURVE",
"569 -328 QCURVE SMOOTH",
"337 -328 OFFCURVE",
"76 -106 OFFCURVE",
"76 87 QCURVE SMOOTH",
"76 212 OFFCURVE",
"292 462 OFFCURVE",
"352 493 QCURVE SMOOTH",
"440 554 OFFCURVE",
"470 668 OFFCURVE",
"470 733 QCURVE SMOOTH",
"470 743 LINE",
"729 743 LINE",
"729 733 LINE SMOOTH",
"729 597 OFFCURVE",
"678 477 OFFCURVE",
"567 380 QCURVE SMOOTH",
"480 305 OFFCURVE",
"337 174 OFFCURVE",
"337 87 QCURVE SMOOTH",
"337 -5 OFFCURVE",
"452 -97 OFFCURVE",
"570 -97 QCURVE SMOOTH",
"687 -97 OFFCURVE",
"809 -33 OFFCURVE",
"809 26 QCURVE SMOOTH",
"809 44 LINE",
"1068 44 LINE"
);
}
);
width = 1113;
}
);
unicode = 00BF;
userData = {
com.typemytype.robofont.guideline.magnetic.5ZPZZL8Rim = 5;
com.typemytype.robofont.guideline.magnetic.apukwP5ffL = 5;
};
},
{
glyphname = slash;
layers = (
{
layerId = "3F9F0E9B-02B5-40B1-9FD1-782180825A5D";
paths = (
{
closed = 1;
nodes = (
"422 1456 LINE",
"879 1456 LINE",
"300 -47 LINE",
"-156 -47 LINE"
);
}
);
width = 766;
}
);
unicode = 002F;
},
{
glyphname = backslash;
layers = (
{
layerId = "3F9F0E9B-02B5-40B1-9FD1-782180825A5D";
paths = (
{
closed = 1;
nodes = (
"481 1456 LINE",
"567 -72 LINE",
"241 -72 LINE",
"154 1456 LINE"
);
}
);
width = 686;
}
);
unicode = 005C;
},
{
glyphname = fraction;
layers = (
{
guideLines = (
{
position = "{0, 901}";
},
{
position = "{0, 555}";
}
);
layerId = "3F9F0E9B-02B5-40B1-9FD1-782180825A5D";
paths = (
{
closed = 1;
nodes = (
"-113 -18 LINE",
"-328 115 LINE",
"442 1474 LINE",
"665 1345 LINE"
);
}
);
width = 342;
}
);
unicode = 2044;
userData = {
com.typemytype.robofont.guideline.magnetic.0lx51aIE0d = 5;
com.typemytype.robofont.guideline.magnetic.tcCoNUQTdD = 5;
};
},
{
glyphname = bar;
layers = (
{
layerId = "3F9F0E9B-02B5-40B1-9FD1-782180825A5D";
paths = (
{
closed = 1;
nodes = (
"213 1456 LINE",
"601 1456 LINE",
"257 -416 LINE",
"-132 -416 LINE"
);
}
);
width = 536;
}
);
unicode = 007C;
},
{
glyphname = brokenbar;
layers = (
{
guideLines = (
{
position = "{0, 901}";
},
{
position = "{0, 555}";
}
);
layerId = "3F9F0E9B-02B5-40B1-9FD1-782180825A5D";
paths = (
{
closed = 1;
nodes = (
"205 -416 LINE",
"205 359 LINE",
"459 359 LINE",
"459 -416 LINE"
);
},
{
closed = 1;
nodes = (
"459 761 LINE",
"205 761 LINE",
"205 1536 LINE",
"459 1536 LINE"
);
}
);
width = 664;
}
);
unicode = 00A6;
userData = {
com.typemytype.robofont.guideline.magnetic.Z0RZpP7MTi = 5;
com.typemytype.robofont.guideline.magnetic.jmguX8NWKI = 5;
};
},
{
glyphname = at;
layers = (
{
layerId = "3F9F0E9B-02B5-40B1-9FD1-782180825A5D";
paths = (
{
closed = 1;
nodes = (
"351 786 OFFCURVE",
"598 1102 OFFCURVE",
"760 1102 QCURVE SMOOTH",
"826 1102 OFFCURVE",
"910 1053 OFFCURVE",
"935 1018 QCURVE",
"1139 1018 LINE",
"1029 513 LINE SMOOTH",
"1016 453 OFFCURVE",
"1012 408 OFFCURVE",
"1031 408 QCURVE SMOOTH",
"1056 408 OFFCURVE",
"1082 453 OFFCURVE",
"1121 608 QCURVE SMOOTH",
"1207 951 OFFCURVE",
"1038 1239 OFFCURVE",
"823 1239 QCURVE SMOOTH",
"599 1239 OFFCURVE",
"333 891 OFFCURVE",
"282 570 QCURVE SMOOTH",
"235 272 OFFCURVE",
"362 -7 OFFCURVE",
"524 -7 QCURVE SMOOTH",
"606 -7 OFFCURVE",
"723 25 OFFCURVE",
"766 52 QCURVE",
"762 -178 LINE",
"719 -218 OFFCURVE",
"602 -256 OFFCURVE",
"484 -256 QCURVE SMOOTH",
"209 -256 OFFCURVE",
"-64 168 OFFCURVE",
"2 613 QCURVE SMOOTH",
"52 953 OFFCURVE",
"496 1496 OFFCURVE",
"836 1496 QCURVE SMOOTH",
"1128 1496 OFFCURVE",
"1454 1123 OFFCURVE",
"1392 742 QCURVE SMOOTH",
"1349 475 OFFCURVE",
"1131 149 OFFCURVE",
"957 149 QCURVE SMOOTH",
"854 149 OFFCURVE",
"746 226 OFFCURVE",
"727 301 QCURVE",
"685 227 OFFCURVE",
"576 149 OFFCURVE",
"494 149 QCURVE SMOOTH",
"410 149 OFFCURVE",
"279 319 OFFCURVE",
"316 560 QCURVE SMOOTH"
);
},
{
closed = 1;
nodes = (
"643 440 OFFCURVE",
"641 401 OFFCURVE",
"659 401 QCURVE SMOOTH",
"676 401 OFFCURVE",
"697 446 OFFCURVE",
"712 512 QCURVE SMOOTH",
"801 859 LINE",
"802 869 OFFCURVE",
"792 882 OFFCURVE",
"782 882 QCURVE SMOOTH",
"761 882 OFFCURVE",
"741 819 OFFCURVE",
"665 524 QCURVE SMOOTH"
);
}
);
width = 1403;
}
);
unicode = 0040;
},
{
glyphname = ampersand;
layers = (
{
layerId = "3F9F0E9B-02B5-40B1-9FD1-782180825A5D";
paths = (
{
closed = 1;
nodes = (
"-19 528 OFFCURVE",
"169 733 OFFCURVE",
"318 833 QCURVE SMOOTH",
"451 919 LINE SMOOTH",
"536 974 OFFCURVE",
"596 1111 OFFCURVE",
"611 1185 QCURVE SMOOTH",
"621 1233 OFFCURVE",
"621 1271 OFFCURVE",
"601 1271 QCURVE SMOOTH",
"585 1271 OFFCURVE",
"567 1235 OFFCURVE",
"559 1185 QCURVE SMOOTH",
"545 1096 OFFCURVE",
"583 926 OFFCURVE",
"627 828 QCURVE SMOOTH",
"999 0 LINE",
"614 0 LINE",
"288 730 LINE SMOOTH",
"236 846 OFFCURVE",
"180 1056 OFFCURVE",
"203 1184 QCURVE SMOOTH",
"226 1316 OFFCURVE",
"451 1486 OFFCURVE",
"650 1486 QCURVE SMOOTH",
"829 1486 OFFCURVE",
"982 1310 OFFCURVE",
"959 1166 QCURVE SMOOTH",
"938 1037 OFFCURVE",
"773 854 OFFCURVE",
"651 765 QCURVE SMOOTH",
"540 684 LINE SMOOTH",
"435 608 OFFCURVE",
"365 478 OFFCURVE",
"349 388 QCURVE SMOOTH",
"336 311 OFFCURVE",
"384 233 OFFCURVE",
"462 233 QCURVE SMOOTH",
"559 233 OFFCURVE",
"713 430 OFFCURVE",
"783 727 QCURVE",
"1125 727 LINE",
"1068 402 OFFCURVE",
"589 -20 OFFCURVE",
"317 -20 QCURVE SMOOTH",
"104 -20 OFFCURVE",
"-72 198 OFFCURVE",
"-44 373 QCURVE SMOOTH"
);
}
);
width = 1147;
}
);
unicode = 0026;
},
{
glyphname = section;
layers = (
{
guideLines = (
{
position = "{0, 1658}";
},
{
position = "{0, 578}";
}
);
layerId = "3F9F0E9B-02B5-40B1-9FD1-782180825A5D";
paths = (
{
closed = 1;
nodes = (
"669 266 LINE",
"772 265 OFFCURVE",
"926 380 OFFCURVE",
"926 453 QCURVE",
"926 530 OFFCURVE",
"784 633 OFFCURVE",
"618 694 QCURVE SMOOTH",
"428 751 OFFCURVE",
"163 879 OFFCURVE",
"163 1100 QCURVE SMOOTH",
"163 1306 OFFCURVE",
"411 1489 OFFCURVE",
"632 1491 QCURVE SMOOTH",
"842 1493 OFFCURVE",
"1074 1281 OFFCURVE",
"1072 1070 QCURVE",
"852 1070 LINE",
"854 1140 OFFCURVE",
"738 1273 OFFCURVE",
"632 1273 QCURVE SMOOTH",
"498 1273 OFFCURVE",
"386 1204 OFFCURVE",
"386 1119 QCURVE SMOOTH",
"386 1042 OFFCURVE",
"514 990 OFFCURVE",
"716 926 QCURVE SMOOTH",
"888 873 OFFCURVE",
"1178 683 OFFCURVE",
"1178 480 QCURVE SMOOTH",
"1178 294 OFFCURVE",
"862 115 OFFCURVE",
"669 119 QCURVE"
);
},
{
closed = 1;
nodes = (
"550 706 LINE",
"446 706 OFFCURVE",
"336 616 OFFCURVE",
"336 551 QCURVE SMOOTH",
"336 511 OFFCURVE",
"467 423 OFFCURVE",
"647 352 QCURVE SMOOTH",
"803 289 OFFCURVE",
"1091 114 OFFCURVE",
"1091 -88 QCURVE SMOOTH",
"1091 -291 OFFCURVE",
"809 -509 OFFCURVE",
"612 -509 QCURVE SMOOTH",
"416 -509 OFFCURVE",
"112 -298 OFFCURVE",
"112 -39 QCURVE",
"330 -37 LINE",
"330 -195 OFFCURVE",
"549 -297 OFFCURVE",
"612 -297 QCURVE SMOOTH",
"696 -297 OFFCURVE",
"873 -224 OFFCURVE",
"873 -131 QCURVE SMOOTH",
"873 -46 OFFCURVE",
"721 73 OFFCURVE",
"513 140 QCURVE SMOOTH",
"339 195 OFFCURVE",
"81 414 OFFCURVE",
"81 574 QCURVE SMOOTH",
"81 743 OFFCURVE",
"388 902 OFFCURVE",
"552 902 QCURVE"
);
}
);
width = 1270;
}
);
unicode = 00A7;
userData = {
com.typemytype.robofont.guideline.magnetic.9Hxjf2sdFw = 5;
com.typemytype.robofont.guideline.magnetic.QzZ5gIiCyn = 5;
};
},
{
glyphname = paragraph;
layers = (
{
guideLines = (
{
position = "{0, 901}";
},
{
position = "{0, 555}";
}
);
layerId = "3F9F0E9B-02B5-40B1-9FD1-782180825A5D";
paths = (
{
closed = 1;
nodes = (
"643 -146 LINE",
"643 547 LINE",
"539 547 LINE SMOOTH",
"306 547 OFFCURVE",
"56 805 OFFCURVE",
"56 1002 QCURVE SMOOTH",
"56 1195 OFFCURVE",
"306 1456 OFFCURVE",
"539 1456 QCURVE SMOOTH",
"905 1456 LINE",
"905 -146 LINE"
);
},
{
closed = 1;
nodes = (
"1312 1459 LINE",
"1312 -146 LINE",
"1047 -146 LINE",
"1047 1459 LINE"
);
}
);
width = 1605;
}
);
unicode = 00B6;
userData = {
com.typemytype.robofont.guideline.magnetic.27539Lsr1A = 5;
com.typemytype.robofont.guideline.magnetic.e34wUdCmXR = 5;
};
},
{
glyphname = numero;
layers = (
{
layerId = "3F9F0E9B-02B5-40B1-9FD1-782180825A5D";
paths = (
{
closed = 1;
nodes = (
"210 1456 LINE",
"475 1456 LINE",
"1066 545 LINE SMOOTH",
"1085 517 OFFCURVE",
"1132 461 OFFCURVE",
"1147 442 QCURVE",
"1162 442 LINE",
"1156 468 OFFCURVE",
"1153 545 OFFCURVE",
"1153 571 QCURVE SMOOTH",
"1153 1456 LINE",
"1406 1456 LINE",
"1406 0 LINE",
"1133 0 LINE",
"530 879 LINE SMOOTH",
"508 911 OFFCURVE",
"482 963 OFFCURVE",
"477 986 QCURVE",
"462 986 LINE",
"468 960 OFFCURVE",
"469 888 OFFCURVE",
"469 863 QCURVE SMOOTH",
"469 0 LINE",
"210 0 LINE"
);
},
{
closed = 1;
nodes = (
"1516 1015 LINE SMOOTH",
"1516 1212 OFFCURVE",
"1773 1473 OFFCURVE",
"1980 1473 QCURVE SMOOTH",
"2186 1473 OFFCURVE",
"2446 1212 OFFCURVE",
"2446 1015 QCURVE SMOOTH",
"2446 992 LINE SMOOTH",
"2446 797 OFFCURVE",
"2210 539 OFFCURVE",
"1980 539 QCURVE SMOOTH",
"1750 539 OFFCURVE",
"1516 797 OFFCURVE",
"1516 992 QCURVE SMOOTH"
);
},
{
closed = 1;
nodes = (
"1802 990 LINE SMOOTH",
"1802 893 OFFCURVE",
"1884 761 OFFCURVE",
"1981 761 QCURVE SMOOTH",
"2076 761 OFFCURVE",
"2160 893 OFFCURVE",
"2160 989 QCURVE SMOOTH",
"2160 1010 LINE SMOOTH",
"2160 1106 OFFCURVE",
"2074 1242 OFFCURVE",
"1981 1242 QCURVE SMOOTH",
"1886 1242 OFFCURVE",
"1802 1106 OFFCURVE",
"1802 1010 QCURVE SMOOTH"
);
},
{
closed = 1;
nodes = (
"1583 491 LINE",
"2376 491 LINE",
"2376 232 LINE",
"1583 232 LINE"
);
}
);
width = 2574;
}
);
unicode = 2116;
},
{
glyphname = periodcentered;
layers = (
{
layerId = "3F9F0E9B-02B5-40B1-9FD1-782180825A5D";
paths = (
{
closed = 1;
nodes = (
"176 798 OFFCURVE",
"240 868 OFFCURVE",
"300 868 QCURVE SMOOTH",
"360 868 OFFCURVE",
"424 798 OFFCURVE",
"424 749 QCURVE SMOOTH",
"424 700 OFFCURVE",
"360 630 OFFCURVE",
"300 630 QCURVE SMOOTH",
"240 630 OFFCURVE",
"176 700 OFFCURVE",
"176 749 QCURVE SMOOTH"
);
}
);
width = 600;
}
);
unicode = 00B7;
},
{
glyphname = bullet;
layers = (
{
layerId = "3F9F0E9B-02B5-40B1-9FD1-782180825A5D";
paths = (
{
closed = 1;
nodes = (
"28 936 OFFCURVE",
"256 1178 OFFCURVE",
"434 1178 QCURVE SMOOTH",
"612 1178 OFFCURVE",
"840 936 OFFCURVE",
"840 773 QCURVE SMOOTH",
"840 612 OFFCURVE",
"612 370 OFFCURVE",
"434 370 QCURVE SMOOTH",
"256 370 OFFCURVE",
"28 612 OFFCURVE",
"28 773 QCURVE SMOOTH"
);
}
);
width = 868;
}
);
unicode = 2022;
},
{
glyphname = minute;
layers = (
{
layerId = "3F9F0E9B-02B5-40B1-9FD1-782180825A5D";
paths = (
{
closed = 1;
nodes = (
"395 1559 LINE",
"662 1411 LINE",
"293 846 LINE",
"100 964 LINE"
);
}
);
width = 694;
}
);
leftKerningGroup = minute;
rightKerningGroup = minute;
unicode = 2032;
},
{
glyphname = second;
layers = (
{
layerId = "3F9F0E9B-02B5-40B1-9FD1-782180825A5D";
paths = (
{
closed = 1;
nodes = (
"395 1559 LINE",
"662 1411 LINE",
"293 846 LINE",
"100 964 LINE"
);
},
{
closed = 1;
nodes = (
"795 1559 LINE",
"1062 1411 LINE",
"693 846 LINE",
"500 964 LINE"
);
}
);
width = 1094;
}
);
leftKerningGroup = minute;
rightKerningGroup = minute;
unicode = 2033;
},
{
glyphname = plus;
layers = (
{
layerId = "3F9F0E9B-02B5-40B1-9FD1-782180825A5D";
paths = (
{
closed = 1;
nodes = (
"30 842 LINE",
"751 842 LINE",
"692 506 LINE",
"-29 506 LINE"
);
},
{
closed = 1;
nodes = (
"274 1130 LINE",
"609 1130 LINE",
"448 218 LINE",
"113 218 LINE"
);
}
);
width = 753;
}
);
unicode = 002B;
},
{
glyphname = minus;
layers = (
{
layerId = "3F9F0E9B-02B5-40B1-9FD1-782180825A5D";
paths = (
{
closed = 1;
nodes = (
"57 768 LINE",
"967 768 LINE",
"967 588 LINE",
"57 588 LINE"
);
}
);
width = 1024;
}
);
unicode = 2212;
},
{
glyphname = plusminus;
layers = (
{
layerId = "3F9F0E9B-02B5-40B1-9FD1-782180825A5D";
paths = (
{
closed = 1;
nodes = (
"31 828 LINE",
"989 828 LINE",
"989 596 LINE",
"31 596 LINE"
);
},
{
closed = 1;
nodes = (
"384 1180 LINE",
"636 1180 LINE",
"636 288 LINE",
"384 288 LINE"
);
},
{
closed = 1;
nodes = (
"37 232 LINE",
"987 232 LINE",
"987 1 LINE",
"37 1 LINE"
);
}
);
width = 1024;
}
);
unicode = 00B1;
},
{
glyphname = divide;
layers = (
{
layerId = "3F9F0E9B-02B5-40B1-9FD1-782180825A5D";
paths = (
{
closed = 1;
nodes = (
"271 1175 OFFCURVE",
"355 1267 OFFCURVE",
"438 1267 QCURVE SMOOTH",
"519 1267 OFFCURVE",
"606 1175 OFFCURVE",
"606 1105 QCURVE SMOOTH",
"606 1037 OFFCURVE",
"519 946 OFFCURVE",
"438 946 QCURVE SMOOTH",
"355 946 OFFCURVE",
"271 1037 OFFCURVE",
"271 1105 QCURVE SMOOTH"
);
},
{
closed = 1;
nodes = (
"271 324 OFFCURVE",
"355 418 OFFCURVE",
"438 418 QCURVE SMOOTH",
"519 418 OFFCURVE",
"606 324 OFFCURVE",
"606 256 QCURVE SMOOTH",
"606 188 OFFCURVE",
"519 95 OFFCURVE",
"438 95 QCURVE SMOOTH",
"355 95 OFFCURVE",
"271 188 OFFCURVE",
"271 256 QCURVE SMOOTH"
);
},
{
closed = 1;
nodes = (
"-40 814 LINE",
"918 814 LINE",
"918 550 LINE",
"-40 550 LINE"
);
}
);
width = 878;
}
);
unicode = 00F7;
},
{
glyphname = multiply;
layers = (
{
layerId = "3F9F0E9B-02B5-40B1-9FD1-782180825A5D";
paths = (
{
closed = 1;
nodes = (
"22 321 LINE",
"839 1172 LINE",
"980 1021 LINE",
"163 172 LINE"
);
},
{
closed = 1;
nodes = (
"28 999 LINE",
"191 1172 LINE",
"986 343 LINE",
"823 172 LINE"
);
}
);
width = 1024;
}
);
unicode = 00D7;
},
{
glyphname = equal;
layers = (
{
layerId = "3F9F0E9B-02B5-40B1-9FD1-782180825A5D";
paths = (
{
closed = 1;
nodes = (
"-1 643 LINE",
"666 643 LINE",
"636 307 LINE",
"-31 307 LINE"
);
},
{
closed = 1;
nodes = (
"69 1048 LINE",
"736 1048 LINE",
"706 712 LINE",
"39 712 LINE"
);
}
);
width = 732;
}
);
unicode = 003D;
},
{
glyphname = less;
layers = (
{
layerId = "3F9F0E9B-02B5-40B1-9FD1-782180825A5D";
paths = (
{
closed = 1;
nodes = (
"-20 516 LINE",
"49 832 LINE",
"662 1201 LINE",
"595 838 LINE",
"282 667 LINE",
"537 492 LINE",
"472 149 LINE"
);
}
);
width = 605;
}
);
unicode = 003C;
},
{
glyphname = greater;
layers = (
{
layerId = "3F9F0E9B-02B5-40B1-9FD1-782180825A5D";
paths = (
{
closed = 1;
nodes = (
"-13 512 LINE",
"300 683 LINE",
"45 858 LINE",
"110 1201 LINE",
"602 834 LINE",
"533 518 LINE",
"-80 149 LINE"
);
}
);
width = 606;
}
);
unicode = 003E;
},
{
glyphname = lessequal;
layers = (
{
layerId = "3F9F0E9B-02B5-40B1-9FD1-782180825A5D";
paths = (
{
closed = 1;
nodes = (
"25 572 LINE",
"25 776 LINE",
"860 1088 LINE",
"860 801 LINE",
"357 684 LINE",
"860 567 LINE",
"860 260 LINE"
);
},
{
closed = 1;
nodes = (
"-16 242 LINE",
"914 242 LINE",
"914 1 LINE",
"-16 1 LINE"
);
}
);
width = 909;
}
);
unicode = 2264;
},
{
glyphname = greaterequal;
layers = (
{
layerId = "3F9F0E9B-02B5-40B1-9FD1-782180825A5D";
paths = (
{
closed = 1;
nodes = (
"49 567 LINE",
"552 684 LINE",
"49 801 LINE",
"49 1088 LINE",
"884 776 LINE",
"884 572 LINE",
"49 260 LINE"
);
},
{
closed = 1;
nodes = (
"-6 1 LINE",
"-6 242 LINE",
"924 242 LINE",
"924 1 LINE"
);
}
);
width = 909;
}
);
unicode = 2265;
},
{
glyphname = approxequal;
layers = (
{
layerId = "3F9F0E9B-02B5-40B1-9FD1-782180825A5D";
paths = (
{
closed = 1;
nodes = (
"46 936 LINE",
"93 987 OFFCURVE",
"225 1045 OFFCURVE",
"290 1046 QCURVE SMOOTH",
"369 1047 OFFCURVE",
"461 1004 OFFCURVE",
"524 973 QCURVE SMOOTH",
"583 943 OFFCURVE",
"668 903 OFFCURVE",
"742 903 QCURVE SMOOTH",
"807 903 OFFCURVE",
"932 971 OFFCURVE",
"979 1031 QCURVE",
"979 762 LINE",
"932 711 OFFCURVE",
"808 653 OFFCURVE",
"743 653 QCURVE SMOOTH",
"669 653 OFFCURVE",
"584 692 OFFCURVE",
"525 722 QCURVE SMOOTH",
"462 753 OFFCURVE",
"369 795 OFFCURVE",
"290 795 QCURVE SMOOTH",
"225 795 OFFCURVE",
"93 727 OFFCURVE",
"46 667 QCURVE"
);
},
{
closed = 1;
nodes = (
"45 519 LINE",
"92 570 OFFCURVE",
"224 627 OFFCURVE",
"289 628 QCURVE SMOOTH",
"368 629 OFFCURVE",
"460 586 OFFCURVE",
"523 555 QCURVE SMOOTH",
"582 525 OFFCURVE",
"667 486 OFFCURVE",
"741 486 QCURVE SMOOTH",
"806 486 OFFCURVE",
"931 554 OFFCURVE",
"978 614 QCURVE",
"978 344 LINE",
"931 293 OFFCURVE",
"807 235 OFFCURVE",
"742 235 QCURVE SMOOTH",
"668 235 OFFCURVE",
"583 274 OFFCURVE",
"524 304 QCURVE SMOOTH",
"461 335 OFFCURVE",
"368 377 OFFCURVE",
"289 377 QCURVE SMOOTH",
"224 377 OFFCURVE",
"92 310 OFFCURVE",
"45 250 QCURVE"
);
}
);
width = 1024;
}
);
unicode = 2248;
},
{
glyphname = notequal;
layers = (
{
layerId = "3F9F0E9B-02B5-40B1-9FD1-782180825A5D";
paths = (
{
closed = 1;
nodes = (
"689 861 LINE",
"652 832 LINE",
"438 461 LINE",
"444 437 LINE",
"210 31 LINE",
"5 151 LINE",
"175 447 LINE",
"208 469 LINE",
"415 828 LINE",
"416 864 LINE",
"689 1344 LINE",
"894 1224 LINE"
);
},
{
closed = 1;
nodes = (
"-84 582 LINE",
"994 582 LINE",
"994 327 LINE",
"-84 327 LINE"
);
},
{
closed = 1;
nodes = (
"-84 977 LINE",
"994 977 LINE",
"994 722 LINE",
"-84 722 LINE"
);
}
);
width = 912;
}
);
unicode = 2260;
},
{
glyphname = logicalnot;
layers = (
{
layerId = "3F9F0E9B-02B5-40B1-9FD1-782180825A5D";
paths = (
{
closed = 1;
nodes = (
"1051 376 LINE",
"790 376 LINE",
"790 630 LINE",
"58 630 LINE",
"58 861 LINE",
"1051 861 LINE"
);
}
);
width = 1024;
}
);
unicode = 00AC;
},
{
glyphname = commercialMinusSign;
layers = (
{
layerId = "3F9F0E9B-02B5-40B1-9FD1-782180825A5D";
paths = (
{
closed = 1;
nodes = (
"647 1501 LINE",
"882 1441 LINE",
"297 -62 LINE",
"62 -2 LINE"
);
},
{
closed = 1;
nodes = (
"516 293 OFFCURVE",
"639 424 OFFCURVE",
"735 424 QCURVE SMOOTH",
"831 424 OFFCURVE",
"954 293 OFFCURVE",
"954 205 QCURVE SMOOTH",
"954 118 OFFCURVE",
"831 -13 OFFCURVE",
"735 -13 QCURVE SMOOTH",
"639 -13 OFFCURVE",
"516 118 OFFCURVE",
"516 205 QCURVE SMOOTH"
);
},
{
closed = 1;
nodes = (
"4 1335 OFFCURVE",
"127 1466 OFFCURVE",
"223 1466 QCURVE SMOOTH",
"319 1466 OFFCURVE",
"442 1335 OFFCURVE",
"442 1247 QCURVE SMOOTH",
"442 1160 OFFCURVE",
"319 1029 OFFCURVE",
"223 1029 QCURVE SMOOTH",
"127 1029 OFFCURVE",
"4 1160 OFFCURVE",
"4 1247 QCURVE SMOOTH"
);
}
);
width = 972;
}
);
unicode = 2052;
},
{
glyphname = divisionslash;
layers = (
{
layerId = "3F9F0E9B-02B5-40B1-9FD1-782180825A5D";
paths = (
{
closed = 1;
nodes = (
"554 1555 LINE",
"734 1500 LINE",
"118 -173 LINE",
"-62 -118 LINE"
);
}
);
width = 695;
}
);
unicode = 2215;
},
{
glyphname = bulletoperator;
layers = (
{
layerId = "3F9F0E9B-02B5-40B1-9FD1-782180825A5D";
paths = (
{
closed = 1;
nodes = (
"436 746 OFFCURVE",
"537 853 OFFCURVE",
"615 853 QCURVE SMOOTH",
"693 853 OFFCURVE",
"794 746 OFFCURVE",
"794 674 QCURVE SMOOTH",
"794 603 OFFCURVE",
"693 496 OFFCURVE",
"615 496 QCURVE SMOOTH",
"537 496 OFFCURVE",
"436 603 OFFCURVE",
"436 674 QCURVE SMOOTH"
);
}
);
width = 1230;
}
);
unicode = 2219;
},
{
glyphname = dollar;
layers = (
{
layerId = "3F9F0E9B-02B5-40B1-9FD1-782180825A5D";
paths = (
{
closed = 1;
nodes = (
"-37 462 LINE",
"307 462 LINE",
"302 429 LINE SMOOTH",
"289 346 OFFCURVE",
"300 261 OFFCURVE",
"344 261 QCURVE SMOOTH",
"383 261 OFFCURVE",
"415 325 OFFCURVE",
"427 385 QCURVE SMOOTH",
"438 442 OFFCURVE",
"412 541 OFFCURVE",
"317 590 QCURVE SMOOTH",
"162 670 OFFCURVE",
"52 896 OFFCURVE",
"85 1080 QCURVE SMOOTH",
"119 1272 OFFCURVE",
"361 1451 OFFCURVE",
"542 1451 QCURVE SMOOTH",
"725 1451 OFFCURVE",
"915 1279 OFFCURVE",
"875 1060 QCURVE SMOOTH",
"867 1016 LINE",
"518 1016 LINE",
"523 1042 LINE SMOOTH",
"538 1118 OFFCURVE",
"529 1173 OFFCURVE",
"502 1173 QCURVE SMOOTH",
"475 1173 OFFCURVE",
"448 1138 OFFCURVE",
"435 1084 QCURVE SMOOTH",
"422 1028 OFFCURVE",
"448 953 OFFCURVE",
"569 891 QCURVE SMOOTH",
"703 822 OFFCURVE",
"823 594 OFFCURVE",
"788 387 QCURVE SMOOTH",
"757 206 OFFCURVE",
"490 2 OFFCURVE",
"304 2 QCURVE SMOOTH",
"138 2 OFFCURVE",
"-82 182 OFFCURVE",
"-46 406 QCURVE SMOOTH"
);
},
{
closed = 1;
nodes = (
"287 757 LINE",
"583 757 LINE",
"462 79 LINE",
"467 69 LINE",
"428 -151 LINE",
"125 -151 LINE"
);
},
{
closed = 1;
nodes = (
"400 1372 LINE",
"395 1382 LINE",
"434 1606 LINE",
"737 1606 LINE",
"587 757 LINE",
"291 757 LINE"
);
}
);
width = 868;
}
);
unicode = 0024;
},
{
glyphname = cent;
layers = (
{
layerId = "3F9F0E9B-02B5-40B1-9FD1-782180825A5D";
paths = (
{
closed = 1;
nodes = (
"726 336 OFFCURVE",
"896 425 OFFCURVE",
"910 443 QCURVE",
"1155 443 LINE",
"1139 345 OFFCURVE",
"818 130 OFFCURVE",
"647 130 QCURVE SMOOTH",
"340 130 OFFCURVE",
"74 487 OFFCURVE",
"74 667 QCURVE SMOOTH",
"74 714 LINE SMOOTH",
"74 890 OFFCURVE",
"340 1252 OFFCURVE",
"647 1252 QCURVE SMOOTH",
"850 1252 OFFCURVE",
"1143 1011 OFFCURVE",
"1157 857 QCURVE",
"914 857 LINE",
"900 908 OFFCURVE",
"749 1047 OFFCURVE",
"645 1047 QCURVE SMOOTH",
"439 1047 OFFCURVE",
"336 774 OFFCURVE",
"336 714 QCURVE SMOOTH",
"336 667 LINE SMOOTH",
"336 584 OFFCURVE",
"438 336 OFFCURVE",
"647 336 QCURVE SMOOTH"
);
},
{
closed = 1;
nodes = (
"549 287 LINE",
"559 301 LINE",
"559 708 LINE",
"729 708 LINE",
"729 300 LINE",
"739 290 LINE",
"739 0 LINE",
"549 0 LINE"
);
},
{
closed = 1;
nodes = (
"559 1182 LINE",
"549 1192 LINE",
"549 1402 LINE",
"739 1402 LINE",
"739 1192 LINE",
"729 1179 LINE",
"729 708 LINE",
"559 708 LINE"
);
}
);
width = 1214;
}
);
unicode = 00A2;
},
{
glyphname = sterling;
layers = (
{
layerId = "3F9F0E9B-02B5-40B1-9FD1-782180825A5D";
paths = (
{
closed = 1;
nodes = (
"36 0 LINE",
"36 222 LINE",
"101 222 LINE SMOOTH",
"207 222 OFFCURVE",
"280 324 OFFCURVE",
"264 467 QCURVE SMOOTH",
"200 1039 LINE SMOOTH",
"181 1206 OFFCURVE",
"429 1476 OFFCURVE",
"667 1476 QCURVE SMOOTH",
"884 1476 OFFCURVE",
"1135 1257 OFFCURVE",
"1135 1103 QCURVE SMOOTH",
"1135 1087 LINE",
"861 1087 LINE",
"861 1103 LINE SMOOTH",
"847 1201 OFFCURVE",
"744 1240 OFFCURVE",
"669 1240 QCURVE SMOOTH",
"586 1240 OFFCURVE",
"455 1168 OFFCURVE",
"468 1039 QCURVE SMOOTH",
"527 458 LINE SMOOTH",
"538 356 OFFCURVE",
"488 262 OFFCURVE",
"417 228 QCURVE",
"1185 228 LINE",
"1185 0 LINE"
);
},
{
closed = 1;
nodes = (
"55 575 LINE",
"55 787 LINE",
"948 787 LINE",
"948 575 LINE"
);
}
);
width = 1157;
}
);
unicode = 00A3;
},
{
glyphname = currency;
layers = (
{
guideLines = (
{
position = "{0, 901}";
},
{
position = "{0, 555}";
}
);
layerId = "3F9F0E9B-02B5-40B1-9FD1-782180825A5D";
paths = (
{
closed = 1;
nodes = (
"218 544 OFFCURVE",
"432 319 OFFCURVE",
"575 319 QCURVE SMOOTH",
"717 319 OFFCURVE",
"931 544 OFFCURVE",
"931 708 QCURVE SMOOTH",
"931 868 OFFCURVE",
"717 1094 OFFCURVE",
"575 1094 QCURVE SMOOTH",
"432 1094 OFFCURVE",
"218 868 OFFCURVE",
"218 708 QCURVE"
);
},
{
closed = 1;
nodes = (
"-42 979 OFFCURVE",
"328 1346 OFFCURVE",
"574 1346 QCURVE SMOOTH",
"820 1346 OFFCURVE",
"1191 979 OFFCURVE",
"1191 715 QCURVE SMOOTH",
"1191 452 OFFCURVE",
"820 91 OFFCURVE",
"574 91 QCURVE SMOOTH",
"328 91 OFFCURVE",
"-42 457 OFFCURVE",
"-42 715 QCURVE"
);
},
{
closed = 1;
nodes = (
"991 1012 LINE",
"829 1181 LINE",
"1071 1429 LINE",
"1234 1260 LINE"
);
},
{
closed = 1;
nodes = (
"51 21 LINE",
"-110 189 LINE",
"132 436 LINE",
"293 269 LINE"
);
},
{
closed = 1;
nodes = (
"862 278 LINE",
"1026 446 LINE",
"1268 198 LINE",
"1105 29 LINE"
);
},
{
closed = 1;
nodes = (
"-88 1277 LINE",
"73 1446 LINE",
"316 1198 LINE",
"155 1029 LINE"
);
}
);
width = 1158;
}
);
unicode = 00A4;
userData = {
com.typemytype.robofont.guideline.magnetic.917FhrihjR = 5;
com.typemytype.robofont.guideline.magnetic.bRYxxRaQQf = 5;
};
},
{
glyphname = yen;
layers = (
{
layerId = "3F9F0E9B-02B5-40B1-9FD1-782180825A5D";
paths = (
{
closed = 1;
nodes = (
"59 500 LINE",
"1005 500 LINE",
"1005 279 LINE",
"59 279 LINE"
);
},
{
closed = 1;
nodes = (
"59 852 LINE",
"425 852 LINE",
"478 730 LINE",
"587 730 LINE",
"635 852 LINE",
"1005 852 LINE",
"1005 641 LINE",
"59 641 LINE"
);
},
{
closed = 1;
nodes = (
"399 548 LINE",
"-56 1456 LINE",
"243 1456 LINE",
"466 910 LINE SMOOTH",
"479 880 OFFCURVE",
"513 777 OFFCURVE",
"520 740 QCURVE",
"540 740 LINE",
"549 796 OFFCURVE",
"581 880 OFFCURVE",
"594 910 QCURVE SMOOTH",
"822 1456 LINE",
"1112 1456 LINE",
"657 548 LINE",
"657 0 LINE",
"399 0 LINE"
);
}
);
width = 1056;
}
);
unicode = 00A5;
},
{
glyphname = coloncurrency;
layers = (
{
guideLines = (
{
position = "{0, 1570}";
}
);
layerId = "3F9F0E9B-02B5-40B1-9FD1-782180825A5D";
paths = (
{
closed = 1;
nodes = (
"1009 1324 LINE",
"986 1301 LINE",
"814 68 LINE",
"830 43 LINE",
"806 -125 LINE",
"575 -125 LINE",
"598 40 LINE",
"622 66 LINE",
"807 1361 LINE",
"790 1381 LINE",
"818 1570 LINE",
"1048 1570 LINE"
);
},
{
closed = 1;
nodes = (
"720 1395 LINE",
"697 1374 LINE",
"510 66 LINE",
"526 39 LINE",
"503 -125 LINE",
"272 -125 LINE",
"307 122 LINE",
"331 148 LINE",
"507 1376 LINE",
"490 1399 LINE",
"515 1570 LINE",
"745 1570 LINE"
);
},
{
closed = 1;
nodes = (
"84 921 LINE SMOOTH",
"84 1167 OFFCURVE",
"407 1496 OFFCURVE",
"655 1496 QCURVE SMOOTH",
"904 1496 OFFCURVE",
"1209 1232 OFFCURVE",
"1209 1066 QCURVE SMOOTH",
"1209 996 LINE",
"958 996 LINE",
"958 1068 LINE SMOOTH",
"958 1127 OFFCURVE",
"812 1287 OFFCURVE",
"655 1287 QCURVE SMOOTH",
"518 1287 OFFCURVE",
"344 1091 OFFCURVE",
"344 921 QCURVE SMOOTH",
"344 495 LINE SMOOTH",
"344 358 OFFCURVE",
"529 148 OFFCURVE",
"669 148 QCURVE SMOOTH",
"832 148 OFFCURVE",
"968 327 OFFCURVE",
"968 382 QCURVE SMOOTH",
"968 460 LINE",
"1229 460 LINE",
"1229 420 LINE SMOOTH",
"1229 258 OFFCURVE",
"921 -41 OFFCURVE",
"677 -41 QCURVE SMOOTH",
"440 -41 OFFCURVE",
"84 294 OFFCURVE",
"84 535 QCURVE SMOOTH"
);
}
);
width = 1223;
}
);
unicode = 20A1;
userData = {
com.typemytype.robofont.guideline.magnetic.0DwZ2nfhdf = 5;
};
},
{
glyphname = franc;
layers = (
{
layerId = "3F9F0E9B-02B5-40B1-9FD1-782180825A5D";
paths = (
{
closed = 1;
nodes = (
"230 1456 LINE",
"1221 1456 LINE",
"1221 1239 LINE",
"504 1239 LINE",
"504 891 LINE",
"1108 891 LINE",
"1108 673 LINE",
"504 673 LINE",
"504 0 LINE",
"230 0 LINE"
);
},
{
closed = 1;
nodes = (
"20 516 LINE",
"925 516 LINE",
"925 296 LINE",
"20 296 LINE"
);
}
);
width = 1251;
}
);
unicode = 20A3;
},
{
glyphname = lira;
layers = (
{
layerId = "3F9F0E9B-02B5-40B1-9FD1-782180825A5D";
paths = (
{
closed = 1;
nodes = (
"36 0 LINE",
"36 222 LINE",
"101 222 LINE SMOOTH",
"207 222 OFFCURVE",
"286 324 OFFCURVE",
"270 467 QCURVE SMOOTH",
"206 1039 LINE SMOOTH",
"187 1206 OFFCURVE",
"429 1476 OFFCURVE",
"667 1476 QCURVE SMOOTH",
"884 1476 OFFCURVE",
"1135 1257 OFFCURVE",
"1135 1103 QCURVE SMOOTH",
"1135 1087 LINE",
"861 1087 LINE",
"861 1103 LINE SMOOTH",
"847 1201 OFFCURVE",
"744 1260 OFFCURVE",
"669 1260 QCURVE SMOOTH",
"576 1260 OFFCURVE",
"453 1122 OFFCURVE",
"462 1039 QCURVE SMOOTH",
"521 458 LINE SMOOTH",
"532 356 OFFCURVE",
"488 262 OFFCURVE",
"417 228 QCURVE",
"1185 228 LINE",
"1185 0 LINE"
);
},
{
closed = 1;
nodes = (
"35 395 LINE",
"35 587 LINE",
"908 587 LINE",
"908 395 LINE"
);
},
{
closed = 1;
nodes = (
"35 755 LINE",
"35 947 LINE",
"908 947 LINE",
"908 755 LINE"
);
}
);
width = 1157;
}
);
unicode = 20A4;
},
{
glyphname = naira;
layers = (
{
layerId = "3F9F0E9B-02B5-40B1-9FD1-782180825A5D";
paths = (
{
closed = 1;
nodes = (
"-21 1009 LINE",
"210 1009 LINE",
"210 994 LINE",
"907 994 LINE",
"907 1009 LINE",
"1148 1011 LINE",
"1148 832 LINE",
"907 830 LINE",
"907 838 LINE",
"210 838 LINE",
"210 830 LINE",
"-21 830 LINE"
);
},
{
closed = 1;
nodes = (
"-21 697 LINE",
"210 697 LINE",
"210 689 LINE",
"907 689 LINE",
"907 697 LINE",
"1148 699 LINE",
"1148 520 LINE",
"907 518 LINE",
"907 533 LINE",
"210 533 LINE",
"210 518 LINE",
"-21 518 LINE"
);
},
{
closed = 1;
nodes = (
"1035 0 LINE",
"774 0 LINE",
"303 1142 LINE",
"281 1253 LINE",
"269 1253 LINE",
"282 1125 LINE",
"282 0 LINE",
"83 0 LINE",
"83 1456 LINE",
"349 1456 LINE",
"803 347 LINE",
"832 227 LINE",
"846 230 LINE",
"836 351 LINE",
"836 1456 LINE",
"1035 1456 LINE"
);
}
);
width = 1024;
}
);
unicode = 20A6;
},
{
glyphname = peseta;
layers = (
{
layerId = "3F9F0E9B-02B5-40B1-9FD1-782180825A5D";
paths = (
{
closed = 1;
nodes = (
"436 528 LINE",
"436 733 LINE",
"586 733 LINE",
"770.269 733 OFFCURVE",
"848 904.104 OFFCURVE",
"848 989 QCURVE",
"848 1075.881 OFFCURVE",
"770.269 1252 OFFCURVE",
"586 1251 QCURVE",
"464 1251 LINE",
"464 0 LINE",
"204 0 LINE",
"204 1456 LINE",
"586 1456 LINE",
"874.537 1456 OFFCURVE",
"1109 1187.09 OFFCURVE",
"1109 992 QCURVE",
"1109 795.418 OFFCURVE",
"874.537 528 OFFCURVE",
"586 528 QCURVE"
);
},
{
closed = 1;
nodes = (
"1699 864 LINE",
"1077 864 LINE",
"1077 1050 LINE",
"1699 1050 LINE"
);
},
{
closed = 1;
nodes = (
"1481 1345 LINE",
"1481 284 LINE",
"1481 229.328 OFFCURVE",
"1565.463 200 OFFCURVE",
"1593 200 QCURVE SMOOTH",
"1616.269 200 OFFCURVE",
"1712 196 OFFCURVE",
"1810 230 QCURVE",
"1810 27 LINE",
"1730 -2 OFFCURVE",
"1568.015 -20 OFFCURVE",
"1504 -20 QCURVE SMOOTH",
"1399.522 -20 OFFCURVE",
"1218 118.119 OFFCURVE",
"1218 286 QCURVE",
"1218 1345 LINE"
);
}
);
width = 1934;
}
);
unicode = 20A7;
},
{
glyphname = won;
layers = (
{
layerId = "3F9F0E9B-02B5-40B1-9FD1-782180825A5D";
paths = (
{
closed = 1;
nodes = (
"48 1037 LINE",
"398 1037 LINE",
"398 1022 LINE",
"1557 1022 LINE",
"1557 1037 LINE",
"1863 1039 LINE",
"1863 864 LINE",
"1557 862 LINE",
"1557 870 LINE",
"398 870 LINE",
"398 862 LINE",
"48 862 LINE"
);
},
{
closed = 1;
nodes = (
"79 675 LINE",
"489 675 LINE",
"489 667 LINE",
"1478 667 LINE",
"1478 675 LINE",
"1824 677 LINE",
"1824 507 LINE",
"1478 505 LINE",
"1478 515 LINE",
"489 515 LINE",
"489 500 LINE",
"79 500 LINE"
);
},
{
closed = 1;
nodes = (
"115 1456 LINE",
"351 1456 LINE",
"573 494 LINE",
"591 366 LINE",
"597 366 LINE",
"615 494 LINE SMOOTH",
"809 1456 LINE",
"1111 1456 LINE",
"1332 493 LINE",
"1350 365 LINE",
"1356 365 LINE",
"1374 493 LINE SMOOTH",
"1570 1456 LINE",
"1782 1456 LINE",
"1464 -10 LINE",
"1233 -10 LINE",
"987 1100 LINE",
"966 1228 LINE",
"960 1228 LINE",
"939 1100 LINE SMOOTH",
"713 -10 LINE",
"473 -10 LINE"
);
}
);
width = 1911;
}
);
unicode = 20A9;
},
{
glyphname = dong;
layers = (
{
layerId = "3F9F0E9B-02B5-40B1-9FD1-782180825A5D";
paths = (
{
closed = 1;
nodes = (
"-26 520 LINE SMOOTH",
"-26 764 OFFCURVE",
"213 1070 OFFCURVE",
"404 1070 QCURVE SMOOTH",
"521 1070 OFFCURVE",
"666 1004 OFFCURVE",
"720 946 QCURVE",
"720 1485 LINE",
"965 1485 LINE",
"965 0 LINE",
"751 0 LINE",
"736 141 LINE",
"725 141 LINE",
"685 74 OFFCURVE",
"522 -20 OFFCURVE",
"442 -20 QCURVE SMOOTH",
"218 -20 OFFCURVE",
"-26 270 OFFCURVE",
"-26 528 QCURVE SMOOTH"
);
},
{
closed = 1;
nodes = (
"244 348 OFFCURVE",
"347 186 OFFCURVE",
"442 186 QCURVE SMOOTH",
"565 186 OFFCURVE",
"688 299 OFFCURVE",
"720 370 QCURVE",
"720 706 LINE",
"687 778 OFFCURVE",
"565 865 OFFCURVE",
"462 865 QCURVE SMOOTH",
"348 865 OFFCURVE",
"244 721 OFFCURVE",
"244 520 QCURVE SMOOTH",
"244 528 LINE SMOOTH"
);
},
{
closed = 1;
nodes = (
"325 1156 LINE",
"325 1353 LINE",
"1061 1353 LINE",
"1061 1156 LINE"
);
},
{
closed = 1;
nodes = (
"67 -307 LINE",
"67 -128 LINE",
"1011 -128 LINE",
"1011 -307 LINE"
);
}
);
width = 1111;
}
);
unicode = 20AB;
},
{
glyphname = Euro;
layers = (
{
layerId = "3F9F0E9B-02B5-40B1-9FD1-782180825A5D";
paths = (
{
closed = 1;
nodes = (
"906 804 LINE",
"22 804 LINE",
"22 1027 LINE",
"903 1027 LINE"
);
},
{
closed = 1;
nodes = (
"906 459 LINE",
"22 459 LINE",
"22 681 LINE",
"906 681 LINE"
);
},
{
closed = 1;
nodes = (
"233 903 LINE SMOOTH",
"233 1275 OFFCURVE",
"575 1484 OFFCURVE",
"729 1484 QCURVE SMOOTH",
"923 1484 OFFCURVE",
"1068 1388 OFFCURVE",
"1117 1337 QCURVE",
"954 1145 LINE",
"943 1156 OFFCURVE",
"859 1226 OFFCURVE",
"755 1226 QCURVE SMOOTH",
"684 1226 OFFCURVE",
"481 1125 OFFCURVE",
"481 906 QCURVE SMOOTH",
"481 541 LINE SMOOTH",
"481 333 OFFCURVE",
"708 223 OFFCURVE",
"793 223 QCURVE SMOOTH",
"892 223 OFFCURVE",
"972 289 OFFCURVE",
"982 296 QCURVE",
"1130 126 LINE",
"1093 72 OFFCURVE",
"934 -30 OFFCURVE",
"730 -30 QCURVE SMOOTH",
"598 -30 OFFCURVE",
"233 243 OFFCURVE",
"233 544 QCURVE SMOOTH"
);
}
);
width = 1062;
}
);
unicode = 20AC;
},
{
glyphname = florin;
layers = (
{
layerId = "3F9F0E9B-02B5-40B1-9FD1-782180825A5D";
paths = (
{
closed = 1;
nodes = (
"1061 717 LINE",
"639 717 LINE",
"639 111 LINE SMOOTH",
"639 -193 OFFCURVE",
"413 -437 OFFCURVE",
"93 -437 QCURVE SMOOTH",
"62 -437 OFFCURVE",
"9 -430 OFFCURVE",
"-19 -420 QCURVE",
"-5 -215 LINE",
"10 -221 OFFCURVE",
"79 -228 OFFCURVE",
"93 -228 QCURVE SMOOTH",
"214 -228 OFFCURVE",
"376 -122 OFFCURVE",
"376 111 QCURVE SMOOTH",
"376 717 LINE",
"61 717 LINE",
"61 903 LINE",
"376 903 LINE",
"376 1130 LINE SMOOTH",
"376 1305 OFFCURVE",
"584 1496 OFFCURVE",
"764 1496 QCURVE SMOOTH",
"883 1496 OFFCURVE",
"1049 1417 OFFCURVE",
"1079 1387 QCURVE",
"965 1182 LINE",
"917 1221 OFFCURVE",
"817 1260 OFFCURVE",
"769 1260 QCURVE SMOOTH",
"717 1260 OFFCURVE",
"639 1187 OFFCURVE",
"639 1130 QCURVE SMOOTH",
"639 903 LINE",
"1061 903 LINE"
);
}
);
width = 1117;
}
);
unicode = 0192;
},
{
glyphname = uni20AD;
layers = (
{
layerId = "3F9F0E9B-02B5-40B1-9FD1-782180825A5D";
paths = (
{
closed = 1;
nodes = (
"130 1456 LINE",
"317 1456 LINE",
"317 769 LINE",
"835 1456 LINE",
"1037 1456 LINE",
"317 500 LINE",
"317 0 LINE",
"130 0 LINE"
);
},
{
closed = 1;
nodes = (
"441 756 LINE",
"557 901 LINE",
"1061 0 LINE",
"845 0 LINE"
);
},
{
closed = 1;
nodes = (
"-9 661 LINE",
"-9 809 LINE",
"267 809 LINE",
"267 661 LINE"
);
},
{
closed = 1;
nodes = (
"1021 661 LINE",
"590 661 LINE",
"590 809 LINE",
"1021 809 LINE"
);
}
);
width = 1024;
}
);
unicode = 20AD;
},
{
glyphname = uni20B1;
layers = (
{
layerId = "3F9F0E9B-02B5-40B1-9FD1-782180825A5D";
paths = (
{
closed = 1;
nodes = (
"188 420 LINE",
"188 633 LINE",
"430 633 LINE SMOOTH",
"597 633 OFFCURVE",
"670 780 OFFCURVE",
"670 951 QCURVE SMOOTH",
"670 1123 OFFCURVE",
"597 1243 OFFCURVE",
"430 1243 QCURVE SMOOTH",
"314 1243 LINE",
"314 0 LINE",
"48 0 LINE",
"48 1456 LINE",
"436 1456 LINE SMOOTH",
"712 1456 OFFCURVE",
"931 1217 OFFCURVE",
"931 970 QCURVE SMOOTH",
"931 754 OFFCURVE",
"710 420 OFFCURVE",
"434 420 QCURVE SMOOTH"
);
},
{
closed = 1;
nodes = (
"-1 1178 LINE",
"201 1178 LINE",
"201 1133 LINE",
"817 1133 LINE",
"817 1178 LINE",
"1069 1180 LINE",
"1069 972 LINE",
"857 970 LINE",
"857 995 LINE",
"201 995 LINE",
"201 970 LINE",
"-1 970 LINE"
);
},
{
closed = 1;
nodes = (
"-1 898 LINE",
"201 898 LINE",
"201 873 LINE",
"857 873 LINE",
"857 898 LINE",
"1069 900 LINE",
"1069 692 LINE",
"777 690 LINE",
"777 734 LINE",
"201 734 LINE",
"201 690 LINE",
"-1 690 LINE"
);
}
);
width = 1064;
}
);
unicode = 20B1;
},
{
glyphname = uni20B2;
layers = (
{
layerId = "3F9F0E9B-02B5-40B1-9FD1-782180825A5D";
paths = (
{
closed = 1;
nodes = (
"450 57 LINE",
"485 71 LINE",
"485 708 LINE",
"639 708 LINE",
"639 70 LINE",
"682 60 LINE",
"682 -190 LINE",
"450 -190 LINE"
);
},
{
closed = 1;
nodes = (
"485 1252 LINE",
"456 1262 LINE",
"456 1582 LINE",
"668 1582 LINE",
"668 1262 LINE",
"639 1249 LINE",
"639 708 LINE",
"485 708 LINE"
);
},
{
closed = 1;
nodes = (
"1063 452 LINE SMOOTH",
"1063 286 OFFCURVE",
"765 -5 OFFCURVE",
"571 -5 QCURVE SMOOTH",
"316 -5 OFFCURVE",
"5 298 OFFCURVE",
"5 542 QCURVE SMOOTH",
"5 897 LINE SMOOTH",
"5 1212 OFFCURVE",
"327 1485 OFFCURVE",
"549 1485 QCURVE SMOOTH",
"790 1485 OFFCURVE",
"1027 1297 OFFCURVE",
"1060 1242 QCURVE",
"896 1043 LINE",
"847 1109 OFFCURVE",
"712 1232 OFFCURVE",
"563 1232 QCURVE SMOOTH",
"423 1232 OFFCURVE",
"283 1090 OFFCURVE",
"283 899 QCURVE SMOOTH",
"283 544 LINE SMOOTH",
"283 391 OFFCURVE",
"428 191 OFFCURVE",
"589 191 QCURVE SMOOTH",
"650 191 OFFCURVE",
"830 329 OFFCURVE",
"829 433 QCURVE SMOOTH",
"829 510 LINE",
"702 510 LINE",
"702 725 LINE",
"1063 725 LINE"
);
}
);
width = 1062;
}
);
unicode = 20B2;
},
{
glyphname = uni20B5;
layers = (
{
guideLines = (
{
position = "{0, -125}";
}
);
layerId = "3F9F0E9B-02B5-40B1-9FD1-782180825A5D";
paths = (
{
closed = 1;
nodes = (
"438 37 LINE",
"463 51 LINE",
"463 708 LINE",
"647 708 LINE",
"647 50 LINE",
"670 40 LINE",
"670 -190 LINE",
"438 -190 LINE"
);
},
{
closed = 1;
nodes = (
"463 1304 LINE",
"444 1314 LINE",
"444 1582 LINE",
"656 1582 LINE",
"656 1314 LINE",
"647 1301 LINE",
"647 708 LINE",
"463 708 LINE"
);
},
{
closed = 1;
nodes = (
"821 460 LINE",
"1093 458 LINE",
"1092 436 LINE SMOOTH",
"1068 274 OFFCURVE",
"829 -25 OFFCURVE",
"565 -25 QCURVE SMOOTH",
"307 -25 OFFCURVE",
"21 247 OFFCURVE",
"21 462 QCURVE SMOOTH",
"21 1002 LINE SMOOTH",
"21 1197 OFFCURVE",
"308 1485 OFFCURVE",
"563 1485 QCURVE SMOOTH",
"831 1485 OFFCURVE",
"1083 1223 OFFCURVE",
"1092 1030 QCURVE SMOOTH",
"1093 1008 LINE",
"816 1006 LINE",
"816 1030 LINE SMOOTH",
"814 1068 OFFCURVE",
"744 1271 OFFCURVE",
"566 1271 QCURVE SMOOTH",
"404 1271 OFFCURVE",
"300 1111 OFFCURVE",
"300 1004 QCURVE SMOOTH",
"300 464 LINE SMOOTH",
"300 347 OFFCURVE",
"417 172 OFFCURVE",
"579 172 QCURVE SMOOTH",
"698 172 OFFCURVE",
"821 343 OFFCURVE",
"821 436 QCURVE SMOOTH"
);
}
);
width = 1024;
}
);
unicode = 20B5;
userData = {
com.typemytype.robofont.guideline.magnetic.1Am3eQoiKr = 5;
};
},
{
glyphname = rupeeIndian;
layers = (
{
layerId = "3F9F0E9B-02B5-40B1-9FD1-782180825A5D";
paths = (
{
closed = 1;
nodes = (
"19 1119 LINE",
"1107 1119 LINE",
"1107 904 LINE",
"19 904 LINE"
);
},
{
closed = 1;
nodes = (
"685 267 LINE SMOOTH",
"580 439 OFFCURVE",
"359 524 OFFCURVE",
"146 535 QCURVE SMOOTH",
"19 542 LINE",
"19 759 LINE",
"342 759 LINE SMOOTH",
"552 759 OFFCURVE",
"678 902 OFFCURVE",
"678 1019 QCURVE SMOOTH",
"678 1107 OFFCURVE",
"534 1239 OFFCURVE",
"357 1239 QCURVE SMOOTH",
"19 1239 LINE",
"19 1456 LINE",
"1117 1456 LINE",
"1117 1240 LINE",
"924 1240 LINE",
"838 1251 LINE",
"840 1240 LINE",
"857 1219 OFFCURVE",
"937 1076 OFFCURVE",
"937 1019 QCURVE SMOOTH",
"937 808 OFFCURVE",
"764 662 OFFCURVE",
"560 631 QCURVE",
"665 599 OFFCURVE",
"852 461 OFFCURVE",
"938 317 QCURVE SMOOTH",
"1129 0 LINE",
"849 0 LINE"
);
}
);
width = 1144;
}
);
unicode = 20B9;
},
{
glyphname = liraTurkish;
layers = (
{
layerId = "3F9F0E9B-02B5-40B1-9FD1-782180825A5D";
paths = (
{
closed = 1;
nodes = (
"6 506 LINE",
"988 938 LINE",
"982 712 LINE",
"6 279 LINE"
);
},
{
closed = 1;
nodes = (
"180 1456 LINE",
"434 1456 LINE",
"434 207 LINE",
"511 207 LINE SMOOTH",
"739 207 OFFCURVE",
"955 456 OFFCURVE",
"947 581 QCURVE SMOOTH",
"947 618 LINE",
"1197 618 LINE",
"1197 583 LINE SMOOTH",
"1197 381 OFFCURVE",
"859 -5 OFFCURVE",
"474 -2 QCURVE SMOOTH",
"180 0 LINE"
);
},
{
closed = 1;
nodes = (
"6 885 LINE",
"988 1317 LINE",
"982 1091 LINE",
"6 658 LINE"
);
}
);
width = 1165;
}
);
unicode = 20BA;
},
{
glyphname = manat;
layers = (
{
layerId = "3F9F0E9B-02B5-40B1-9FD1-782180825A5D";
paths = (
{
closed = 1;
nodes = (
"1220 0 LINE",
"968 0 LINE",
"968 916 LINE SMOOTH",
"964 1062 OFFCURVE",
"764 1186 OFFCURVE",
"623 1186 QCURVE SMOOTH",
"485 1186 OFFCURVE",
"280 1062 OFFCURVE",
"278 916 QCURVE SMOOTH",
"278 0 LINE",
"26 0 LINE",
"26 916 LINE SMOOTH",
"32 1175 OFFCURVE",
"396 1416 OFFCURVE",
"623 1416 QCURVE SMOOTH",
"855 1416 OFFCURVE",
"1223 1175 OFFCURVE",
"1220 916 QCURVE SMOOTH"
);
},
{
closed = 1;
nodes = (
"518 0 LINE",
"518 1582 LINE",
"728 1582 LINE",
"728 0 LINE"
);
}
);
width = 1246;
}
);
unicode = 20BC;
},
{
glyphname = ruble;
layers = (
{
layerId = "3F9F0E9B-02B5-40B1-9FD1-782180825A5D";
paths = (
{
closed = 1;
nodes = (
"35 611 LINE",
"35 826 LINE",
"506 826 LINE SMOOTH",
"670 826 OFFCURVE",
"846 928 OFFCURVE",
"846 1032 QCURVE SMOOTH",
"846 1105 OFFCURVE",
"682 1239 OFFCURVE",
"506 1239 QCURVE SMOOTH",
"440 1239 LINE",
"440 0 LINE",
"192 0 LINE",
"192 1456 LINE",
"506 1456 LINE SMOOTH",
"794 1456 OFFCURVE",
"1119 1212 OFFCURVE",
"1119 1035 QCURVE SMOOTH",
"1119 822 OFFCURVE",
"794 611 OFFCURVE",
"506 611 QCURVE SMOOTH"
);
},
{
closed = 1;
nodes = (
"826 229 LINE",
"34 229 LINE",
"34 448 LINE",
"826 448 LINE"
);
}
);
width = 1064;
}
);
unicode = 20BD;
},
{
glyphname = asciicircum;
layers = (
{
layerId = "3F9F0E9B-02B5-40B1-9FD1-782180825A5D";
paths = (
{
closed = 1;
nodes = (
"420 1431 LINE",
"698 1431 LINE",
"848 745 LINE",
"552 745 LINE",
"499 1114 LINE",
"307 745 LINE",
"10 745 LINE"
);
}
);
width = 862;
}
);
unicode = 005E;
},
{
glyphname = asciitilde;
layers = (
{
layerId = "3F9F0E9B-02B5-40B1-9FD1-782180825A5D";
paths = (
{
closed = 1;
nodes = (
"31 788 LINE",
"76 846 OFFCURVE",
"178 899 OFFCURVE",
"234 897 QCURVE SMOOTH",
"276 896 OFFCURVE",
"367 867 OFFCURVE",
"418 838 QCURVE SMOOTH",
"472 809 OFFCURVE",
"555 775 OFFCURVE",
"592 774 QCURVE SMOOTH",
"633 773 OFFCURVE",
"723 819 OFFCURVE",
"776 873 QCURVE",
"682 396 LINE",
"650 365 OFFCURVE",
"564 324 OFFCURVE",
"507 326 QCURVE SMOOTH",
"465 327 OFFCURVE",
"360 358 OFFCURVE",
"295 391 QCURVE SMOOTH",
"244 415 OFFCURVE",
"165 441 OFFCURVE",
"133 442 QCURVE SMOOTH",
"68 443 OFFCURVE",
"-19 388 OFFCURVE",
"-58 351 QCURVE"
);
}
);
width = 761;
}
);
unicode = 007E;
},
{
glyphname = acute;
layers = (
{
layerId = "3F9F0E9B-02B5-40B1-9FD1-782180825A5D";
paths = (
{
closed = 1;
nodes = (
"208 1485 LINE",
"610 1386 LINE",
"391 1034 LINE",
"30 1137 LINE"
);
}
);
width = 642;
}
);
unicode = 00B4;
},
{
glyphname = grave;
layers = (
{
layerId = "3F9F0E9B-02B5-40B1-9FD1-782180825A5D";
paths = (
{
closed = 1;
nodes = (
"114 1424 LINE",
"530 1523 LINE",
"666 1137 LINE",
"294 1034 LINE"
);
}
);
width = 611;
}
);
unicode = 0060;
},
{
glyphname = hungarumlaut;
layers = (
{
layerId = "3F9F0E9B-02B5-40B1-9FD1-782180825A5D";
paths = (
{
closed = 1;
nodes = (
"245 1466 LINE",
"520 1270 LINE",
"260 952 LINE",
"24 1108 LINE"
);
},
{
closed = 1;
nodes = (
"683 1466 LINE",
"958 1270 LINE",
"697 952 LINE",
"461 1108 LINE"
);
}
);
width = 1024;
}
);
unicode = 02DD;
},
{
glyphname = circumflex;
layers = (
{
layerId = "3F9F0E9B-02B5-40B1-9FD1-782180825A5D";
paths = (
{
closed = 1;
nodes = (
"869 979 LINE",
"567 979 LINE",
"506 1057 LINE",
"445 979 LINE",
"146 979 LINE",
"439 1399 LINE",
"572 1399 LINE"
);
}
);
width = 1024;
}
);
unicode = 02C6;
},
{
glyphname = caron;
layers = (
{
layerId = "3F9F0E9B-02B5-40B1-9FD1-782180825A5D";
paths = (
{
closed = 1;
nodes = (
"146 1399 LINE",
"448 1399 LINE",
"509 1321 LINE",
"570 1399 LINE",
"869 1399 LINE",
"576 979 LINE",
"443 979 LINE"
);
}
);
width = 1024;
}
);
unicode = 02C7;
},
{
glyphname = breve;
layers = (
{
layerId = "3F9F0E9B-02B5-40B1-9FD1-782180825A5D";
paths = (
{
closed = 1;
nodes = (
"872 1298 LINE",
"834 1174 OFFCURVE",
"647 964 OFFCURVE",
"513 964 QCURVE SMOOTH",
"392 964 OFFCURVE",
"199 1157 OFFCURVE",
"154 1300 QCURVE",
"360 1367 LINE",
"384 1332 OFFCURVE",
"463 1273 OFFCURVE",
"516 1273 QCURVE SMOOTH",
"572 1273 OFFCURVE",
"652 1330 OFFCURVE",
"676 1367 QCURVE"
);
}
);
width = 1022;
}
);
unicode = 02D8;
},
{
glyphname = tilde;
layers = (
{
layerId = "3F9F0E9B-02B5-40B1-9FD1-782180825A5D";
paths = (
{
closed = 1;
nodes = (
"148 1259 OFFCURVE",
"294 1418 OFFCURVE",
"369 1418 QCURVE SMOOTH",
"414 1418 OFFCURVE",
"495 1395 OFFCURVE",
"534 1375 QCURVE SMOOTH",
"571 1355 OFFCURVE",
"655 1315 OFFCURVE",
"697 1315 QCURVE SMOOTH",
"740 1315 OFFCURVE",
"815 1361 OFFCURVE",
"840 1394 QCURVE",
"927 1215 LINE",
"887 1102 OFFCURVE",
"757 981 OFFCURVE",
"681 981 QCURVE SMOOTH",
"628 981 OFFCURVE",
"527 1022 OFFCURVE",
"493 1038 QCURVE SMOOTH",
"456 1056 OFFCURVE",
"383 1089 OFFCURVE",
"352 1089 QCURVE SMOOTH",
"301 1089 OFFCURVE",
"214 1020 OFFCURVE",
"194 994 QCURVE",
"112 1154 LINE"
);
}
);
width = 1024;
}
);
unicode = 02DC;
},
{
glyphname = macron;
layers = (
{
layerId = "3F9F0E9B-02B5-40B1-9FD1-782180825A5D";
paths = (
{
closed = 1;
nodes = (
"826 1014 LINE",
"198 1014 LINE",
"198 1316 LINE",
"826 1316 LINE"
);
}
);
width = 1024;
}
);
unicode = 00AF;
},
{
glyphname = dieresis;
layers = (
{
layerId = "3F9F0E9B-02B5-40B1-9FD1-782180825A5D";
paths = (
{
closed = 1;
nodes = (
"103 1224 OFFCURVE",
"200 1333 OFFCURVE",
"293 1333 QCURVE SMOOTH",
"386 1333 OFFCURVE",
"483 1224 OFFCURVE",
"483 1145 QCURVE SMOOTH",
"483 1071 OFFCURVE",
"386 964 OFFCURVE",
"293 964 QCURVE SMOOTH",
"200 964 OFFCURVE",
"103 1071 OFFCURVE",
"103 1145 QCURVE SMOOTH"
);
},
{
closed = 1;
nodes = (
"540 1222 OFFCURVE",
"636 1331 OFFCURVE",
"730 1331 QCURVE SMOOTH",
"821 1331 OFFCURVE",
"920 1222 OFFCURVE",
"920 1143 QCURVE SMOOTH",
"920 1069 OFFCURVE",
"821 962 OFFCURVE",
"730 962 QCURVE SMOOTH",
"636 962 OFFCURVE",
"540 1069 OFFCURVE",
"540 1143 QCURVE SMOOTH"
);
}
);
width = 1024;
}
);
unicode = 00A8;
},
{
glyphname = dotaccent;
layers = (
{
layerId = "3F9F0E9B-02B5-40B1-9FD1-782180825A5D";
paths = (
{
closed = 1;
nodes = (
"318 1244 OFFCURVE",
"417 1354 OFFCURVE",
"512 1354 QCURVE SMOOTH",
"606 1354 OFFCURVE",
"706 1244 OFFCURVE",
"706 1164 QCURVE SMOOTH",
"706 1089 OFFCURVE",
"606 981 OFFCURVE",
"512 981 QCURVE SMOOTH",
"417 981 OFFCURVE",
"318 1089 OFFCURVE",
"318 1164 QCURVE SMOOTH"
);
}
);
width = 1024;
}
);
unicode = 02D9;
},
{
glyphname = ring;
layers = (
{
layerId = "3F9F0E9B-02B5-40B1-9FD1-782180825A5D";
paths = (
{
closed = 1;
nodes = (
"236 1302 OFFCURVE",
"395 1457 OFFCURVE",
"512 1457 QCURVE SMOOTH",
"627 1457 OFFCURVE",
"788 1302 OFFCURVE",
"788 1193 QCURVE SMOOTH",
"788 1082 OFFCURVE",
"627 933 OFFCURVE",
"512 933 QCURVE SMOOTH",
"395 933 OFFCURVE",
"236 1082 OFFCURVE",
"236 1193 QCURVE"
);
},
{
closed = 1;
nodes = (
"432 1163 OFFCURVE",
"477 1115 OFFCURVE",
"512 1115 QCURVE SMOOTH",
"547 1115 OFFCURVE",
"592 1162 OFFCURVE",
"592 1194 QCURVE SMOOTH",
"592 1225 OFFCURVE",
"547 1274 OFFCURVE",
"512 1274 QCURVE SMOOTH",
"477 1274 OFFCURVE",
"432 1225 OFFCURVE",
"432 1194 QCURVE"
);
}
);
width = 1024;
}
);
unicode = 02DA;
},
{
glyphname = cedilla;
layers = (
{
layerId = "3F9F0E9B-02B5-40B1-9FD1-782180825A5D";
paths = (
{
closed = 1;
nodes = (
"568 42 LINE",
"542 -51 LINE",
"611 -61 OFFCURVE",
"704 -135 OFFCURVE",
"704 -221 QCURVE SMOOTH",
"704 -312 OFFCURVE",
"560 -422 OFFCURVE",
"315 -422 QCURVE",
"306 -280 LINE",
"373 -280 OFFCURVE",
"430 -253 OFFCURVE",
"430 -224 QCURVE SMOOTH",
"430 -197 OFFCURVE",
"390 -177 OFFCURVE",
"339 -173 QCURVE",
"391 42 LINE"
);
}
);
width = 1024;
}
);
unicode = 00B8;
},
{
glyphname = ogonek;
layers = (
{
layerId = "3F9F0E9B-02B5-40B1-9FD1-782180825A5D";
paths = (
{
closed = 1;
nodes = (
"632 5 LINE",
"597 -20 OFFCURVE",
"537 -79 OFFCURVE",
"537 -115 QCURVE SMOOTH",
"537 -132 OFFCURVE",
"557 -153 OFFCURVE",
"579 -153 QCURVE SMOOTH",
"597 -153 OFFCURVE",
"627 -143 OFFCURVE",
"635 -138 QCURVE",
"653 -370 LINE",
"622 -386 OFFCURVE",
"524 -413 OFFCURVE",
"450 -413 QCURVE SMOOTH",
"349 -413 OFFCURVE",
"209 -318 OFFCURVE",
"209 -229 QCURVE SMOOTH",
"209 -153 OFFCURVE",
"364 -2 OFFCURVE",
"480 59 QCURVE"
);
}
);
width = 1024;
}
);
unicode = 02DB;
},
{
glyphname = copyright;
layers = (
{
guideLines = (
{
position = "{0, 901}";
},
{
position = "{0, 555}";
}
);
layerId = "3F9F0E9B-02B5-40B1-9FD1-782180825A5D";
paths = (
{
closed = 1;
nodes = (
"1240 549 LINE",
"1240 354 OFFCURVE",
"953 205 OFFCURVE",
"796 205 QCURVE SMOOTH",
"633 205 OFFCURVE",
"399 419 OFFCURVE",
"399 655 QCURVE SMOOTH",
"399 701 LINE SMOOTH",
"399 938 OFFCURVE",
"635 1170 OFFCURVE",
"830 1170 QCURVE SMOOTH",
"1029 1170 OFFCURVE",
"1244 977 OFFCURVE",
"1244 825 QCURVE",
"989 825 LINE",
"989 883 OFFCURVE",
"908 939 OFFCURVE",
"826 939 QCURVE SMOOTH",
"746 939 OFFCURVE",
"675 850 OFFCURVE",
"675 789 QCURVE SMOOTH",
"675 569 LINE SMOOTH",
"675 492 OFFCURVE",
"767 422 OFFCURVE",
"846 422 QCURVE SMOOTH",
"925 422 OFFCURVE",
"983 486 OFFCURVE",
"983 549 QCURVE"
);
},
{
closed = 1;
nodes = (
"206 420 OFFCURVE",
"587 35 OFFCURVE",
"828 35 QCURVE SMOOTH",
"1068 35 OFFCURVE",
"1449 420 OFFCURVE",
"1449 687 QCURVE SMOOTH",
"1449 958 OFFCURVE",
"1068 1335 OFFCURVE",
"828 1335 QCURVE SMOOTH",
"587 1335 OFFCURVE",
"206 958 OFFCURVE",
"206 687 QCURVE SMOOTH"
);
},
{
closed = 1;
nodes = (
"18 1039 OFFCURVE",
"501 1539 OFFCURVE",
"827 1539 QCURVE SMOOTH",
"1152 1539 OFFCURVE",
"1636 1039 OFFCURVE",
"1636 687 QCURVE SMOOTH",
"1636 337 OFFCURVE",
"1152 -167 OFFCURVE",
"827 -167 QCURVE SMOOTH",
"501 -167 OFFCURVE",
"18 337 OFFCURVE",
"18 687 QCURVE SMOOTH"
);
}
);
width = 1654;
}
);
leftKerningGroup = copyright;
rightKerningGroup = copyright;
unicode = 00A9;
userData = {
com.typemytype.robofont.guideline.magnetic.0Pjz0qKr8z = 5;
com.typemytype.robofont.guideline.magnetic.sJo8BlDiJ7 = 5;
};
},
{
glyphname = registered;
layers = (
{
layerId = "3F9F0E9B-02B5-40B1-9FD1-782180825A5D";
paths = (
{
closed = 1;
nodes = (
"18 1039 OFFCURVE",
"501 1539 OFFCURVE",
"827 1539 QCURVE SMOOTH",
"1152 1539 OFFCURVE",
"1636 1039 OFFCURVE",
"1636 687 QCURVE SMOOTH",
"1636 337 OFFCURVE",
"1152 -157 OFFCURVE",
"827 -157 QCURVE SMOOTH",
"501 -157 OFFCURVE",
"18 337 OFFCURVE",
"18 687 QCURVE SMOOTH"
);
},
{
closed = 1;
nodes = (
"206 428 OFFCURVE",
"587 44 OFFCURVE",
"828 44 QCURVE SMOOTH",
"1068 44 OFFCURVE",
"1449 428 OFFCURVE",
"1449 687 QCURVE SMOOTH",
"1449 953 OFFCURVE",
"1068 1337 OFFCURVE",
"828 1337 QCURVE SMOOTH",
"587 1337 OFFCURVE",
"206 953 OFFCURVE",
"206 687 QCURVE SMOOTH"
);
},
{
closed = 1;
nodes = (
"689 575 LINE",
"689 225 LINE",
"469 225 LINE",
"469 1158 LINE",
"821 1158 LINE SMOOTH",
"998 1158 OFFCURVE",
"1227 1018 OFFCURVE",
"1227 867 QCURVE SMOOTH",
"1227 742 OFFCURVE",
"1117 626 OFFCURVE",
"1000 604 QCURVE",
"1040 581 OFFCURVE",
"1056 559 OFFCURVE",
"1074 530 QCURVE SMOOTH",
"1258 243 LINE",
"1258 225 LINE",
"1012 225 LINE",
"836 575 LINE"
);
},
{
closed = 1;
nodes = (
"689 955 LINE",
"689 760 LINE",
"847 760 LINE SMOOTH",
"892 760 OFFCURVE",
"975 789 OFFCURVE",
"975 838 QCURVE SMOOTH",
"975 915 OFFCURVE",
"945 954 OFFCURVE",
"822 955 QCURVE SMOOTH"
);
}
);
width = 1654;
}
);
leftKerningGroup = copyright;
rightKerningGroup = copyright;
unicode = 00AE;
},
{
glyphname = trademark;
layers = (
{
layerId = "3F9F0E9B-02B5-40B1-9FD1-782180825A5D";
paths = (
{
closed = 1;
nodes = (
"24 1446 LINE",
"732 1446 LINE",
"732 1228 LINE",
"495 1228 LINE",
"495 690 LINE",
"261 690 LINE",
"261 1228 LINE",
"24 1228 LINE"
);
},
{
closed = 1;
nodes = (
"824 1446 LINE",
"1030 1446 LINE",
"1270 897 LINE",
"1284 897 LINE",
"1533 1446 LINE",
"1742 1446 LINE",
"1742 690 LINE",
"1553 690 LINE",
"1553 1071 LINE",
"1532 1071 LINE",
"1368 690 LINE",
"1189 690 LINE",
"1047 1071 LINE",
"1025 1071 LINE",
"1025 690 LINE",
"824 690 LINE"
);
}
);
width = 1881;
}
);
unicode = 2122;
},
{
glyphname = degree;
layers = (
{
layerId = "3F9F0E9B-02B5-40B1-9FD1-782180825A5D";
paths = (
{
closed = 1;
nodes = (
"112 1331 OFFCURVE",
"274.269 1497 OFFCURVE",
"386 1497 QCURVE SMOOTH",
"496.985 1497 OFFCURVE",
"656 1330.94 OFFCURVE",
"656 1217 QCURVE SMOOTH",
"656 1102.567 OFFCURVE",
"496.985 940 OFFCURVE",
"386 940 QCURVE SMOOTH",
"274.269 940 OFFCURVE",
"112 1102 OFFCURVE",
"112 1217 QCURVE"
);
},
{
closed = 1;
nodes = (
"265 1165.552 OFFCURVE",
"336.537 1098 OFFCURVE",
"386 1098 QCURVE SMOOTH",
"435.463 1098 OFFCURVE",
"503 1165.552 OFFCURVE",
"503 1217 QCURVE SMOOTH",
"503 1268.94 OFFCURVE",
"435.463 1339 OFFCURVE",
"386 1339 QCURVE SMOOTH",
"336.537 1339 OFFCURVE",
"265 1268.94 OFFCURVE",
"265 1217 QCURVE"
);
}
);
width = 765;
}
);
unicode = 00B0;
},
{
glyphname = diagonalbarL;
layers = (
{
layerId = "3F9F0E9B-02B5-40B1-9FD1-782180825A5D";
paths = (
{
closed = 1;
nodes = (
"0 584 LINE",
"664 995 LINE",
"745 860 LINE",
"80 446 LINE"
);
}
);
width = 741;
}
);
},
{
glyphname = diagonalbarO;
layers = (
{
layerId = "3F9F0E9B-02B5-40B1-9FD1-782180825A5D";
paths = (
{
closed = 1;
nodes = (
"57 86 LINE",
"125 81 LINE",
"331 871 LINE",
"339 803 LINE",
"146 54 LINE",
"216 50 LINE",
"173 -109 LINE",
"3 -109 LINE"
);
},
{
closed = 1;
nodes = (
"623 1618 LINE",
"570 1424 LINE",
"499 1428 LINE",
"339 803 LINE",
"331 871 LINE",
"479 1455 LINE",
"409 1460 LINE",
"452 1618 LINE"
);
}
);
width = 623;
}
);
},
{
glyphname = diagonalbarl;
layers = (
{
layerId = "3F9F0E9B-02B5-40B1-9FD1-782180825A5D";
paths = (
{
closed = 1;
nodes = (
"-188 498 LINE",
"245 807 LINE",
"691 1172 LINE",
"798 989 LINE",
"347 649 LINE",
"-77 312 LINE"
);
}
);
width = 629;
}
);
},
{
glyphname = diagonalbaro;
layers = (
{
layerId = "3F9F0E9B-02B5-40B1-9FD1-782180825A5D";
paths = (
{
closed = 1;
nodes = (
"-4 89 LINE",
"71 84 LINE",
"272 584 LINE",
"264 514 LINE",
"81 55 LINE",
"151 51 LINE",
"77 -123 LINE",
"-88 -118 LINE"
);
},
{
closed = 1;
nodes = (
"589 1141 LINE",
"511 948 LINE",
"440 953 LINE",
"264 514 LINE",
"272 584 LINE",
"425 964 LINE",
"354 987 LINE",
"418 1144 LINE"
);
}
);
width = 512;
}
);
},
{
glyphname = engtail;
layers = (
{
layerId = "3F9F0E9B-02B5-40B1-9FD1-782180825A5D";
paths = (
{
closed = 1;
nodes = (
"551 190 LINE",
"551 -195 LINE SMOOTH",
"551 -276 OFFCURVE",
"425 -443 OFFCURVE",
"269 -443 QCURVE SMOOTH",
"197 -443 OFFCURVE",
"67 -381 OFFCURVE",
"27 -329 QCURVE",
"100 -242 LINE",
"142 -283 OFFCURVE",
"207 -304 OFFCURVE",
"248 -304 QCURVE SMOOTH",
"270 -304 OFFCURVE",
"326 -278 OFFCURVE",
"326 -165 QCURVE",
"326 -86 OFFCURVE",
"326 150 OFFCURVE",
"326 150 QCURVE",
"389 190 LINE"
);
}
);
width = 629;
}
);
},
{
glyphname = horizontalbarH;
layers = (
{
layerId = "3F9F0E9B-02B5-40B1-9FD1-782180825A5D";
paths = (
{
closed = 1;
nodes = (
"1040 1025 LINE",
"1040 1162 LINE",
"1272 1164 LINE",
"1262 1027 LINE"
);
},
{
closed = 1;
nodes = (
"186 1162 LINE",
"425 1162 LINE",
"425 1025 LINE",
"195 1025 LINE"
);
},
{
closed = 1;
nodes = (
"425 1152 LINE",
"1040 1152 LINE",
"1040 1035 LINE",
"425 1035 LINE"
);
}
);
width = 1458;
}
);
},
{
glyphname = horizontalbarlc;
layers = (
{
layerId = "3F9F0E9B-02B5-40B1-9FD1-782180825A5D";
paths = (
{
closed = 1;
nodes = (
"29 656 LINE",
"40 802 LINE",
"351 802 LINE",
"636 802 LINE",
"636 656 LINE",
"311 656 LINE"
);
}
);
width = 636;
}
);
},
{
glyphname = idotless;
layers = (
{
layerId = "3F9F0E9B-02B5-40B1-9FD1-782180825A5D";
paths = (
{
closed = 1;
nodes = (
"41 914 LINE",
"524 914 LINE",
"363 0 LINE",
"-120 0 LINE"
);
}
);
width = 510;
}
);
leftKerningGroup = mnpr_LC;
rightKerningGroup = u_LC;
},
{
glyphname = jdotless;
layers = (
{
layerId = "3F9F0E9B-02B5-40B1-9FD1-782180825A5D";
paths = (
{
closed = 1;
nodes = (
"-361 -35 LINE",
"-339 -40 OFFCURVE",
"-272 -47 OFFCURVE",
"-219 -47 QCURVE SMOOTH",
"-172 -47 OFFCURVE",
"-120 1 OFFCURVE",
"-107 75 QCURVE SMOOTH",
"41 914 LINE",
"525 914 LINE",
"363 -7 LINE SMOOTH",
"329 -202 OFFCURVE",
"52 -441 OFFCURVE",
"-174 -441 QCURVE SMOOTH",
"-268 -441 OFFCURVE",
"-372 -426 OFFCURVE",
"-416 -419 QCURVE"
);
}
);
width = 514;
}
);
rightKerningGroup = j_LC;
},
{
glyphname = zerosuperior;
layers = (
{
layerId = "3F9F0E9B-02B5-40B1-9FD1-782180825A5D";
paths = (
{
closed = 1;
nodes = (
"51 1266 LINE SMOOTH",
"70 1375 OFFCURVE",
"258 1496 OFFCURVE",
"368 1496 QCURVE SMOOTH",
"477 1496 OFFCURVE",
"620 1375 OFFCURVE",
"601 1266 QCURVE SMOOTH",
"542 928 LINE SMOOTH",
"520 803 OFFCURVE",
"332 675 OFFCURVE",
"223 675 QCURVE SMOOTH",
"113 675 OFFCURVE",
"-30 803 OFFCURVE",
"-8 928 QCURVE SMOOTH"
);
},
{
closed = 1;
nodes = (
"247 893 OFFCURVE",
"253 886 OFFCURVE",
"260 886 QCURVE SMOOTH",
"265 886 OFFCURVE",
"273 893 OFFCURVE",
"280 928 QCURVE SMOOTH",
"335 1242 LINE SMOOTH",
"341 1276 OFFCURVE",
"336 1286 OFFCURVE",
"331 1286 QCURVE SMOOTH",
"324 1286 OFFCURVE",
"315 1276 OFFCURVE",
"309 1242 QCURVE SMOOTH",
"254 928 LINE SMOOTH"
);
}
);
width = 580;
}
);
},
{
glyphname = gravecomb.case;
layers = (
{
layerId = "3F9F0E9B-02B5-40B1-9FD1-782180825A5D";
paths = (
{
closed = 1;
nodes = (
"97 1845 LINE",
"513 2047 LINE",
"784 1687 LINE",
"398 1545 LINE"
);
}
);
width = 1024;
}
);
},
{
glyphname = acutecomb.case;
layers = (
{
layerId = "3F9F0E9B-02B5-40B1-9FD1-782180825A5D";
paths = (
{
closed = 1;
nodes = (
"575 2047 LINE",
"991 1845 LINE",
"690 1545 LINE",
"304 1687 LINE"
);
}
);
width = 1024;
}
);
},
{
glyphname = circumflexcomb.case;
layers = (
{
layerId = "3F9F0E9B-02B5-40B1-9FD1-782180825A5D";
paths = (
{
closed = 1;
nodes = (
"875 1579 LINE",
"566 1579 LINE",
"503 1662 LINE",
"441 1579 LINE",
"135 1579 LINE",
"435 2028 LINE",
"571 2028 LINE"
);
}
);
width = 1024;
}
);
},
{
glyphname = tildecomb.case;
layers = (
{
layerId = "3F9F0E9B-02B5-40B1-9FD1-782180825A5D";
paths = (
{
closed = 1;
nodes = (
"133 1861 OFFCURVE",
"281 2020 OFFCURVE",
"358 2020 QCURVE SMOOTH",
"404 2020 OFFCURVE",
"486 1997 OFFCURVE",
"527 1976 QCURVE SMOOTH",
"565 1957 OFFCURVE",
"650 1917 OFFCURVE",
"692 1917 QCURVE SMOOTH",
"737 1917 OFFCURVE",
"814 1963 OFFCURVE",
"838 1996 QCURVE",
"927 1818 LINE",
"887 1706 OFFCURVE",
"754 1586 OFFCURVE",
"677 1586 QCURVE SMOOTH",
"622 1586 OFFCURVE",
"519 1627 OFFCURVE",
"485 1642 QCURVE SMOOTH",
"447 1660 OFFCURVE",
"372 1693 OFFCURVE",
"340 1693 QCURVE SMOOTH",
"289 1693 OFFCURVE",
"200 1625 OFFCURVE",
"179 1599 QCURVE",
"96 1758 LINE"
);
}
);
width = 1024;
}
);
},
{
glyphname = macroncomb.case;
layers = (
{
layerId = "3F9F0E9B-02B5-40B1-9FD1-782180825A5D";
paths = (
{
closed = 1;
nodes = (
"191 1942 LINE",
"833 1942 LINE",
"833 1618 LINE",
"191 1618 LINE"
);
}
);
width = 1024;
}
);
},
{
glyphname = brevecomb.case;
layers = (
{
layerId = "3F9F0E9B-02B5-40B1-9FD1-782180825A5D";
paths = (
{
closed = 1;
nodes = (
"938 1913 LINE",
"894 1783 OFFCURVE",
"672 1563 OFFCURVE",
"513 1563 QCURVE SMOOTH",
"370 1563 OFFCURVE",
"141 1765 OFFCURVE",
"88 1915 QCURVE",
"332 1986 LINE",
"360 1949 OFFCURVE",
"454 1887 OFFCURVE",
"516 1887 QCURVE SMOOTH",
"582 1887 OFFCURVE",
"677 1947 OFFCURVE",
"706 1986 QCURVE"
);
}
);
width = 1024;
}
);
},
{
glyphname = dotaccentcomb.case;
layers = (
{
layerId = "3F9F0E9B-02B5-40B1-9FD1-782180825A5D";
paths = (
{
closed = 1;
nodes = (
"314 1882 OFFCURVE",
"415 1994 OFFCURVE",
"512 1994 QCURVE SMOOTH",
"608 1994 OFFCURVE",
"709 1882 OFFCURVE",
"709 1801 QCURVE SMOOTH",
"709 1724 OFFCURVE",
"608 1614 OFFCURVE",
"512 1614 QCURVE SMOOTH",
"415 1614 OFFCURVE",
"314 1724 OFFCURVE",
"314 1801 QCURVE SMOOTH"
);
}
);
width = 1024;
}
);
},
{
glyphname = dieresiscomb.case;
layers = (
{
layerId = "3F9F0E9B-02B5-40B1-9FD1-782180825A5D";
paths = (
{
closed = 1;
nodes = (
"62 1884 OFFCURVE",
"168 1999 OFFCURVE",
"272 1999 QCURVE SMOOTH",
"373 1999 OFFCURVE",
"480 1884 OFFCURVE",
"480 1800 QCURVE SMOOTH",
"480 1721 OFFCURVE",
"373 1608 OFFCURVE",
"272 1608 QCURVE SMOOTH",
"168 1608 OFFCURVE",
"62 1721 OFFCURVE",
"62 1800 QCURVE SMOOTH"
);
},
{
closed = 1;
nodes = (
"543 1882 OFFCURVE",
"648 1997 OFFCURVE",
"751 1997 QCURVE SMOOTH",
"851 1997 OFFCURVE",
"961 1882 OFFCURVE",
"961 1798 QCURVE SMOOTH",
"961 1720 OFFCURVE",
"851 1606 OFFCURVE",
"751 1606 QCURVE SMOOTH",
"648 1606 OFFCURVE",
"543 1720 OFFCURVE",
"543 1798 QCURVE SMOOTH"
);
}
);
width = 1024;
}
);
},
{
glyphname = hookabovecomb.case;
layers = (
{
layerId = "3F9F0E9B-02B5-40B1-9FD1-782180825A5D";
paths = (
{
closed = 1;
nodes = (
"357 1597 LINE SMOOTH",
"357 1669 OFFCURVE",
"441 1737 OFFCURVE",
"501 1740 QCURVE SMOOTH",
"542 1744 OFFCURVE",
"564 1755 OFFCURVE",
"564 1771 QCURVE SMOOTH",
"564 1783 OFFCURVE",
"530 1798 OFFCURVE",
"488 1798 QCURVE SMOOTH",
"440 1798 OFFCURVE",
"336 1775 OFFCURVE",
"326 1772 QCURVE",
"257 1942 LINE",
"293 1961 OFFCURVE",
"466 2001 OFFCURVE",
"562 2001 QCURVE SMOOTH",
"703 2001 OFFCURVE",
"861 1889 OFFCURVE",
"861 1794 QCURVE SMOOTH",
"861 1695 OFFCURVE",
"743 1579 OFFCURVE",
"561 1569 QCURVE",
"561 1537 LINE",
"357 1537 LINE"
);
}
);
width = 1024;
}
);
},
{
glyphname = ringcomb.case;
layers = (
{
layerId = "3F9F0E9B-02B5-40B1-9FD1-782180825A5D";
paths = (
{
closed = 1;
nodes = (
"220 1922 OFFCURVE",
"388 2085 OFFCURVE",
"512 2085 QCURVE SMOOTH",
"634 2085 OFFCURVE",
"804 1922 OFFCURVE",
"804 1807 QCURVE SMOOTH",
"804 1690 OFFCURVE",
"634 1533 OFFCURVE",
"512 1533 QCURVE",
"388 1533 OFFCURVE",
"220 1690 OFFCURVE",
"220 1807 QCURVE SMOOTH"
);
},
{
closed = 1;
nodes = (
"427 1775 OFFCURVE",
"475 1725 OFFCURVE",
"512 1725 QCURVE SMOOTH",
"549 1725 OFFCURVE",
"597 1775 OFFCURVE",
"597 1808 QCURVE SMOOTH",
"597 1841 OFFCURVE",
"549 1892 OFFCURVE",
"512 1892 QCURVE SMOOTH",
"475 1892 OFFCURVE",
"427 1841 OFFCURVE",
"427 1808 QCURVE SMOOTH"
);
}
);
width = 1024;
}
);
},
{
glyphname = caroncomb.case;
layers = (
{
layerId = "3F9F0E9B-02B5-40B1-9FD1-782180825A5D";
paths = (
{
closed = 1;
nodes = (
"135 2028 LINE",
"444 2028 LINE",
"507 1945 LINE",
"569 2028 LINE",
"875 2028 LINE",
"575 1579 LINE",
"439 1579 LINE"
);
}
);
width = 1024;
}
);
},
{
glyphname = breveinvertedcomb.case;
layers = (
{
layerId = "3F9F0E9B-02B5-40B1-9FD1-782180825A5D";
paths = (
{
closed = 1;
nodes = (
"88 1646 LINE",
"132 1776 OFFCURVE",
"354 1996 OFFCURVE",
"513 1996 QCURVE SMOOTH",
"656 1996 OFFCURVE",
"885 1794 OFFCURVE",
"938 1644 QCURVE",
"694 1573 LINE",
"666 1610 OFFCURVE",
"572 1672 OFFCURVE",
"510 1672 QCURVE SMOOTH",
"444 1672 OFFCURVE",
"349 1612 OFFCURVE",
"320 1573 QCURVE"
);
}
);
width = 1024;
}
);
},
{
glyphname = horncomb.case;
layers = (
{
layerId = "3F9F0E9B-02B5-40B1-9FD1-782180825A5D";
paths = (
{
closed = 1;
nodes = (
"64 1456 LINE SMOOTH",
"101 1456 OFFCURVE",
"156 1493 OFFCURVE",
"156 1547 QCURVE SMOOTH",
"156 1595 OFFCURVE",
"146 1673 OFFCURVE",
"138 1711 QCURVE",
"386 1711 LINE",
"408 1676 OFFCURVE",
"447 1566 OFFCURVE",
"447 1478 QCURVE SMOOTH",
"447 1355 OFFCURVE",
"282 1239 OFFCURVE",
"170 1239 QCURVE SMOOTH",
"115 1239 OFFCURVE",
"31 1254 OFFCURVE",
"0 1267 QCURVE",
"0 1456 LINE"
);
}
);
width = 1024;
}
);
},
{
glyphname = commaaccentcomb.case;
layers = (
{
layerId = "3F9F0E9B-02B5-40B1-9FD1-782180825A5D";
paths = (
{
closed = 1;
nodes = (
"234 -545 OFFCURVE",
"284 -363 OFFCURVE",
"307 -235 QCURVE",
"759 -233 LINE",
"618 -652 LINE",
"205 -649 LINE"
);
}
);
width = 1024;
}
);
},
{
glyphname = cedillacomb.case;
layers = (
{
layerId = "3F9F0E9B-02B5-40B1-9FD1-782180825A5D";
paths = (
{
closed = 1;
nodes = (
"634 42 LINE",
"602 -61 LINE",
"688 -73 OFFCURVE",
"806 -155 OFFCURVE",
"806 -250 QCURVE SMOOTH",
"806 -352 OFFCURVE",
"624 -475 OFFCURVE",
"313 -475 QCURVE",
"302 -316 LINE",
"388 -316 OFFCURVE",
"459 -286 OFFCURVE",
"459 -255 QCURVE SMOOTH",
"459 -224 OFFCURVE",
"408 -202 OFFCURVE",
"344 -197 QCURVE",
"409 42 LINE"
);
}
);
width = 1024;
}
);
},
{
glyphname = ogonekcomb.case;
layers = (
{
layerId = "3F9F0E9B-02B5-40B1-9FD1-782180825A5D";
paths = (
{
closed = 1;
nodes = (
"219 -171 OFFCURVE",
"352 -8 OFFCURVE",
"524 57 QCURVE",
"702 -1 LINE",
"666 -28 OFFCURVE",
"607 -92 OFFCURVE",
"607 -129 QCURVE SMOOTH",
"607 -148 OFFCURVE",
"637 -171 OFFCURVE",
"670 -171 QCURVE SMOOTH",
"697 -171 OFFCURVE",
"741 -160 OFFCURVE",
"752 -154 QCURVE",
"774 -404 LINE",
"735 -420 OFFCURVE",
"613 -450 OFFCURVE",
"520 -450 QCURVE SMOOTH",
"393 -450 OFFCURVE",
"219 -349 OFFCURVE",
"219 -252 QCURVE SMOOTH"
);
}
);
width = 1024;
}
);
},
{
glyphname = acutecombstack.case;
layers = (
{
layerId = "3F9F0E9B-02B5-40B1-9FD1-782180825A5D";
paths = (
{
closed = 1;
nodes = (
"507 2093 LINE",
"876 1855 LINE",
"565 1585 LINE",
"188 1757 LINE"
);
}
);
width = 1024;
}
);
},
{
glyphname = brevecombstack.case;
layers = (
{
layerId = "3F9F0E9B-02B5-40B1-9FD1-782180825A5D";
paths = (
{
closed = 1;
nodes = (
"906 1852 LINE",
"866 1745 OFFCURVE",
"659 1564 OFFCURVE",
"510 1564 QCURVE SMOOTH",
"376 1564 OFFCURVE",
"162 1730 OFFCURVE",
"113 1853 QCURVE",
"341 1911 LINE",
"366 1881 OFFCURVE",
"455 1830 OFFCURVE",
"513 1830 QCURVE SMOOTH",
"575 1830 OFFCURVE",
"662 1879 OFFCURVE",
"690 1911 QCURVE"
);
}
);
width = 1024;
}
);
},
{
glyphname = circumflexcombstack.case;
layers = (
{
layerId = "3F9F0E9B-02B5-40B1-9FD1-782180825A5D";
paths = (
{
closed = 1;
nodes = (
"902 1579 LINE",
"571 1579 LINE",
"503 1642 LINE",
"436 1579 LINE",
"108 1579 LINE",
"430 1916 LINE",
"576 1916 LINE"
);
}
);
width = 1024;
}
);
},
{
glyphname = dieresiscombstack.case;
layers = (
{
layerId = "3F9F0E9B-02B5-40B1-9FD1-782180825A5D";
paths = (
{
closed = 1;
nodes = (
"105 1846 OFFCURVE",
"201 1944 OFFCURVE",
"295 1944 QCURVE SMOOTH",
"387 1944 OFFCURVE",
"483 1846 OFFCURVE",
"483 1776 QCURVE SMOOTH",
"483 1709 OFFCURVE",
"387 1614 OFFCURVE",
"295 1614 QCURVE SMOOTH",
"201 1614 OFFCURVE",
"105 1709 OFFCURVE",
"105 1776 QCURVE SMOOTH"
);
},
{
closed = 1;
nodes = (
"541 1845 OFFCURVE",
"635 1942 OFFCURVE",
"728 1942 QCURVE SMOOTH",
"818 1942 OFFCURVE",
"918 1845 OFFCURVE",
"918 1774 QCURVE SMOOTH",
"918 1708 OFFCURVE",
"818 1612 OFFCURVE",
"728 1612 QCURVE SMOOTH",
"635 1612 OFFCURVE",
"541 1708 OFFCURVE",
"541 1774 QCURVE SMOOTH"
);
}
);
width = 1024;
}
);
},
{
glyphname = dotaccentcombstack.case;
layers = (
{
layerId = "3F9F0E9B-02B5-40B1-9FD1-782180825A5D";
paths = (
{
closed = 1;
nodes = (
"334 1843 OFFCURVE",
"424 1939 OFFCURVE",
"512 1939 QCURVE SMOOTH",
"598 1939 OFFCURVE",
"689 1843 OFFCURVE",
"689 1774 QCURVE SMOOTH",
"689 1708 OFFCURVE",
"598 1614 OFFCURVE",
"512 1614 QCURVE SMOOTH",
"424 1614 OFFCURVE",
"334 1708 OFFCURVE",
"334 1774 QCURVE SMOOTH"
);
}
);
width = 1024;
}
);
},
{
glyphname = gravecombstack.case;
layers = (
{
layerId = "3F9F0E9B-02B5-40B1-9FD1-782180825A5D";
paths = (
{
closed = 1;
nodes = (
"188 1855 LINE",
"557 2093 LINE",
"876 1757 LINE",
"499 1585 LINE"
);
}
);
width = 1024;
}
);
},
{
glyphname = hookabovecombstack.case;
layers = (
{
layerId = "3F9F0E9B-02B5-40B1-9FD1-782180825A5D";
paths = (
{
closed = 1;
nodes = (
"341 1598 LINE SMOOTH",
"341 1668 OFFCURVE",
"417 1736 OFFCURVE",
"472 1739 QCURVE SMOOTH",
"509 1743 OFFCURVE",
"529 1754 OFFCURVE",
"529 1771 QCURVE SMOOTH",
"529 1781 OFFCURVE",
"497 1797 OFFCURVE",
"459 1797 QCURVE SMOOTH",
"416 1797 OFFCURVE",
"321 1774 OFFCURVE",
"312 1772 QCURVE",
"250 1941 LINE",
"282 1959 OFFCURVE",
"440 1999 OFFCURVE",
"527 1999 QCURVE SMOOTH",
"656 1999 OFFCURVE",
"798 1887 OFFCURVE",
"798 1793 QCURVE SMOOTH",
"798 1693 OFFCURVE",
"691 1579 OFFCURVE",
"525 1568 QCURVE",
"525 1537 LINE",
"341 1537 LINE"
);
}
);
width = 1024;
}
);
},
{
glyphname = macroncombstack.case;
layers = (
{
layerId = "3F9F0E9B-02B5-40B1-9FD1-782180825A5D";
paths = (
{
closed = 1;
nodes = (
"194 1879 LINE",
"830 1879 LINE",
"830 1619 LINE",
"194 1619 LINE"
);
}
);
width = 1024;
}
);
},
{
glyphname = tildecombstack.case;
layers = (
{
layerId = "3F9F0E9B-02B5-40B1-9FD1-782180825A5D";
paths = (
{
closed = 1;
nodes = (
"136 1814 OFFCURVE",
"283 1945 OFFCURVE",
"360 1945 QCURVE SMOOTH",
"406 1945 OFFCURVE",
"487 1926 OFFCURVE",
"528 1909 QCURVE SMOOTH",
"564 1893 OFFCURVE",
"649 1859 OFFCURVE",
"691 1859 QCURVE SMOOTH",
"736 1859 OFFCURVE",
"813 1898 OFFCURVE",
"837 1925 QCURVE",
"924 1778 LINE",
"885 1685 OFFCURVE",
"753 1586 OFFCURVE",
"677 1586 QCURVE SMOOTH",
"622 1586 OFFCURVE",
"519 1620 OFFCURVE",
"485 1633 QCURVE SMOOTH",
"448 1647 OFFCURVE",
"374 1675 OFFCURVE",
"342 1675 QCURVE SMOOTH",
"292 1675 OFFCURVE",
"202 1618 OFFCURVE",
"183 1596 QCURVE",
"100 1728 LINE"
);
}
);
width = 1024;
}
);
},
{
glyphname = caroncomb.alt;
layers = (
{
layerId = "3F9F0E9B-02B5-40B1-9FD1-782180825A5D";
paths = (
{
closed = 1;
nodes = (
"372 1522 LINE",
"808 1417 LINE",
"564 957 LINE",
"220 1038 LINE"
);
}
);
width = 1024;
}
);
},
{
glyphname = dollar.rvrn;
layers = (
{
layerId = "3F9F0E9B-02B5-40B1-9FD1-782180825A5D";
paths = (
{
closed = 1;
nodes = (
"-37 462 LINE",
"307 462 LINE",
"302 429 LINE SMOOTH",
"289 346 OFFCURVE",
"300 261 OFFCURVE",
"344 261 QCURVE SMOOTH",
"383 261 OFFCURVE",
"415 325 OFFCURVE",
"427 385 QCURVE SMOOTH",
"438 442 OFFCURVE",
"412 541 OFFCURVE",
"317 590 QCURVE SMOOTH",
"162 670 OFFCURVE",
"52 896 OFFCURVE",
"85 1080 QCURVE SMOOTH",
"119 1272 OFFCURVE",
"361 1451 OFFCURVE",
"542 1451 QCURVE SMOOTH",
"725 1451 OFFCURVE",
"915 1279 OFFCURVE",
"875 1060 QCURVE SMOOTH",
"867 1016 LINE",
"518 1016 LINE",
"523 1042 LINE SMOOTH",
"538 1118 OFFCURVE",
"529 1173 OFFCURVE",
"502 1173 QCURVE SMOOTH",
"475 1173 OFFCURVE",
"448 1138 OFFCURVE",
"435 1084 QCURVE SMOOTH",
"422 1028 OFFCURVE",
"448 953 OFFCURVE",
"569 891 QCURVE SMOOTH",
"703 822 OFFCURVE",
"823 594 OFFCURVE",
"788 387 QCURVE SMOOTH",
"757 206 OFFCURVE",
"490 2 OFFCURVE",
"304 2 QCURVE SMOOTH",
"138 2 OFFCURVE",
"-82 182 OFFCURVE",
"-46 406 QCURVE SMOOTH"
);
},
{
closed = 1;
nodes = (
"180 158 LINE",
"476 158 LINE",
"462 79 LINE",
"467 69 LINE",
"428 -151 LINE",
"125 -151 LINE"
);
},
{
closed = 1;
nodes = (
"400 1372 LINE",
"395 1382 LINE",
"434 1606 LINE",
"737 1606 LINE",
"671 1228 LINE",
"375 1228 LINE"
);
}
);
width = 868;
}
);
},
{
glyphname = zero.prop;
layers = (
{
layerId = "3F9F0E9B-02B5-40B1-9FD1-782180825A5D";
paths = (
{
closed = 1;
nodes = (
"142 963 LINE SMOOTH",
"142 1182 OFFCURVE",
"442 1496 OFFCURVE",
"707 1496 QCURVE SMOOTH",
"968 1496 OFFCURVE",
"1270 1182 OFFCURVE",
"1270 963 QCURVE SMOOTH",
"1270 493 LINE SMOOTH",
"1270 274 OFFCURVE",
"968 -38 OFFCURVE",
"707 -40 QCURVE SMOOTH",
"442 -42 OFFCURVE",
"142 274 OFFCURVE",
"142 493 QCURVE SMOOTH"
);
},
{
closed = 1;
nodes = (
"420 369 OFFCURVE",
"556 178 OFFCURVE",
"707 178 QCURVE SMOOTH",
"857 178 OFFCURVE",
"992 369 OFFCURVE",
"992 483 QCURVE SMOOTH",
"992 973 LINE SMOOTH",
"992 1087 OFFCURVE",
"857 1279 OFFCURVE",
"707 1279 QCURVE SMOOTH",
"556 1279 OFFCURVE",
"420 1087 OFFCURVE",
"420 973 QCURVE SMOOTH",
"420 483 LINE SMOOTH"
);
}
);
width = 1412;
}
);
},
{
glyphname = one.prop;
layers = (
{
layerId = "3F9F0E9B-02B5-40B1-9FD1-782180825A5D";
paths = (
{
closed = 1;
nodes = (
"385 1137 LINE",
"-5 952 LINE",
"-5 1220 LINE",
"656 1476 LINE",
"657 1476 LINE",
"657 0 LINE",
"385 0 LINE"
);
}
);
width = 802;
}
);
},
{
glyphname = two.prop;
layers = (
{
layerId = "3F9F0E9B-02B5-40B1-9FD1-782180825A5D";
paths = (
{
closed = 1;
nodes = (
"-7 196 LINE",
"579 711 LINE SMOOTH",
"706 823 OFFCURVE",
"795 948 OFFCURVE",
"795 1047 QCURVE SMOOTH",
"795 1110 OFFCURVE",
"679 1278 OFFCURVE",
"551 1278 QCURVE SMOOTH",
"427 1278 OFFCURVE",
"261 1095 OFFCURVE",
"261 985 QCURVE SMOOTH",
"261 985 LINE",
"-9 985 LINE",
"-9 985 LINE SMOOTH",
"-9 1187 OFFCURVE",
"316 1496 OFFCURVE",
"548 1496 QCURVE SMOOTH",
"786 1496 OFFCURVE",
"1065 1215 OFFCURVE",
"1065 1057 QCURVE SMOOTH",
"1065 894 OFFCURVE",
"859 639 OFFCURVE",
"742 547 QCURVE SMOOTH",
"321 214 LINE",
"1111 214 LINE",
"1111 0 LINE",
"-7 0 LINE"
);
}
);
width = 1096;
}
);
},
{
glyphname = three.prop;
layers = (
{
layerId = "3F9F0E9B-02B5-40B1-9FD1-782180825A5D";
paths = (
{
closed = 1;
nodes = (
"1 385 LINE",
"263 385 LINE",
"263 385 LINE SMOOTH",
"263 294 OFFCURVE",
"409 178 OFFCURVE",
"549 178 QCURVE SMOOTH",
"678 178 OFFCURVE",
"831 290 OFFCURVE",
"831 409 QCURVE SMOOTH",
"831 525 OFFCURVE",
"667 653 OFFCURVE",
"511 653 QCURVE SMOOTH",
"433 653 LINE",
"433 866 LINE",
"499 866 LINE SMOOTH",
"647 866 OFFCURVE",
"780 998 OFFCURVE",
"780 1071 QCURVE SMOOTH",
"780 1175 OFFCURVE",
"654 1279 OFFCURVE",
"549 1279 QCURVE SMOOTH",
"455 1279 OFFCURVE",
"306 1184 OFFCURVE",
"306 1095 QCURVE SMOOTH",
"306 1095 LINE",
"44 1095 LINE",
"44 1095 LINE SMOOTH",
"44 1234 OFFCURVE",
"319 1496 OFFCURVE",
"549 1496 QCURVE SMOOTH",
"776 1496 OFFCURVE",
"1054 1249 OFFCURVE",
"1054 1086 QCURVE SMOOTH",
"1054 1034 OFFCURVE",
"948 831 OFFCURVE",
"812 765 QCURVE",
"812 761 LINE",
"957 721 OFFCURVE",
"1109 526 OFFCURVE",
"1109 414 QCURVE SMOOTH",
"1109 199 OFFCURVE",
"784 -40 OFFCURVE",
"549 -40 QCURVE SMOOTH",
"310 -40 OFFCURVE",
"1 207 OFFCURVE",
"1 385 QCURVE SMOOTH"
);
}
);
width = 1217;
}
);
},
{
glyphname = four.prop;
layers = (
{
layerId = "3F9F0E9B-02B5-40B1-9FD1-782180825A5D";
paths = (
{
closed = 1;
nodes = (
"680 405 LINE",
"680 495 LINE",
"680 1054 LINE",
"662 1054 LINE",
"288 550 LINE",
"754 550 LINE",
"883 550 LINE",
"1166 550 LINE",
"1166 335 LINE",
"-35 335 LINE",
"-35 484 LINE",
"692 1456 LINE",
"931 1456 LINE",
"931 0 LINE",
"680 0 LINE"
);
}
);
width = 1141;
}
);
},
{
glyphname = five.prop;
layers = (
{
layerId = "3F9F0E9B-02B5-40B1-9FD1-782180825A5D";
paths = (
{
closed = 1;
nodes = (
"83 360 LINE",
"341 360 LINE",
"341 360 LINE SMOOTH",
"341 286 OFFCURVE",
"497 178 OFFCURVE",
"619 178 QCURVE SMOOTH",
"741 178 OFFCURVE",
"909 345 OFFCURVE",
"909 465 QCURVE SMOOTH",
"909 585 OFFCURVE",
"735 766 OFFCURVE",
"596 766 QCURVE SMOOTH",
"511 766 OFFCURVE",
"389 714 OFFCURVE",
"305 646 QCURVE",
"132 743 LINE",
"208 1456 LINE",
"1092 1456 LINE",
"1092 1212 LINE",
"426 1212 LINE",
"392 938 LINE",
"451 953 OFFCURVE",
"564 984 OFFCURVE",
"634 984 QCURVE SMOOTH",
"867 984 OFFCURVE",
"1177 683 OFFCURVE",
"1177 465 QCURVE SMOOTH",
"1177 247 OFFCURVE",
"856 -40 OFFCURVE",
"619 -40 QCURVE SMOOTH",
"382 -40 OFFCURVE",
"83 209 OFFCURVE",
"83 360 QCURVE SMOOTH"
);
}
);
width = 1259;
}
);
},
{
glyphname = six.prop;
layers = (
{
layerId = "3F9F0E9B-02B5-40B1-9FD1-782180825A5D";
paths = (
{
closed = 1;
nodes = (
"104 644 LINE SMOOTH",
"104 1010 OFFCURVE",
"589 1496 OFFCURVE",
"1063 1496 QCURVE SMOOTH",
"1084 1496 LINE",
"1084 1276 LINE",
"1063 1276 LINE SMOOTH",
"741 1276 OFFCURVE",
"371 1002 OFFCURVE",
"371 674 QCURVE SMOOTH",
"371 594 LINE SMOOTH",
"371 366 OFFCURVE",
"575 178 OFFCURVE",
"719 178 QCURVE SMOOTH",
"876 178 OFFCURVE",
"1030 347 OFFCURVE",
"1030 473 QCURVE SMOOTH",
"1030 614 OFFCURVE",
"868 787 OFFCURVE",
"720 787 QCURVE SMOOTH",
"582 787 OFFCURVE",
"358 628 OFFCURVE",
"358 463 QCURVE",
"284 463 LINE",
"284 703 OFFCURVE",
"540 1004 OFFCURVE",
"780 1004 QCURVE SMOOTH",
"1004 1004 OFFCURVE",
"1298 701 OFFCURVE",
"1298 473 QCURVE SMOOTH",
"1298 253 OFFCURVE",
"967 -40 OFFCURVE",
"723 -40 QCURVE SMOOTH",
"493 -40 OFFCURVE",
"104 271 OFFCURVE",
"104 614 QCURVE SMOOTH"
);
}
);
width = 1372;
}
);
},
{
glyphname = seven.prop;
layers = (
{
layerId = "3F9F0E9B-02B5-40B1-9FD1-782180825A5D";
paths = (
{
closed = 1;
nodes = (
"644 1242 LINE",
"-26 1242 LINE",
"-26 1456 LINE",
"921 1456 LINE",
"921 1332 LINE",
"475 0 LINE",
"201 0 LINE"
);
}
);
width = 929;
}
);
},
{
glyphname = eight.prop;
layers = (
{
layerId = "3F9F0E9B-02B5-40B1-9FD1-782180825A5D";
paths = (
{
closed = 1;
nodes = (
"171 507 OFFCURVE",
"299 674 OFFCURVE",
"432 739 QCURVE",
"432 743 LINE",
"341 798 OFFCURVE",
"220 983 OFFCURVE",
"220 1078 QCURVE SMOOTH",
"220 1258 OFFCURVE",
"518 1496 OFFCURVE",
"713 1496 QCURVE SMOOTH",
"908 1496 OFFCURVE",
"1208 1268 OFFCURVE",
"1208 1078 QCURVE SMOOTH",
"1208 991 OFFCURVE",
"1098 800 OFFCURVE",
"1005 741 QCURVE",
"1005 737 LINE",
"1131 671 OFFCURVE",
"1257 504 OFFCURVE",
"1257 395 QCURVE SMOOTH",
"1257 193 OFFCURVE",
"942 -40 OFFCURVE",
"713 -40 QCURVE SMOOTH",
"484 -40 OFFCURVE",
"171 193 OFFCURVE",
"171 395 QCURVE SMOOTH"
);
},
{
closed = 1;
nodes = (
"438 309 OFFCURVE",
"591 178 OFFCURVE",
"714 178 QCURVE SMOOTH",
"837 178 OFFCURVE",
"992 308 OFFCURVE",
"992 403 QCURVE SMOOTH",
"992 489 OFFCURVE",
"851 636 OFFCURVE",
"714 636 QCURVE SMOOTH",
"577 636 OFFCURVE",
"438 489 OFFCURVE",
"438 402 QCURVE SMOOTH"
);
},
{
closed = 1;
nodes = (
"479 973 OFFCURVE",
"598 854 OFFCURVE",
"714 854 QCURVE SMOOTH",
"830 854 OFFCURVE",
"949 973 OFFCURVE",
"949 1060 QCURVE SMOOTH",
"949 1145 OFFCURVE",
"809 1279 OFFCURVE",
"714 1279 QCURVE SMOOTH",
"619 1279 OFFCURVE",
"479 1137 OFFCURVE",
"479 1060 QCURVE SMOOTH"
);
}
);
width = 1432;
}
);
},
{
glyphname = nine.prop;
layers = (
{
layerId = "3F9F0E9B-02B5-40B1-9FD1-782180825A5D";
paths = (
{
closed = 1;
nodes = (
"64 1215 OFFCURVE",
"395 1496 OFFCURVE",
"639 1496 QCURVE SMOOTH",
"869 1496 OFFCURVE",
"1258 1185 OFFCURVE",
"1258 842 QCURVE SMOOTH",
"1258 812 LINE SMOOTH",
"1258 446 OFFCURVE",
"773 -40 OFFCURVE",
"299 -40 QCURVE SMOOTH",
"278 -40 LINE",
"278 178 LINE",
"299 178 LINE SMOOTH",
"621 178 OFFCURVE",
"991 454 OFFCURVE",
"991 782 QCURVE SMOOTH",
"991 862 LINE SMOOTH",
"991 1090 OFFCURVE",
"787 1279 OFFCURVE",
"643 1279 QCURVE SMOOTH",
"486 1279 OFFCURVE",
"332 1119 OFFCURVE",
"332 1003 QCURVE SMOOTH",
"332 872 OFFCURVE",
"494 704 OFFCURVE",
"642 704 QCURVE SMOOTH",
"780 704 OFFCURVE",
"1004 858 OFFCURVE",
"1004 1013 QCURVE",
"1078 1013 LINE",
"1078 781 OFFCURVE",
"822 486 OFFCURVE",
"582 486 QCURVE SMOOTH",
"360 486 OFFCURVE",
"64 783 OFFCURVE",
"64 1003 QCURVE SMOOTH"
);
}
);
width = 1372;
}
);
},
{
glyphname = .notdef;
layers = (
{
layerId = "3F9F0E9B-02B5-40B1-9FD1-782180825A5D";
paths = (
{
closed = 1;
nodes = (
"127 1456 LINE",
"127 1402 LINE",
"777 1402 LINE",
"777 1456 LINE"
);
},
{
closed = 1;
nodes = (
"100 1456 LINE",
"100 0 LINE",
"154 0 LINE",
"154 1456 LINE"
);
},
{
closed = 1;
nodes = (
"808 0 LINE",
"754 0 LINE",
"754 1456 LINE",
"808 1456 LINE"
);
},
{
closed = 1;
nodes = (
"127 54 LINE",
"127 0 LINE",
"777 0 LINE",
"777 54 LINE"
);
},
{
closed = 1;
nodes = (
"184 30 LINE",
"126 30 LINE",
"719 1426 LINE",
"777 1426 LINE"
);
},
{
closed = 1;
nodes = (
"777 30 LINE",
"184 1426 LINE",
"126 1426 LINE",
"719 30 LINE"
);
}
